<?xml version="1.0" encoding="UTF-8" standalone="no"?><svg xmlns="http://www.w3.org/2000/svg" xmlns:xlink="http://www.w3.org/1999/xlink" contentScriptType="application/ecmascript" contentStyleType="text/css" height="439px" preserveAspectRatio="none" style="width:660px;height:439px;background:#FFFFFF;" version="1.1" viewBox="0 0 660 439" width="660px" zoomAndPan="magnify"><defs><filter height="300%" id="f15m7az68rlq73" width="300%" x="-1" y="-1"><feGaussianBlur result="blurOut" stdDeviation="2.0"/><feColorMatrix in="blurOut" result="blurOut2" type="matrix" values="0 0 0 0 0 0 0 0 0 0 0 0 0 0 0 0 0 0 .4 0"/><feOffset dx="4.0" dy="4.0" in="blurOut2" result="blurOut3"/><feBlend in="SourceGraphic" in2="blurOut3" mode="normal"/></filter></defs><g><!--MD5=[6bcd4e2e4339cb18f29cde61031d3191]
cluster SZP--><polygon fill="#FFFFFF" filter="url(#f15m7az68rlq73)" points="461.5,189.5,493.5,189.5,500.5,213.1094,643.5,213.1094,643.5,386.5,461.5,386.5,461.5,189.5" style="stroke:#000000;stroke-width:1.5;"/><line style="stroke:#000000;stroke-width:1.5;" x1="461.5" x2="500.5" y1="213.1094" y2="213.1094"/><text fill="#000000" font-family="sans-serif" font-size="14" font-weight="bold" lengthAdjust="spacing" textLength="26" x="465.5" y="206.0332">SZP</text><!--MD5=[dcd42044cf7033d830ddcb044d88c8c8]
class SZPApl--><rect codeLine="34" fill="#FEFECE" filter="url(#f15m7az68rlq73)" height="144.8516" id="SZPApl" style="stroke:#A80036;stroke-width:1.5;" width="150" x="477.5" y="225.5"/><ellipse cx="528.25" cy="241.5" fill="#ADD1B2" rx="11" ry="11" style="stroke:#A80036;stroke-width:1.0;"/><path d="M531.0156,237.375 Q531.1719,237.1563 531.3594,237.0469 Q531.5469,236.9375 531.7656,236.9375 Q532.1406,236.9375 532.375,237.1953 Q532.6094,237.4531 532.6094,238.0625 L532.6094,239.5156 Q532.6094,240.125 532.375,240.3906 Q532.1406,240.6563 531.7656,240.6563 Q531.4219,240.6563 531.2188,240.4531 Q531.0156,240.2656 530.9063,239.75 Q530.8594,239.3906 530.6719,239.2031 Q530.3438,238.8281 529.7344,238.6094 Q529.125,238.3906 528.5,238.3906 Q527.7344,238.3906 527.1016,238.7188 Q526.4688,239.0469 525.9766,239.7969 Q525.4844,240.5469 525.4844,241.5781 L525.4844,242.6719 Q525.4844,243.9063 526.375,244.7266 Q527.2656,245.5469 528.8594,245.5469 Q529.7969,245.5469 530.4531,245.2969 Q530.8438,245.1406 531.2656,244.7031 Q531.5313,244.4375 531.6797,244.3594 Q531.8281,244.2813 532.0313,244.2813 Q532.3594,244.2813 532.6172,244.5391 Q532.875,244.7969 532.875,245.1406 Q532.875,245.4844 532.5313,245.8906 Q532.0313,246.4688 531.2344,246.7969 Q530.1563,247.25 528.8594,247.25 Q527.3438,247.25 526.1406,246.625 Q525.1563,246.125 524.4688,245.0547 Q523.7813,243.9844 523.7813,242.7031 L523.7813,241.5469 Q523.7813,240.2188 524.3984,239.0703 Q525.0156,237.9219 526.1094,237.3047 Q527.2031,236.6875 528.4375,236.6875 Q529.1719,236.6875 529.8203,236.8516 Q530.4688,237.0156 531.0156,237.375 Z " fill="#000000"/><text fill="#000000" font-family="sans-serif" font-size="12" lengthAdjust="spacing" textLength="40" x="548.75" y="246.4102">SZPApl</text><line style="stroke:#A80036;stroke-width:1.5;" x1="478.5" x2="626.5" y1="257.5" y2="257.5"/><line style="stroke:#A80036;stroke-width:1.5;" x1="478.5" x2="626.5" y1="265.5" y2="265.5"/><ellipse cx="488.5" cy="276.5" fill="#84BE84" rx="3" ry="3" style="stroke:#038048;stroke-width:1.0;"/><text fill="#000000" font-family="sans-serif" font-size="11" lengthAdjust="spacing" textLength="45" x="497.5" y="280.9189">__init__()</text><ellipse cx="488.5" cy="290.3359" fill="#84BE84" rx="3" ry="3" style="stroke:#038048;stroke-width:1.0;"/><text fill="#000000" font-family="sans-serif" font-size="11" lengthAdjust="spacing" textLength="78" x="497.5" y="294.7549">add_command()</text><ellipse cx="488.5" cy="304.1719" fill="#84BE84" rx="3" ry="3" style="stroke:#038048;stroke-width:1.0;"/><text fill="#000000" font-family="sans-serif" font-size="11" lengthAdjust="spacing" textLength="44" x="497.5" y="308.5908">encode()</text><ellipse cx="488.5" cy="318.0078" fill="#84BE84" rx="3" ry="3" style="stroke:#038048;stroke-width:1.0;"/><text fill="#000000" font-family="sans-serif" font-size="11" lengthAdjust="spacing" textLength="80" x="497.5" y="322.4268">decode( buffer )</text><text fill="#000000" font-family="sans-serif" font-size="11" lengthAdjust="spacing" textLength="0" x="500.5" y="336.2627"/><rect fill="#F24D5C" height="6" style="stroke:#C82930;stroke-width:1.0;" width="6" x="485.5" y="342.6797"/><text fill="#000000" font-family="sans-serif" font-size="11" lengthAdjust="spacing" textLength="124" x="497.5" y="350.0986">_call_command_encode()</text><rect fill="#F24D5C" height="6" style="stroke:#C82930;stroke-width:1.0;" width="6" x="485.5" y="356.5156"/><text fill="#000000" font-family="sans-serif" font-size="11" lengthAdjust="spacing" textLength="124" x="497.5" y="363.9346">_call_command_decode()</text><!--MD5=[43b7fb4cb2ac97836faa47d94c540511]
class SoundZoneServer--><rect codeLine="26" fill="#FEFECE" filter="url(#f15m7az68rlq73)" height="103.3438" id="SoundZoneServer" style="stroke:#A80036;stroke-width:1.5;" width="156" x="310.5" y="7"/><ellipse cx="336.75" cy="23" fill="#ADD1B2" rx="11" ry="11" style="stroke:#A80036;stroke-width:1.0;"/><path d="M339.5156,18.875 Q339.6719,18.6563 339.8594,18.5469 Q340.0469,18.4375 340.2656,18.4375 Q340.6406,18.4375 340.875,18.6953 Q341.1094,18.9531 341.1094,19.5625 L341.1094,21.0156 Q341.1094,21.625 340.875,21.8906 Q340.6406,22.1563 340.2656,22.1563 Q339.9219,22.1563 339.7188,21.9531 Q339.5156,21.7656 339.4063,21.25 Q339.3594,20.8906 339.1719,20.7031 Q338.8438,20.3281 338.2344,20.1094 Q337.625,19.8906 337,19.8906 Q336.2344,19.8906 335.6016,20.2188 Q334.9688,20.5469 334.4766,21.2969 Q333.9844,22.0469 333.9844,23.0781 L333.9844,24.1719 Q333.9844,25.4063 334.875,26.2266 Q335.7656,27.0469 337.3594,27.0469 Q338.2969,27.0469 338.9531,26.7969 Q339.3438,26.6406 339.7656,26.2031 Q340.0313,25.9375 340.1797,25.8594 Q340.3281,25.7813 340.5313,25.7813 Q340.8594,25.7813 341.1172,26.0391 Q341.375,26.2969 341.375,26.6406 Q341.375,26.9844 341.0313,27.3906 Q340.5313,27.9688 339.7344,28.2969 Q338.6563,28.75 337.3594,28.75 Q335.8438,28.75 334.6406,28.125 Q333.6563,27.625 332.9688,26.5547 Q332.2813,25.4844 332.2813,24.2031 L332.2813,23.0469 Q332.2813,21.7188 332.8984,20.5703 Q333.5156,19.4219 334.6094,18.8047 Q335.7031,18.1875 336.9375,18.1875 Q337.6719,18.1875 338.3203,18.3516 Q338.9688,18.5156 339.5156,18.875 Z " fill="#000000"/><text fill="#000000" font-family="sans-serif" font-size="12" lengthAdjust="spacing" textLength="99" x="353.25" y="27.9102">SoundZoneServer</text><line style="stroke:#A80036;stroke-width:1.5;" x1="311.5" x2="465.5" y1="39" y2="39"/><ellipse cx="321.5" cy="50" rx="3" ry="3" style="stroke:#038048;stroke-width:1.0;fill:none;"/><text fill="#000000" font-family="sans-serif" font-size="11" lengthAdjust="spacing" textLength="38" x="330.5" y="54.4189">_server</text><line style="stroke:#A80036;stroke-width:1.5;" x1="311.5" x2="465.5" y1="60.8359" y2="60.8359"/><ellipse cx="321.5" cy="71.8359" fill="#84BE84" rx="3" ry="3" style="stroke:#038048;stroke-width:1.0;"/><text fill="#000000" font-family="sans-serif" font-size="11" lengthAdjust="spacing" textLength="45" x="330.5" y="76.2549">__init__()</text><ellipse cx="321.5" cy="85.6719" fill="#84BE84" rx="3" ry="3" style="stroke:#038048;stroke-width:1.0;"/><text fill="#000000" font-family="sans-serif" font-size="11" lengthAdjust="spacing" textLength="130" x="330.5" y="90.0908">manual_add_server(name)</text><ellipse cx="321.5" cy="99.5078" fill="#84BE84" rx="3" ry="3" style="stroke:#038048;stroke-width:1.0;"/><text fill="#000000" font-family="sans-serif" font-size="11" lengthAdjust="spacing" textLength="44" x="330.5" y="103.9268">recieve()</text><!--MD5=[20934f0f42dab29883fe29cb589f3eaa]
class DataTransport--><rect codeLine="44" fill="#FEFECE" filter="url(#f15m7az68rlq73)" height="255.5391" id="DataTransport" style="stroke:#A80036;stroke-width:1.5;" width="435" x="7" y="170"/><ellipse cx="180.75" cy="186" fill="#ADD1B2" rx="11" ry="11" style="stroke:#A80036;stroke-width:1.0;"/><path d="M183.5156,181.875 Q183.6719,181.6563 183.8594,181.5469 Q184.0469,181.4375 184.2656,181.4375 Q184.6406,181.4375 184.875,181.6953 Q185.1094,181.9531 185.1094,182.5625 L185.1094,184.0156 Q185.1094,184.625 184.875,184.8906 Q184.6406,185.1563 184.2656,185.1563 Q183.9219,185.1563 183.7188,184.9531 Q183.5156,184.7656 183.4063,184.25 Q183.3594,183.8906 183.1719,183.7031 Q182.8438,183.3281 182.2344,183.1094 Q181.625,182.8906 181,182.8906 Q180.2344,182.8906 179.6016,183.2188 Q178.9688,183.5469 178.4766,184.2969 Q177.9844,185.0469 177.9844,186.0781 L177.9844,187.1719 Q177.9844,188.4063 178.875,189.2266 Q179.7656,190.0469 181.3594,190.0469 Q182.2969,190.0469 182.9531,189.7969 Q183.3438,189.6406 183.7656,189.2031 Q184.0313,188.9375 184.1797,188.8594 Q184.3281,188.7813 184.5313,188.7813 Q184.8594,188.7813 185.1172,189.0391 Q185.375,189.2969 185.375,189.6406 Q185.375,189.9844 185.0313,190.3906 Q184.5313,190.9688 183.7344,191.2969 Q182.6563,191.75 181.3594,191.75 Q179.8438,191.75 178.6406,191.125 Q177.6563,190.625 176.9688,189.5547 Q176.2813,188.4844 176.2813,187.2031 L176.2813,186.0469 Q176.2813,184.7188 176.8984,183.5703 Q177.5156,182.4219 178.6094,181.8047 Q179.7031,181.1875 180.9375,181.1875 Q181.6719,181.1875 182.3203,181.3516 Q182.9688,181.5156 183.5156,181.875 Z " fill="#000000"/><text fill="#000000" font-family="sans-serif" font-size="12" lengthAdjust="spacing" textLength="79" x="201.25" y="190.9102">DataTransport</text><line style="stroke:#A80036;stroke-width:1.5;" x1="8" x2="441" y1="202" y2="202"/><rect fill="none" height="6" style="stroke:#C82930;stroke-width:1.0;" width="6" x="15" y="210"/><text fill="#000000" font-family="sans-serif" font-size="11" lengthAdjust="spacing" textLength="35" x="27" y="217.4189">_ADDR</text><rect fill="none" height="6" style="stroke:#C82930;stroke-width:1.0;" width="6" x="15" y="223.8359"/><text fill="#000000" font-family="sans-serif" font-size="11" lengthAdjust="spacing" textLength="33" x="27" y="231.2549">_PORT</text><rect fill="none" height="6" style="stroke:#C82930;stroke-width:1.0;" width="6" x="15" y="237.6719"/><text fill="#000000" font-family="sans-serif" font-size="11" lengthAdjust="spacing" textLength="75" x="27" y="245.0908">_HEADER_SIZE</text><rect fill="none" height="6" style="stroke:#C82930;stroke-width:1.0;" width="6" x="15" y="251.5078"/><text fill="#000000" font-family="sans-serif" font-size="11" lengthAdjust="spacing" textLength="58" x="27" y="258.9268">_ENCODING</text><rect fill="none" height="6" style="stroke:#C82930;stroke-width:1.0;" width="6" x="15" y="265.3438"/><text fill="#000000" font-family="sans-serif" font-size="11" lengthAdjust="spacing" textLength="99" x="27" y="272.7627">_ADDRESS_FAMILY</text><rect fill="none" height="6" style="stroke:#C82930;stroke-width:1.0;" width="6" x="15" y="279.1797"/><text fill="#000000" font-family="sans-serif" font-size="11" lengthAdjust="spacing" textLength="67" x="27" y="286.5986">_SOCK_TYPE</text><rect fill="none" height="6" style="stroke:#C82930;stroke-width:1.0;" width="6" x="15" y="293.0156"/><text fill="#000000" font-family="sans-serif" font-size="11" lengthAdjust="spacing" textLength="12" x="27" y="300.4346">_s</text><rect fill="none" height="6" style="stroke:#C82930;stroke-width:1.0;" width="6" x="15" y="306.8516"/><text fill="#000000" font-family="sans-serif" font-size="11" lengthAdjust="spacing" textLength="55" x="27" y="314.2705">_port_open</text><rect fill="none" height="6" style="stroke:#C82930;stroke-width:1.0;" width="6" x="15" y="320.6875"/><text fill="#000000" font-family="sans-serif" font-size="11" lengthAdjust="spacing" textLength="57" x="27" y="328.1064">_connected</text><line style="stroke:#A80036;stroke-width:1.5;" x1="8" x2="441" y1="334.5234" y2="334.5234"/><rect fill="#F24D5C" height="6" style="stroke:#C82930;stroke-width:1.0;" width="6" x="15" y="342.5234"/><text fill="#000000" font-family="sans-serif" font-size="11" lengthAdjust="spacing" textLength="63" x="27" y="349.9424">_open_port()</text><rect fill="#F24D5C" height="6" style="stroke:#C82930;stroke-width:1.0;" width="6" x="15" y="356.3594"/><text fill="#000000" font-family="sans-serif" font-size="11" lengthAdjust="spacing" textLength="40" x="27" y="363.7783">_close()</text><rect fill="#F24D5C" height="6" style="stroke:#C82930;stroke-width:1.0;" width="6" x="15" y="370.1953"/><text fill="#000000" font-family="sans-serif" font-size="11" lengthAdjust="spacing" textLength="53" x="27" y="377.6143">_connect()</text><ellipse cx="18" cy="387.0313" fill="#84BE84" rx="3" ry="3" style="stroke:#038048;stroke-width:1.0;"/><text fill="#000000" font-family="sans-serif" font-size="11" lengthAdjust="spacing" textLength="409" x="27" y="391.4502">__init__(address, port, header_size, encoding, addr_family, socket_type, buffer_len)</text><ellipse cx="18" cy="400.8672" fill="#84BE84" rx="3" ry="3" style="stroke:#038048;stroke-width:1.0;"/><text fill="#000000" font-family="sans-serif" font-size="11" lengthAdjust="spacing" textLength="44" x="27" y="405.2861">receive()</text><ellipse cx="18" cy="414.7031" fill="#84BE84" rx="3" ry="3" style="stroke:#038048;stroke-width:1.0;"/><text fill="#000000" font-family="sans-serif" font-size="11" lengthAdjust="spacing" textLength="52" x="27" y="419.1221">send(msg)</text><!--MD5=[842183e12e2477ebffe455f611ec3d1f]
link SoundZoneServer to DataTransport--><path codeLine="19" d="M353.52,110.16 C343.39,124.82 331.82,141.58 319.86,158.91 " fill="none" id="SoundZoneServer-to-DataTransport" style="stroke:#A80036;stroke-width:1.0;"/><polygon fill="#A80036" points="312.37,169.75,319.0703,167.0844,319.1868,159.8742,312.4865,162.5398,312.37,169.75" style="stroke:#A80036;stroke-width:1.0;"/><!--MD5=[6ca04d21279430d5d6da581e1d36d124]
link SoundZoneServer to SZPApl--><path codeLine="22" d="M423.48,110.16 C444.36,140.4 471.39,179.54 495.31,214.17 " fill="none" id="SoundZoneServer-to-SZPApl" style="stroke:#A80036;stroke-width:1.0;"/><polygon fill="#A80036" points="502.95,225.25,502.8335,218.0398,496.1332,215.3742,496.2497,222.5844,502.95,225.25" style="stroke:#A80036;stroke-width:1.0;"/><!--MD5=[1d3fdd8545102ff641e4bfa9315ac885]
@startuml class_diagram

SoundZoneServer - -* DataTransport

package "SZP" {
    SoundZoneServer - -* SZPApl
}


class SoundZoneServer {
    + _server

    + __init__()
    + manual_add_server(name)
    + recieve()
}

class SZPApl {
    + __init__()
    + add_command()
    + encode()
    + decode( buffer )

    - _call_command_encode()
    - _call_command_decode()
}

class DataTransport {
    - _ADDR
    - _PORT
    - _HEADER_SIZE
    - _ENCODING
    - _ADDRESS_FAMILY
    - _SOCK_TYPE
    - _s
    - _port_open
    - _connected

    - _open_port()
    - _close()
    - _connect()
    + __init__(address, port, header_size, encoding, addr_family, socket_type, buffer_len)
    + receive()
    + send(msg)

}

@enduml

PlantUML version 1.2021.10(Mon Aug 30 15:43:48 CEST 2021)
(GPL source distribution)
Java Runtime: Java(TM) SE Runtime Environment
JVM: Java HotSpot(TM) 64-Bit Server VM
Default Encoding: Cp1252
Language: en
Country: US
--></g></svg>