<?xml version="1.0" encoding="UTF-8" standalone="no"?><svg xmlns="http://www.w3.org/2000/svg" xmlns:xlink="http://www.w3.org/1999/xlink" contentScriptType="application/ecmascript" contentStyleType="text/css" height="439px" preserveAspectRatio="none" style="width:667px;height:439px;background:#FFFFFF;" version="1.1" viewBox="0 0 667 439" width="667px" zoomAndPan="magnify"><defs><filter height="300%" id="f1ao0yk95yzd4k" width="300%" x="-1" y="-1"><feGaussianBlur result="blurOut" stdDeviation="2.0"/><feColorMatrix in="blurOut" result="blurOut2" type="matrix" values="0 0 0 0 0 0 0 0 0 0 0 0 0 0 0 0 0 0 .4 0"/><feOffset dx="4.0" dy="4.0" in="blurOut2" result="blurOut3"/><feBlend in="SourceGraphic" in2="blurOut3" mode="normal"/></filter></defs><g><!--MD5=[6bcd4e2e4339cb18f29cde61031d3191]
cluster SZP--><polygon fill="#FFFFFF" filter="url(#f1ao0yk95yzd4k)" points="468,189.5,500,189.5,507,213.1094,650,213.1094,650,386.5,468,386.5,468,189.5" style="stroke:#000000;stroke-width:1.5;"/><line style="stroke:#000000;stroke-width:1.5;" x1="468" x2="507" y1="213.1094" y2="213.1094"/><text fill="#000000" font-family="sans-serif" font-size="14" font-weight="bold" lengthAdjust="spacing" textLength="26" x="472" y="206.0332">SZP</text><!--MD5=[dcd42044cf7033d830ddcb044d88c8c8]
class SZPApl--><rect codeLine="35" fill="#FEFECE" filter="url(#f1ao0yk95yzd4k)" height="144.8516" id="SZPApl" style="stroke:#A80036;stroke-width:1.5;" width="150" x="484" y="225.5"/><ellipse cx="534.75" cy="241.5" fill="#ADD1B2" rx="11" ry="11" style="stroke:#A80036;stroke-width:1.0;"/><path d="M537.5156,237.375 Q537.6719,237.1563 537.8594,237.0469 Q538.0469,236.9375 538.2656,236.9375 Q538.6406,236.9375 538.875,237.1953 Q539.1094,237.4531 539.1094,238.0625 L539.1094,239.5156 Q539.1094,240.125 538.875,240.3906 Q538.6406,240.6563 538.2656,240.6563 Q537.9219,240.6563 537.7188,240.4531 Q537.5156,240.2656 537.4063,239.75 Q537.3594,239.3906 537.1719,239.2031 Q536.8438,238.8281 536.2344,238.6094 Q535.625,238.3906 535,238.3906 Q534.2344,238.3906 533.6016,238.7188 Q532.9688,239.0469 532.4766,239.7969 Q531.9844,240.5469 531.9844,241.5781 L531.9844,242.6719 Q531.9844,243.9063 532.875,244.7266 Q533.7656,245.5469 535.3594,245.5469 Q536.2969,245.5469 536.9531,245.2969 Q537.3438,245.1406 537.7656,244.7031 Q538.0313,244.4375 538.1797,244.3594 Q538.3281,244.2813 538.5313,244.2813 Q538.8594,244.2813 539.1172,244.5391 Q539.375,244.7969 539.375,245.1406 Q539.375,245.4844 539.0313,245.8906 Q538.5313,246.4688 537.7344,246.7969 Q536.6563,247.25 535.3594,247.25 Q533.8438,247.25 532.6406,246.625 Q531.6563,246.125 530.9688,245.0547 Q530.2813,243.9844 530.2813,242.7031 L530.2813,241.5469 Q530.2813,240.2188 530.8984,239.0703 Q531.5156,237.9219 532.6094,237.3047 Q533.7031,236.6875 534.9375,236.6875 Q535.6719,236.6875 536.3203,236.8516 Q536.9688,237.0156 537.5156,237.375 Z " fill="#000000"/><text fill="#000000" font-family="sans-serif" font-size="12" lengthAdjust="spacing" textLength="40" x="555.25" y="246.4102">SZPApl</text><line style="stroke:#A80036;stroke-width:1.5;" x1="485" x2="633" y1="257.5" y2="257.5"/><line style="stroke:#A80036;stroke-width:1.5;" x1="485" x2="633" y1="265.5" y2="265.5"/><ellipse cx="495" cy="276.5" fill="#84BE84" rx="3" ry="3" style="stroke:#038048;stroke-width:1.0;"/><text fill="#000000" font-family="sans-serif" font-size="11" lengthAdjust="spacing" textLength="45" x="504" y="280.9189">__init__()</text><ellipse cx="495" cy="290.3359" fill="#84BE84" rx="3" ry="3" style="stroke:#038048;stroke-width:1.0;"/><text fill="#000000" font-family="sans-serif" font-size="11" lengthAdjust="spacing" textLength="78" x="504" y="294.7549">add_command()</text><ellipse cx="495" cy="304.1719" fill="#84BE84" rx="3" ry="3" style="stroke:#038048;stroke-width:1.0;"/><text fill="#000000" font-family="sans-serif" font-size="11" lengthAdjust="spacing" textLength="44" x="504" y="308.5908">encode()</text><ellipse cx="495" cy="318.0078" fill="#84BE84" rx="3" ry="3" style="stroke:#038048;stroke-width:1.0;"/><text fill="#000000" font-family="sans-serif" font-size="11" lengthAdjust="spacing" textLength="80" x="504" y="322.4268">decode( buffer )</text><text fill="#000000" font-family="sans-serif" font-size="11" lengthAdjust="spacing" textLength="0" x="507" y="336.2627"/><rect fill="#F24D5C" height="6" style="stroke:#C82930;stroke-width:1.0;" width="6" x="492" y="342.6797"/><text fill="#000000" font-family="sans-serif" font-size="11" lengthAdjust="spacing" textLength="124" x="504" y="350.0986">_call_command_encode()</text><rect fill="#F24D5C" height="6" style="stroke:#C82930;stroke-width:1.0;" width="6" x="492" y="356.5156"/><text fill="#000000" font-family="sans-serif" font-size="11" lengthAdjust="spacing" textLength="124" x="504" y="363.9346">_call_command_decode()</text><!--MD5=[43b7fb4cb2ac97836faa47d94c540511]
class SoundZoneServer--><rect codeLine="27" fill="#FEFECE" filter="url(#f1ao0yk95yzd4k)" height="103.3438" id="SoundZoneServer" style="stroke:#A80036;stroke-width:1.5;" width="177" x="304.5" y="7"/><ellipse cx="340.2" cy="23" fill="#ADD1B2" rx="11" ry="11" style="stroke:#A80036;stroke-width:1.0;"/><path d="M342.9656,18.875 Q343.1219,18.6563 343.3094,18.5469 Q343.4969,18.4375 343.7156,18.4375 Q344.0906,18.4375 344.325,18.6953 Q344.5594,18.9531 344.5594,19.5625 L344.5594,21.0156 Q344.5594,21.625 344.325,21.8906 Q344.0906,22.1563 343.7156,22.1563 Q343.3719,22.1563 343.1688,21.9531 Q342.9656,21.7656 342.8563,21.25 Q342.8094,20.8906 342.6219,20.7031 Q342.2938,20.3281 341.6844,20.1094 Q341.075,19.8906 340.45,19.8906 Q339.6844,19.8906 339.0516,20.2188 Q338.4188,20.5469 337.9266,21.2969 Q337.4344,22.0469 337.4344,23.0781 L337.4344,24.1719 Q337.4344,25.4063 338.325,26.2266 Q339.2156,27.0469 340.8094,27.0469 Q341.7469,27.0469 342.4031,26.7969 Q342.7938,26.6406 343.2156,26.2031 Q343.4813,25.9375 343.6297,25.8594 Q343.7781,25.7813 343.9813,25.7813 Q344.3094,25.7813 344.5672,26.0391 Q344.825,26.2969 344.825,26.6406 Q344.825,26.9844 344.4813,27.3906 Q343.9813,27.9688 343.1844,28.2969 Q342.1063,28.75 340.8094,28.75 Q339.2938,28.75 338.0906,28.125 Q337.1063,27.625 336.4188,26.5547 Q335.7313,25.4844 335.7313,24.2031 L335.7313,23.0469 Q335.7313,21.7188 336.3484,20.5703 Q336.9656,19.4219 338.0594,18.8047 Q339.1531,18.1875 340.3875,18.1875 Q341.1219,18.1875 341.7703,18.3516 Q342.4188,18.5156 342.9656,18.875 Z " fill="#000000"/><text fill="#000000" font-family="sans-serif" font-size="12" lengthAdjust="spacing" textLength="99" x="358.8" y="27.9102">SoundZoneServer</text><line style="stroke:#A80036;stroke-width:1.5;" x1="305.5" x2="480.5" y1="39" y2="39"/><ellipse cx="315.5" cy="50" rx="3" ry="3" style="stroke:#038048;stroke-width:1.0;fill:none;"/><text fill="#000000" font-family="sans-serif" font-size="11" lengthAdjust="spacing" textLength="38" x="324.5" y="54.4189">_server</text><line style="stroke:#A80036;stroke-width:1.5;" x1="305.5" x2="480.5" y1="60.8359" y2="60.8359"/><ellipse cx="315.5" cy="71.8359" fill="#84BE84" rx="3" ry="3" style="stroke:#038048;stroke-width:1.0;"/><text fill="#000000" font-family="sans-serif" font-size="11" lengthAdjust="spacing" textLength="45" x="324.5" y="76.2549">__init__()</text><ellipse cx="315.5" cy="85.6719" fill="#84BE84" rx="3" ry="3" style="stroke:#038048;stroke-width:1.0;"/><text fill="#000000" font-family="sans-serif" font-size="11" lengthAdjust="spacing" textLength="151" x="324.5" y="90.0908">manual_add_server(hostname)</text><ellipse cx="315.5" cy="99.5078" fill="#84BE84" rx="3" ry="3" style="stroke:#038048;stroke-width:1.0;"/><text fill="#000000" font-family="sans-serif" font-size="11" lengthAdjust="spacing" textLength="44" x="324.5" y="103.9268">recieve()</text><!--MD5=[20934f0f42dab29883fe29cb589f3eaa]
class DataTransport--><rect codeLine="45" fill="#FEFECE" filter="url(#f1ao0yk95yzd4k)" height="255.5391" id="DataTransport" style="stroke:#A80036;stroke-width:1.5;" width="442" x="7" y="170"/><ellipse cx="184.25" cy="186" fill="#ADD1B2" rx="11" ry="11" style="stroke:#A80036;stroke-width:1.0;"/><path d="M187.0156,181.875 Q187.1719,181.6563 187.3594,181.5469 Q187.5469,181.4375 187.7656,181.4375 Q188.1406,181.4375 188.375,181.6953 Q188.6094,181.9531 188.6094,182.5625 L188.6094,184.0156 Q188.6094,184.625 188.375,184.8906 Q188.1406,185.1563 187.7656,185.1563 Q187.4219,185.1563 187.2188,184.9531 Q187.0156,184.7656 186.9063,184.25 Q186.8594,183.8906 186.6719,183.7031 Q186.3438,183.3281 185.7344,183.1094 Q185.125,182.8906 184.5,182.8906 Q183.7344,182.8906 183.1016,183.2188 Q182.4688,183.5469 181.9766,184.2969 Q181.4844,185.0469 181.4844,186.0781 L181.4844,187.1719 Q181.4844,188.4063 182.375,189.2266 Q183.2656,190.0469 184.8594,190.0469 Q185.7969,190.0469 186.4531,189.7969 Q186.8438,189.6406 187.2656,189.2031 Q187.5313,188.9375 187.6797,188.8594 Q187.8281,188.7813 188.0313,188.7813 Q188.3594,188.7813 188.6172,189.0391 Q188.875,189.2969 188.875,189.6406 Q188.875,189.9844 188.5313,190.3906 Q188.0313,190.9688 187.2344,191.2969 Q186.1563,191.75 184.8594,191.75 Q183.3438,191.75 182.1406,191.125 Q181.1563,190.625 180.4688,189.5547 Q179.7813,188.4844 179.7813,187.2031 L179.7813,186.0469 Q179.7813,184.7188 180.3984,183.5703 Q181.0156,182.4219 182.1094,181.8047 Q183.2031,181.1875 184.4375,181.1875 Q185.1719,181.1875 185.8203,181.3516 Q186.4688,181.5156 187.0156,181.875 Z " fill="#000000"/><text fill="#000000" font-family="sans-serif" font-size="12" lengthAdjust="spacing" textLength="79" x="204.75" y="190.9102">DataTransport</text><line style="stroke:#A80036;stroke-width:1.5;" x1="8" x2="448" y1="202" y2="202"/><rect fill="none" height="6" style="stroke:#C82930;stroke-width:1.0;" width="6" x="15" y="210"/><text fill="#000000" font-family="sans-serif" font-size="11" lengthAdjust="spacing" textLength="35" x="27" y="217.4189">_ADDR</text><rect fill="none" height="6" style="stroke:#C82930;stroke-width:1.0;" width="6" x="15" y="223.8359"/><text fill="#000000" font-family="sans-serif" font-size="11" lengthAdjust="spacing" textLength="33" x="27" y="231.2549">_PORT</text><rect fill="none" height="6" style="stroke:#C82930;stroke-width:1.0;" width="6" x="15" y="237.6719"/><text fill="#000000" font-family="sans-serif" font-size="11" lengthAdjust="spacing" textLength="75" x="27" y="245.0908">_HEADER_SIZE</text><rect fill="none" height="6" style="stroke:#C82930;stroke-width:1.0;" width="6" x="15" y="251.5078"/><text fill="#000000" font-family="sans-serif" font-size="11" lengthAdjust="spacing" textLength="58" x="27" y="258.9268">_ENCODING</text><rect fill="none" height="6" style="stroke:#C82930;stroke-width:1.0;" width="6" x="15" y="265.3438"/><text fill="#000000" font-family="sans-serif" font-size="11" lengthAdjust="spacing" textLength="99" x="27" y="272.7627">_ADDRESS_FAMILY</text><rect fill="none" height="6" style="stroke:#C82930;stroke-width:1.0;" width="6" x="15" y="279.1797"/><text fill="#000000" font-family="sans-serif" font-size="11" lengthAdjust="spacing" textLength="67" x="27" y="286.5986">_SOCK_TYPE</text><rect fill="none" height="6" style="stroke:#C82930;stroke-width:1.0;" width="6" x="15" y="293.0156"/><text fill="#000000" font-family="sans-serif" font-size="11" lengthAdjust="spacing" textLength="12" x="27" y="300.4346">_s</text><rect fill="none" height="6" style="stroke:#C82930;stroke-width:1.0;" width="6" x="15" y="306.8516"/><text fill="#000000" font-family="sans-serif" font-size="11" lengthAdjust="spacing" textLength="55" x="27" y="314.2705">_port_open</text><rect fill="none" height="6" style="stroke:#C82930;stroke-width:1.0;" width="6" x="15" y="320.6875"/><text fill="#000000" font-family="sans-serif" font-size="11" lengthAdjust="spacing" textLength="57" x="27" y="328.1064">_connected</text><line style="stroke:#A80036;stroke-width:1.5;" x1="8" x2="448" y1="334.5234" y2="334.5234"/><rect fill="#F24D5C" height="6" style="stroke:#C82930;stroke-width:1.0;" width="6" x="15" y="342.5234"/><text fill="#000000" font-family="sans-serif" font-size="11" lengthAdjust="spacing" textLength="63" x="27" y="349.9424">_open_port()</text><rect fill="#F24D5C" height="6" style="stroke:#C82930;stroke-width:1.0;" width="6" x="15" y="356.3594"/><text fill="#000000" font-family="sans-serif" font-size="11" lengthAdjust="spacing" textLength="40" x="27" y="363.7783">_close()</text><rect fill="#F24D5C" height="6" style="stroke:#C82930;stroke-width:1.0;" width="6" x="15" y="370.1953"/><text fill="#000000" font-family="sans-serif" font-size="11" lengthAdjust="spacing" textLength="53" x="27" y="377.6143">_connect()</text><ellipse cx="18" cy="387.0313" fill="#84BE84" rx="3" ry="3" style="stroke:#038048;stroke-width:1.0;"/><text fill="#000000" font-family="sans-serif" font-size="11" lengthAdjust="spacing" textLength="416" x="27" y="391.4502">__init__(hostname, port, header_size, encoding, addr_family, socket_type, buffer_len)</text><ellipse cx="18" cy="400.8672" fill="#84BE84" rx="3" ry="3" style="stroke:#038048;stroke-width:1.0;"/><text fill="#000000" font-family="sans-serif" font-size="11" lengthAdjust="spacing" textLength="44" x="27" y="405.2861">receive()</text><ellipse cx="18" cy="414.7031" fill="#84BE84" rx="3" ry="3" style="stroke:#038048;stroke-width:1.0;"/><text fill="#000000" font-family="sans-serif" font-size="11" lengthAdjust="spacing" textLength="52" x="27" y="419.1221">send(msg)</text><!--MD5=[842183e12e2477ebffe455f611ec3d1f]
link SoundZoneServer to DataTransport--><path codeLine="20" d="M357.81,110.16 C347.62,124.82 335.97,141.58 323.94,158.91 " fill="none" id="SoundZoneServer-to-DataTransport" style="stroke:#A80036;stroke-width:1.0;"/><polygon fill="#A80036" points="316.4,169.75,323.1068,167.1007,323.2408,159.8908,316.534,162.5401,316.4,169.75" style="stroke:#A80036;stroke-width:1.0;"/><!--MD5=[6ca04d21279430d5d6da581e1d36d124]
link SoundZoneServer to SZPApl--><path codeLine="23" d="M428.41,110.16 C449.54,140.4 476.9,179.54 501.11,214.17 " fill="none" id="SoundZoneServer-to-SZPApl" style="stroke:#A80036;stroke-width:1.0;"/><polygon fill="#A80036" points="508.85,225.25,508.6875,218.0407,501.9702,215.418,502.1328,222.6272,508.85,225.25" style="stroke:#A80036;stroke-width:1.0;"/><!--MD5=[8e2eb3db542567961220f68dca7bf384]
@startuml class_diagram

SoundZoneServer - -* DataTransport

package "SZP" {
    SoundZoneServer - -* SZPApl
}


class SoundZoneServer {
    + _server

    + __init__()
    + manual_add_server(hostname)
    + recieve()
}

class SZPApl {
    + __init__()
    + add_command()
    + encode()
    + decode( buffer )

    - _call_command_encode()
    - _call_command_decode()
}

class DataTransport {
    - _ADDR
    - _PORT
    - _HEADER_SIZE
    - _ENCODING
    - _ADDRESS_FAMILY
    - _SOCK_TYPE
    - _s
    - _port_open
    - _connected

    - _open_port()
    - _close()
    - _connect()
    + __init__(hostname, port, header_size, encoding, addr_family, socket_type, buffer_len)
    + receive()
    + send(msg)

}

@enduml

PlantUML version 1.2021.10(Mon Aug 30 15:43:48 CEST 2021)
(GPL source distribution)
Java Runtime: Java(TM) SE Runtime Environment
JVM: Java HotSpot(TM) 64-Bit Server VM
Default Encoding: Cp1252
Language: en
Country: US
--></g></svg>