<?xml version="1.0" encoding="UTF-8" standalone="no"?><svg xmlns="http://www.w3.org/2000/svg" xmlns:xlink="http://www.w3.org/1999/xlink" contentScriptType="application/ecmascript" contentStyleType="text/css" height="585px" preserveAspectRatio="none" style="width:660px;height:585px;background:#FFFFFF;" version="1.1" viewBox="0 0 660 585" width="660px" zoomAndPan="magnify"><defs><filter height="300%" id="fncr6n8el2bk" width="300%" x="-1" y="-1"><feGaussianBlur result="blurOut" stdDeviation="2.0"/><feColorMatrix in="blurOut" result="blurOut2" type="matrix" values="0 0 0 0 0 0 0 0 0 0 0 0 0 0 0 0 0 0 .4 0"/><feOffset dx="4.0" dy="4.0" in="blurOut2" result="blurOut3"/><feBlend in="SourceGraphic" in2="blurOut3" mode="normal"/></filter></defs><g><!--MD5=[6bcd4e2e4339cb18f29cde61031d3191]
cluster SZP--><polygon fill="#FFFFFF" filter="url(#fncr6n8el2bk)" points="461.5,162.5,493.5,162.5,500.5,186.1094,643.5,186.1094,643.5,578,461.5,578,461.5,162.5" style="stroke:#000000;stroke-width:1.5;"/><line style="stroke:#000000;stroke-width:1.5;" x1="461.5" x2="500.5" y1="186.1094" y2="186.1094"/><text fill="#000000" font-family="sans-serif" font-size="14" font-weight="bold" lengthAdjust="spacing" textLength="26" x="465.5" y="179.0332">SZP</text><!--MD5=[dcd42044cf7033d830ddcb044d88c8c8]
class SZPApl--><rect codeLine="28" fill="#FEFECE" filter="url(#fncr6n8el2bk)" height="144.8516" id="SZPApl" style="stroke:#A80036;stroke-width:1.5;" width="150" x="477.5" y="198.5"/><ellipse cx="528.25" cy="214.5" fill="#ADD1B2" rx="11" ry="11" style="stroke:#A80036;stroke-width:1.0;"/><path d="M531.0156,210.375 Q531.1719,210.1563 531.3594,210.0469 Q531.5469,209.9375 531.7656,209.9375 Q532.1406,209.9375 532.375,210.1953 Q532.6094,210.4531 532.6094,211.0625 L532.6094,212.5156 Q532.6094,213.125 532.375,213.3906 Q532.1406,213.6563 531.7656,213.6563 Q531.4219,213.6563 531.2188,213.4531 Q531.0156,213.2656 530.9063,212.75 Q530.8594,212.3906 530.6719,212.2031 Q530.3438,211.8281 529.7344,211.6094 Q529.125,211.3906 528.5,211.3906 Q527.7344,211.3906 527.1016,211.7188 Q526.4688,212.0469 525.9766,212.7969 Q525.4844,213.5469 525.4844,214.5781 L525.4844,215.6719 Q525.4844,216.9063 526.375,217.7266 Q527.2656,218.5469 528.8594,218.5469 Q529.7969,218.5469 530.4531,218.2969 Q530.8438,218.1406 531.2656,217.7031 Q531.5313,217.4375 531.6797,217.3594 Q531.8281,217.2813 532.0313,217.2813 Q532.3594,217.2813 532.6172,217.5391 Q532.875,217.7969 532.875,218.1406 Q532.875,218.4844 532.5313,218.8906 Q532.0313,219.4688 531.2344,219.7969 Q530.1563,220.25 528.8594,220.25 Q527.3438,220.25 526.1406,219.625 Q525.1563,219.125 524.4688,218.0547 Q523.7813,216.9844 523.7813,215.7031 L523.7813,214.5469 Q523.7813,213.2188 524.3984,212.0703 Q525.0156,210.9219 526.1094,210.3047 Q527.2031,209.6875 528.4375,209.6875 Q529.1719,209.6875 529.8203,209.8516 Q530.4688,210.0156 531.0156,210.375 Z " fill="#000000"/><text fill="#000000" font-family="sans-serif" font-size="12" lengthAdjust="spacing" textLength="40" x="548.75" y="219.4102">SZPApl</text><line style="stroke:#A80036;stroke-width:1.5;" x1="478.5" x2="626.5" y1="230.5" y2="230.5"/><line style="stroke:#A80036;stroke-width:1.5;" x1="478.5" x2="626.5" y1="238.5" y2="238.5"/><ellipse cx="488.5" cy="249.5" fill="#84BE84" rx="3" ry="3" style="stroke:#038048;stroke-width:1.0;"/><text fill="#000000" font-family="sans-serif" font-size="11" lengthAdjust="spacing" textLength="45" x="497.5" y="253.9189">__init__()</text><ellipse cx="488.5" cy="263.3359" fill="#84BE84" rx="3" ry="3" style="stroke:#038048;stroke-width:1.0;"/><text fill="#000000" font-family="sans-serif" font-size="11" lengthAdjust="spacing" textLength="78" x="497.5" y="267.7549">add_command()</text><ellipse cx="488.5" cy="277.1719" fill="#84BE84" rx="3" ry="3" style="stroke:#038048;stroke-width:1.0;"/><text fill="#000000" font-family="sans-serif" font-size="11" lengthAdjust="spacing" textLength="44" x="497.5" y="281.5908">encode()</text><ellipse cx="488.5" cy="291.0078" fill="#84BE84" rx="3" ry="3" style="stroke:#038048;stroke-width:1.0;"/><text fill="#000000" font-family="sans-serif" font-size="11" lengthAdjust="spacing" textLength="80" x="497.5" y="295.4268">decode( buffer )</text><text fill="#000000" font-family="sans-serif" font-size="11" lengthAdjust="spacing" textLength="0" x="500.5" y="309.2627"/><rect fill="#F24D5C" height="6" style="stroke:#C82930;stroke-width:1.0;" width="6" x="485.5" y="315.6797"/><text fill="#000000" font-family="sans-serif" font-size="11" lengthAdjust="spacing" textLength="124" x="497.5" y="323.0986">_call_command_encode()</text><rect fill="#F24D5C" height="6" style="stroke:#C82930;stroke-width:1.0;" width="6" x="485.5" y="329.5156"/><text fill="#000000" font-family="sans-serif" font-size="11" lengthAdjust="spacing" textLength="124" x="497.5" y="336.9346">_call_command_decode()</text><!--MD5=[38225e8f95d5b4c548c94816985f583a]
class XF1_checkConn--><rect codeLine="38" fill="#FEFECE" filter="url(#fncr6n8el2bk)" height="103.3438" id="XF1_checkConn" style="stroke:#A80036;stroke-width:1.5;" width="122" x="491.5" y="459"/><ellipse cx="506.5" cy="475" fill="#ADD1B2" rx="11" ry="11" style="stroke:#A80036;stroke-width:1.0;"/><path d="M509.2656,470.875 Q509.4219,470.6563 509.6094,470.5469 Q509.7969,470.4375 510.0156,470.4375 Q510.3906,470.4375 510.625,470.6953 Q510.8594,470.9531 510.8594,471.5625 L510.8594,473.0156 Q510.8594,473.625 510.625,473.8906 Q510.3906,474.1563 510.0156,474.1563 Q509.6719,474.1563 509.4688,473.9531 Q509.2656,473.7656 509.1563,473.25 Q509.1094,472.8906 508.9219,472.7031 Q508.5938,472.3281 507.9844,472.1094 Q507.375,471.8906 506.75,471.8906 Q505.9844,471.8906 505.3516,472.2188 Q504.7188,472.5469 504.2266,473.2969 Q503.7344,474.0469 503.7344,475.0781 L503.7344,476.1719 Q503.7344,477.4063 504.625,478.2266 Q505.5156,479.0469 507.1094,479.0469 Q508.0469,479.0469 508.7031,478.7969 Q509.0938,478.6406 509.5156,478.2031 Q509.7813,477.9375 509.9297,477.8594 Q510.0781,477.7813 510.2813,477.7813 Q510.6094,477.7813 510.8672,478.0391 Q511.125,478.2969 511.125,478.6406 Q511.125,478.9844 510.7813,479.3906 Q510.2813,479.9688 509.4844,480.2969 Q508.4063,480.75 507.1094,480.75 Q505.5938,480.75 504.3906,480.125 Q503.4063,479.625 502.7188,478.5547 Q502.0313,477.4844 502.0313,476.2031 L502.0313,475.0469 Q502.0313,473.7188 502.6484,472.5703 Q503.2656,471.4219 504.3594,470.8047 Q505.4531,470.1875 506.6875,470.1875 Q507.4219,470.1875 508.0703,470.3516 Q508.7188,470.5156 509.2656,470.875 Z " fill="#000000"/><text fill="#000000" font-family="sans-serif" font-size="12" lengthAdjust="spacing" textLength="90" x="520.5" y="479.9102">XF1_checkConn</text><line style="stroke:#A80036;stroke-width:1.5;" x1="492.5" x2="612.5" y1="491" y2="491"/><rect fill="none" height="6" style="stroke:#C82930;stroke-width:1.0;" width="6" x="499.5" y="499"/><text fill="#000000" font-family="sans-serif" font-size="11" lengthAdjust="spacing" textLength="23" x="511.5" y="506.4189">_ack</text><line style="stroke:#A80036;stroke-width:1.5;" x1="492.5" x2="612.5" y1="512.8359" y2="512.8359"/><ellipse cx="502.5" cy="523.8359" fill="#84BE84" rx="3" ry="3" style="stroke:#038048;stroke-width:1.0;"/><text fill="#000000" font-family="sans-serif" font-size="11" lengthAdjust="spacing" textLength="45" x="511.5" y="528.2549">__init__()</text><ellipse cx="502.5" cy="537.6719" fill="#84BE84" rx="3" ry="3" style="stroke:#038048;stroke-width:1.0;"/><text fill="#000000" font-family="sans-serif" font-size="11" lengthAdjust="spacing" textLength="44" x="511.5" y="542.0908">encode()</text><ellipse cx="502.5" cy="551.5078" fill="#84BE84" rx="3" ry="3" style="stroke:#038048;stroke-width:1.0;"/><text fill="#000000" font-family="sans-serif" font-size="11" lengthAdjust="spacing" textLength="80" x="511.5" y="555.9268">decode( buffer )</text><!--MD5=[43b7fb4cb2ac97836faa47d94c540511]
class SoundZoneServer--><rect codeLine="23" fill="#FEFECE" filter="url(#fncr6n8el2bk)" height="75.6719" id="SoundZoneServer" style="stroke:#A80036;stroke-width:1.5;" width="131" x="323" y="7"/><ellipse cx="338" cy="23" fill="#ADD1B2" rx="11" ry="11" style="stroke:#A80036;stroke-width:1.0;"/><path d="M340.7656,18.875 Q340.9219,18.6563 341.1094,18.5469 Q341.2969,18.4375 341.5156,18.4375 Q341.8906,18.4375 342.125,18.6953 Q342.3594,18.9531 342.3594,19.5625 L342.3594,21.0156 Q342.3594,21.625 342.125,21.8906 Q341.8906,22.1563 341.5156,22.1563 Q341.1719,22.1563 340.9688,21.9531 Q340.7656,21.7656 340.6563,21.25 Q340.6094,20.8906 340.4219,20.7031 Q340.0938,20.3281 339.4844,20.1094 Q338.875,19.8906 338.25,19.8906 Q337.4844,19.8906 336.8516,20.2188 Q336.2188,20.5469 335.7266,21.2969 Q335.2344,22.0469 335.2344,23.0781 L335.2344,24.1719 Q335.2344,25.4063 336.125,26.2266 Q337.0156,27.0469 338.6094,27.0469 Q339.5469,27.0469 340.2031,26.7969 Q340.5938,26.6406 341.0156,26.2031 Q341.2813,25.9375 341.4297,25.8594 Q341.5781,25.7813 341.7813,25.7813 Q342.1094,25.7813 342.3672,26.0391 Q342.625,26.2969 342.625,26.6406 Q342.625,26.9844 342.2813,27.3906 Q341.7813,27.9688 340.9844,28.2969 Q339.9063,28.75 338.6094,28.75 Q337.0938,28.75 335.8906,28.125 Q334.9063,27.625 334.2188,26.5547 Q333.5313,25.4844 333.5313,24.2031 L333.5313,23.0469 Q333.5313,21.7188 334.1484,20.5703 Q334.7656,19.4219 335.8594,18.8047 Q336.9531,18.1875 338.1875,18.1875 Q338.9219,18.1875 339.5703,18.3516 Q340.2188,18.5156 340.7656,18.875 Z " fill="#000000"/><text fill="#000000" font-family="sans-serif" font-size="12" lengthAdjust="spacing" textLength="99" x="352" y="27.9102">SoundZoneServer</text><line style="stroke:#A80036;stroke-width:1.5;" x1="324" x2="453" y1="39" y2="39"/><line style="stroke:#A80036;stroke-width:1.5;" x1="324" x2="453" y1="47" y2="47"/><ellipse cx="334" cy="58" fill="#84BE84" rx="3" ry="3" style="stroke:#038048;stroke-width:1.0;"/><text fill="#000000" font-family="sans-serif" font-size="11" lengthAdjust="spacing" textLength="45" x="343" y="62.4189">__init__()</text><ellipse cx="334" cy="71.8359" fill="#84BE84" rx="3" ry="3" style="stroke:#038048;stroke-width:1.0;"/><text fill="#000000" font-family="sans-serif" font-size="11" lengthAdjust="spacing" textLength="32" x="343" y="76.2549">send()</text><!--MD5=[20934f0f42dab29883fe29cb589f3eaa]
class DataTransport--><rect codeLine="45" fill="#FEFECE" filter="url(#fncr6n8el2bk)" height="255.5391" id="DataTransport" style="stroke:#A80036;stroke-width:1.5;" width="435" x="7" y="143"/><ellipse cx="180.75" cy="159" fill="#ADD1B2" rx="11" ry="11" style="stroke:#A80036;stroke-width:1.0;"/><path d="M183.5156,154.875 Q183.6719,154.6563 183.8594,154.5469 Q184.0469,154.4375 184.2656,154.4375 Q184.6406,154.4375 184.875,154.6953 Q185.1094,154.9531 185.1094,155.5625 L185.1094,157.0156 Q185.1094,157.625 184.875,157.8906 Q184.6406,158.1563 184.2656,158.1563 Q183.9219,158.1563 183.7188,157.9531 Q183.5156,157.7656 183.4063,157.25 Q183.3594,156.8906 183.1719,156.7031 Q182.8438,156.3281 182.2344,156.1094 Q181.625,155.8906 181,155.8906 Q180.2344,155.8906 179.6016,156.2188 Q178.9688,156.5469 178.4766,157.2969 Q177.9844,158.0469 177.9844,159.0781 L177.9844,160.1719 Q177.9844,161.4063 178.875,162.2266 Q179.7656,163.0469 181.3594,163.0469 Q182.2969,163.0469 182.9531,162.7969 Q183.3438,162.6406 183.7656,162.2031 Q184.0313,161.9375 184.1797,161.8594 Q184.3281,161.7813 184.5313,161.7813 Q184.8594,161.7813 185.1172,162.0391 Q185.375,162.2969 185.375,162.6406 Q185.375,162.9844 185.0313,163.3906 Q184.5313,163.9688 183.7344,164.2969 Q182.6563,164.75 181.3594,164.75 Q179.8438,164.75 178.6406,164.125 Q177.6563,163.625 176.9688,162.5547 Q176.2813,161.4844 176.2813,160.2031 L176.2813,159.0469 Q176.2813,157.7188 176.8984,156.5703 Q177.5156,155.4219 178.6094,154.8047 Q179.7031,154.1875 180.9375,154.1875 Q181.6719,154.1875 182.3203,154.3516 Q182.9688,154.5156 183.5156,154.875 Z " fill="#000000"/><text fill="#000000" font-family="sans-serif" font-size="12" lengthAdjust="spacing" textLength="79" x="201.25" y="163.9102">DataTransport</text><line style="stroke:#A80036;stroke-width:1.5;" x1="8" x2="441" y1="175" y2="175"/><rect fill="none" height="6" style="stroke:#C82930;stroke-width:1.0;" width="6" x="15" y="183"/><text fill="#000000" font-family="sans-serif" font-size="11" lengthAdjust="spacing" textLength="35" x="27" y="190.4189">_ADDR</text><rect fill="none" height="6" style="stroke:#C82930;stroke-width:1.0;" width="6" x="15" y="196.8359"/><text fill="#000000" font-family="sans-serif" font-size="11" lengthAdjust="spacing" textLength="33" x="27" y="204.2549">_PORT</text><rect fill="none" height="6" style="stroke:#C82930;stroke-width:1.0;" width="6" x="15" y="210.6719"/><text fill="#000000" font-family="sans-serif" font-size="11" lengthAdjust="spacing" textLength="75" x="27" y="218.0908">_HEADER_SIZE</text><rect fill="none" height="6" style="stroke:#C82930;stroke-width:1.0;" width="6" x="15" y="224.5078"/><text fill="#000000" font-family="sans-serif" font-size="11" lengthAdjust="spacing" textLength="58" x="27" y="231.9268">_ENCODING</text><rect fill="none" height="6" style="stroke:#C82930;stroke-width:1.0;" width="6" x="15" y="238.3438"/><text fill="#000000" font-family="sans-serif" font-size="11" lengthAdjust="spacing" textLength="99" x="27" y="245.7627">_ADDRESS_FAMILY</text><rect fill="none" height="6" style="stroke:#C82930;stroke-width:1.0;" width="6" x="15" y="252.1797"/><text fill="#000000" font-family="sans-serif" font-size="11" lengthAdjust="spacing" textLength="67" x="27" y="259.5986">_SOCK_TYPE</text><rect fill="none" height="6" style="stroke:#C82930;stroke-width:1.0;" width="6" x="15" y="266.0156"/><text fill="#000000" font-family="sans-serif" font-size="11" lengthAdjust="spacing" textLength="12" x="27" y="273.4346">_s</text><rect fill="none" height="6" style="stroke:#C82930;stroke-width:1.0;" width="6" x="15" y="279.8516"/><text fill="#000000" font-family="sans-serif" font-size="11" lengthAdjust="spacing" textLength="55" x="27" y="287.2705">_port_open</text><rect fill="none" height="6" style="stroke:#C82930;stroke-width:1.0;" width="6" x="15" y="293.6875"/><text fill="#000000" font-family="sans-serif" font-size="11" lengthAdjust="spacing" textLength="57" x="27" y="301.1064">_connected</text><line style="stroke:#A80036;stroke-width:1.5;" x1="8" x2="441" y1="307.5234" y2="307.5234"/><rect fill="#F24D5C" height="6" style="stroke:#C82930;stroke-width:1.0;" width="6" x="15" y="315.5234"/><text fill="#000000" font-family="sans-serif" font-size="11" lengthAdjust="spacing" textLength="63" x="27" y="322.9424">_open_port()</text><rect fill="#F24D5C" height="6" style="stroke:#C82930;stroke-width:1.0;" width="6" x="15" y="329.3594"/><text fill="#000000" font-family="sans-serif" font-size="11" lengthAdjust="spacing" textLength="40" x="27" y="336.7783">_close()</text><rect fill="#F24D5C" height="6" style="stroke:#C82930;stroke-width:1.0;" width="6" x="15" y="343.1953"/><text fill="#000000" font-family="sans-serif" font-size="11" lengthAdjust="spacing" textLength="53" x="27" y="350.6143">_connect()</text><ellipse cx="18" cy="360.0313" fill="#84BE84" rx="3" ry="3" style="stroke:#038048;stroke-width:1.0;"/><text fill="#000000" font-family="sans-serif" font-size="11" lengthAdjust="spacing" textLength="409" x="27" y="364.4502">__init__(address, port, header_size, encoding, addr_family, socket_type, buffer_len)</text><ellipse cx="18" cy="373.8672" fill="#84BE84" rx="3" ry="3" style="stroke:#038048;stroke-width:1.0;"/><text fill="#000000" font-family="sans-serif" font-size="11" lengthAdjust="spacing" textLength="44" x="27" y="378.2861">receive()</text><ellipse cx="18" cy="387.7031" fill="#84BE84" rx="3" ry="3" style="stroke:#038048;stroke-width:1.0;"/><text fill="#000000" font-family="sans-serif" font-size="11" lengthAdjust="spacing" textLength="52" x="27" y="392.1221">send(msg)</text><!--MD5=[484930e71ac52343c439cf152d77de77]
link SZPApl to XF1_checkConn--><path codeLine="14" d="M552.5,343.58 C552.5,376.09 552.5,414.22 552.5,445.73 " fill="none" id="SZPApl-to-XF1_checkConn" style="stroke:#A80036;stroke-width:1.0;"/><polygon fill="#A80036" points="552.5,458.8,556.5,452.8,552.5,446.8,548.5,452.8,552.5,458.8" style="stroke:#A80036;stroke-width:1.0;"/><!--MD5=[6ca04d21279430d5d6da581e1d36d124]
link SoundZoneServer to SZPApl--><path codeLine="17" d="M415.77,83.24 C436.48,111.54 465.78,151.56 491.95,187.29 " fill="none" id="SoundZoneServer-to-SZPApl" style="stroke:#A80036;stroke-width:1.0;"/><polygon fill="#A80036" points="499.95,198.23,499.6291,191.026,492.8559,188.5515,493.1768,195.7554,499.95,198.23" style="stroke:#A80036;stroke-width:1.0;"/><!--MD5=[842183e12e2477ebffe455f611ec3d1f]
link SoundZoneServer to DataTransport--><path codeLine="20" d="M361.23,83.24 C350.96,97.28 338.57,114.2 325.49,132.06 " fill="none" id="SoundZoneServer-to-DataTransport" style="stroke:#A80036;stroke-width:1.0;"/><polygon fill="#A80036" points="317.73,142.66,324.501,140.1794,324.8155,132.9752,318.0445,135.4558,317.73,142.66" style="stroke:#A80036;stroke-width:1.0;"/><!--MD5=[fe64bcd1077752a8c45c059415da0fef]
@startuml class_diagram

package "SZP" {
    SZPApl - -* XF1_checkConn
}

SoundZoneServer - -* SZPApl


SoundZoneServer - -* DataTransport


class SoundZoneServer {
    + __init__()
    + send()
}

class SZPApl {
    + __init__()
    + add_command()
    + encode()
    + decode( buffer )

    - _call_command_encode()
    - _call_command_decode()
}

class XF1_checkConn {
    - _ack
    + __init__()
    + encode()
    + decode( buffer )
}

class DataTransport {
    - _ADDR
    - _PORT
    - _HEADER_SIZE
    - _ENCODING
    - _ADDRESS_FAMILY
    - _SOCK_TYPE
    - _s
    - _port_open
    - _connected

    - _open_port()
    - _close()
    - _connect()
    + __init__(address, port, header_size, encoding, addr_family, socket_type, buffer_len)
    + receive()
    + send(msg)

}

@enduml

PlantUML version 1.2021.10(Mon Aug 30 15:43:48 CEST 2021)
(GPL source distribution)
Java Runtime: Java(TM) SE Runtime Environment
JVM: Java HotSpot(TM) 64-Bit Server VM
Default Encoding: Cp1252
Language: en
Country: US
--></g></svg>