<?xml version="1.0" encoding="UTF-8" standalone="no"?><svg xmlns="http://www.w3.org/2000/svg" xmlns:xlink="http://www.w3.org/1999/xlink" contentScriptType="application/ecmascript" contentStyleType="text/css" height="191px" preserveAspectRatio="none" style="width:279px;height:191px;background:#FFFFFF;" version="1.1" viewBox="0 0 279 191" width="279px" zoomAndPan="magnify"><defs><filter height="300%" id="f1dqx68r2pveue" width="300%" x="-1" y="-1"><feGaussianBlur result="blurOut" stdDeviation="2.0"/><feColorMatrix in="blurOut" result="blurOut2" type="matrix" values="0 0 0 0 0 0 0 0 0 0 0 0 0 0 0 0 0 0 .4 0"/><feOffset dx="4.0" dy="4.0" in="blurOut2" result="blurOut3"/><feBlend in="SourceGraphic" in2="blurOut3" mode="normal"/></filter></defs><g><!--MD5=[b1435b213846e3ddcd1e6c1cd6b83b9a]
entity Server--><ellipse cx="27" cy="14" fill="#FEFECE" filter="url(#f1dqx68r2pveue)" rx="8" ry="8" style="stroke:#A80036;stroke-width:1.5;"/><path d="M27,22 L27,49 M14,30 L40,30 M27,49 L14,64 M27,49 L40,64 " fill="none" filter="url(#f1dqx68r2pveue)" style="stroke:#A80036;stroke-width:1.5;"/><text fill="#000000" font-family="sans-serif" font-size="14" lengthAdjust="spacing" textLength="42" x="6" y="84.0332">Server</text><!--MD5=[0ba5ee7700168656dc1b457c6fe9fdac]
entity Client--><ellipse cx="254" cy="14" fill="#FEFECE" filter="url(#f1dqx68r2pveue)" rx="8" ry="8" style="stroke:#A80036;stroke-width:1.5;"/><path d="M254,22 L254,49 M241,30 L267,30 M254,49 L241,64 M254,49 L267,64 " fill="none" filter="url(#f1dqx68r2pveue)" style="stroke:#A80036;stroke-width:1.5;"/><text fill="#000000" font-family="sans-serif" font-size="14" lengthAdjust="spacing" textLength="36" x="236" y="84.0332">Client</text><ellipse cx="139.9411" cy="163.9517" fill="#FEFECE" filter="url(#f1dqx68r2pveue)" rx="36.9411" ry="15.4517" style="stroke:#A80036;stroke-width:1.5;"/><text fill="#000000" font-family="sans-serif" font-size="14" lengthAdjust="spacing" textLength="36" x="121.9411" y="167.6802">Enroll</text><!--MD5=[0d911bd758e81821785682679d0cdd92]
link Server to Enroll--><path d="M48.25,68.82 C67.94,89.03 97.14,119 117.28,139.68 " fill="none" id="Server-to-Enroll" style="stroke:#A80036;stroke-width:1.0;"/><polygon fill="#A80036" points="126.63,149.27,125.3093,142.1809,118.2575,140.6734,119.5782,147.7625,126.63,149.27" style="stroke:#A80036;stroke-width:1.0;"/><!--MD5=[b462890e567c2c2de323e7707e477343]
link Client to Enroll--><path d="M235.94,65.38 C216.1,85.57 184.21,118.01 162.7,139.9 " fill="none" id="Client-to-Enroll" style="stroke:#A80036;stroke-width:1.0;"/><polygon fill="#A80036" points="153.35,149.42,160.4076,147.9399,161.7557,140.8559,154.6982,142.336,153.35,149.42" style="stroke:#A80036;stroke-width:1.0;"/><!--MD5=[28960622eb3c9b8b18b3724407c8edd1]
reverse link Server to Client--><path d="M53.52,46 C100.17,46 195.74,46 235.75,46 " fill="none" id="Server-backto-Client" style="stroke:#008000;stroke-width:1.0;stroke-dasharray:7.0,7.0;"/><polygon fill="#008000" points="48.36,46,57.36,50,53.36,46,57.36,42,48.36,46" style="stroke:#008000;stroke-width:1.0;"/><text fill="#008000" font-family="sans-serif" font-size="13" lengthAdjust="spacing" textLength="151" x="66.5" y="39.4951">Enroll me, i am client_id X</text><!--MD5=[491e6fa7d23ec59535047786a176b85c]
@startuml use_case_enroll

:Server:
:Client:

(Enroll)

Server - -* Enroll
Client - -* Enroll
Server <- Client #green;line.dashed;text:green : Enroll me, i am client_id X

@enduml

PlantUML version 1.2021.10(Mon Aug 30 15:43:48 CEST 2021)
(GPL source distribution)
Java Runtime: Java(TM) SE Runtime Environment
JVM: Java HotSpot(TM) 64-Bit Server VM
Default Encoding: Cp1252
Language: en
Country: US
--></g></svg>