<?xml version="1.0" encoding="UTF-8" standalone="no"?><svg xmlns="http://www.w3.org/2000/svg" xmlns:xlink="http://www.w3.org/1999/xlink" contentScriptType="application/ecmascript" contentStyleType="text/css" height="217px" preserveAspectRatio="none" style="width:256px;height:217px;background:#FFFFFF;" version="1.1" viewBox="0 0 256 217" width="256px" zoomAndPan="magnify"><defs><filter height="300%" id="f18042gphucdbo" width="300%" x="-1" y="-1"><feGaussianBlur result="blurOut" stdDeviation="2.0"/><feColorMatrix in="blurOut" result="blurOut2" type="matrix" values="0 0 0 0 0 0 0 0 0 0 0 0 0 0 0 0 0 0 .4 0"/><feOffset dx="4.0" dy="4.0" in="blurOut2" result="blurOut3"/><feBlend in="SourceGraphic" in2="blurOut3" mode="normal"/></filter></defs><g><line style="stroke:#A80036;stroke-width:1.0;stroke-dasharray:5.0,5.0;" x1="49" x2="49" y1="41.6094" y2="172.6641"/><line style="stroke:#A80036;stroke-width:1.0;stroke-dasharray:5.0,5.0;" x1="206.5" x2="206.5" y1="41.6094" y2="172.6641"/><rect fill="#FEFECE" filter="url(#f18042gphucdbo)" height="31.6094" style="stroke:#A80036;stroke-width:1.5;" width="54" x="20" y="5"/><text fill="#000000" font-family="sans-serif" font-size="14" lengthAdjust="spacing" textLength="40" x="27" y="26.5332">server</text><rect fill="#FEFECE" filter="url(#f18042gphucdbo)" height="31.6094" style="stroke:#A80036;stroke-width:1.5;" width="54" x="20" y="171.6641"/><text fill="#000000" font-family="sans-serif" font-size="14" lengthAdjust="spacing" textLength="40" x="27" y="193.1973">server</text><rect fill="#FEFECE" filter="url(#f18042gphucdbo)" height="31.6094" style="stroke:#A80036;stroke-width:1.5;" width="47" x="181.5" y="5"/><text fill="#000000" font-family="sans-serif" font-size="14" lengthAdjust="spacing" textLength="33" x="188.5" y="26.5332">client</text><rect fill="#FEFECE" filter="url(#f18042gphucdbo)" height="31.6094" style="stroke:#A80036;stroke-width:1.5;" width="47" x="181.5" y="171.6641"/><text fill="#000000" font-family="sans-serif" font-size="14" lengthAdjust="spacing" textLength="33" x="188.5" y="193.1973">client</text><polygon fill="#A80036" points="195,69.9609,205,73.9609,195,77.9609,199,73.9609" style="stroke:#A80036;stroke-width:1.0;"/><line style="stroke:#A80036;stroke-width:1.0;" x1="49" x2="201" y1="73.9609" y2="73.9609"/><text fill="#000000" font-family="sans-serif" font-size="13" lengthAdjust="spacing" textLength="90" x="56" y="69.1045">[ msg_len, cid ]</text><polygon fill="#A80036" points="60,110.3125,50,114.3125,60,118.3125,56,114.3125" style="stroke:#A80036;stroke-width:1.0;"/><line style="stroke:#A80036;stroke-width:1.0;" x1="54" x2="206" y1="114.3125" y2="114.3125"/><text fill="#000000" font-family="sans-serif" font-size="13" lengthAdjust="spacing" textLength="90" x="66" y="109.4561">[ msg_len, cid ]</text><path d="M212,86.9609 L212,112.9609 L247,112.9609 L247,96.9609 L237,86.9609 L212,86.9609 " fill="#FBFB77" filter="url(#f18042gphucdbo)" style="stroke:#A80036;stroke-width:1.0;"/><path d="M237,86.9609 L237,96.9609 L247,96.9609 L237,86.9609 " fill="#FBFB77" style="stroke:#A80036;stroke-width:1.0;"/><text fill="#000000" font-family="sans-serif" font-size="13" lengthAdjust="spacing" textLength="14" x="218" y="105.4561">T1</text><path d="M5,86.9609 L5,112.9609 L40,112.9609 L40,96.9609 L30,86.9609 L5,86.9609 " fill="#FBFB77" filter="url(#f18042gphucdbo)" style="stroke:#A80036;stroke-width:1.0;"/><path d="M30,86.9609 L30,96.9609 L40,96.9609 L30,86.9609 " fill="#FBFB77" style="stroke:#A80036;stroke-width:1.0;"/><text fill="#000000" font-family="sans-serif" font-size="13" lengthAdjust="spacing" textLength="14" x="11" y="105.4561">T2</text><polygon fill="#A80036" points="195,150.6641,205,154.6641,195,158.6641,199,154.6641" style="stroke:#A80036;stroke-width:1.0;"/><line style="stroke:#A80036;stroke-width:1.0;" x1="49" x2="201" y1="154.6641" y2="154.6641"/><text fill="#000000" font-family="sans-serif" font-size="13" lengthAdjust="spacing" textLength="134" x="56" y="149.8076">[ msg_len, cid, T2, T3 ]</text><path d="M5,127.3125 L5,153.3125 L40,153.3125 L40,137.3125 L30,127.3125 L5,127.3125 " fill="#FBFB77" filter="url(#f18042gphucdbo)" style="stroke:#A80036;stroke-width:1.0;"/><path d="M30,127.3125 L30,137.3125 L40,137.3125 L30,127.3125 " fill="#FBFB77" style="stroke:#A80036;stroke-width:1.0;"/><text fill="#000000" font-family="sans-serif" font-size="13" lengthAdjust="spacing" textLength="14" x="11" y="145.8076">T3</text><path d="M212,127.3125 L212,153.3125 L247,153.3125 L247,137.3125 L237,127.3125 L212,127.3125 " fill="#FBFB77" filter="url(#f18042gphucdbo)" style="stroke:#A80036;stroke-width:1.0;"/><path d="M237,127.3125 L237,137.3125 L247,137.3125 L237,127.3125 " fill="#FBFB77" style="stroke:#A80036;stroke-width:1.0;"/><text fill="#000000" font-family="sans-serif" font-size="13" lengthAdjust="spacing" textLength="14" x="218" y="145.8076">T4</text><!--MD5=[cc0c308c6864f1fadf6888eb6d5378e6]
@startuml B2_sync_time
server -> client: [ msg_len, cid ]
server <- client: [ msg_len, cid ]
note right: T1
note left: T2
server -> client: [ msg_len, cid, T2, T3 ]
note left: T3
note right: T4
@enduml

PlantUML version 1.2021.10(Mon Aug 30 15:43:48 CEST 2021)
(GPL source distribution)
Java Runtime: Java(TM) SE Runtime Environment
JVM: Java HotSpot(TM) 64-Bit Server VM
Default Encoding: Cp1252
Language: en
Country: US
--></g></svg>