<?xml version="1.0" encoding="UTF-8" standalone="no"?><svg xmlns="http://www.w3.org/2000/svg" xmlns:xlink="http://www.w3.org/1999/xlink" contentScriptType="application/ecmascript" contentStyleType="text/css" height="561px" preserveAspectRatio="none" style="width:678px;height:561px;background:#FFFFFF;" version="1.1" viewBox="0 0 678 561" width="678px" zoomAndPan="magnify"><defs><filter height="300%" id="f1ljnbjzhmz7vr" width="300%" x="-1" y="-1"><feGaussianBlur result="blurOut" stdDeviation="2.0"/><feColorMatrix in="blurOut" result="blurOut2" type="matrix" values="0 0 0 0 0 0 0 0 0 0 0 0 0 0 0 0 0 0 .4 0"/><feOffset dx="4.0" dy="4.0" in="blurOut2" result="blurOut3"/><feBlend in="SourceGraphic" in2="blurOut3" mode="normal"/></filter></defs><g><!--MD5=[dcd42044cf7033d830ddcb044d88c8c8]
class SZPApl--><rect codeLine="96" fill="#FEFECE" filter="url(#f1ljnbjzhmz7vr)" height="172.5234" id="SZPApl" style="stroke:#A80036;stroke-width:1.5;" width="177" x="252.5" y="7"/><ellipse cx="316.75" cy="23" fill="#ADD1B2" rx="11" ry="11" style="stroke:#A80036;stroke-width:1.0;"/><path d="M319.5156,18.875 Q319.6719,18.6563 319.8594,18.5469 Q320.0469,18.4375 320.2656,18.4375 Q320.6406,18.4375 320.875,18.6953 Q321.1094,18.9531 321.1094,19.5625 L321.1094,21.0156 Q321.1094,21.625 320.875,21.8906 Q320.6406,22.1563 320.2656,22.1563 Q319.9219,22.1563 319.7188,21.9531 Q319.5156,21.7656 319.4063,21.25 Q319.3594,20.8906 319.1719,20.7031 Q318.8438,20.3281 318.2344,20.1094 Q317.625,19.8906 317,19.8906 Q316.2344,19.8906 315.6016,20.2188 Q314.9688,20.5469 314.4766,21.2969 Q313.9844,22.0469 313.9844,23.0781 L313.9844,24.1719 Q313.9844,25.4063 314.875,26.2266 Q315.7656,27.0469 317.3594,27.0469 Q318.2969,27.0469 318.9531,26.7969 Q319.3438,26.6406 319.7656,26.2031 Q320.0313,25.9375 320.1797,25.8594 Q320.3281,25.7813 320.5313,25.7813 Q320.8594,25.7813 321.1172,26.0391 Q321.375,26.2969 321.375,26.6406 Q321.375,26.9844 321.0313,27.3906 Q320.5313,27.9688 319.7344,28.2969 Q318.6563,28.75 317.3594,28.75 Q315.8438,28.75 314.6406,28.125 Q313.6563,27.625 312.9688,26.5547 Q312.2813,25.4844 312.2813,24.2031 L312.2813,23.0469 Q312.2813,21.7188 312.8984,20.5703 Q313.5156,19.4219 314.6094,18.8047 Q315.7031,18.1875 316.9375,18.1875 Q317.6719,18.1875 318.3203,18.3516 Q318.9688,18.5156 319.5156,18.875 Z " fill="#000000"/><text fill="#000000" font-family="sans-serif" font-size="12" lengthAdjust="spacing" textLength="40" x="337.25" y="27.9102">SZPApl</text><line style="stroke:#A80036;stroke-width:1.5;" x1="253.5" x2="428.5" y1="39" y2="39"/><ellipse cx="263.5" cy="50" rx="3" ry="3" style="stroke:#038048;stroke-width:1.0;fill:none;"/><text fill="#000000" font-family="sans-serif" font-size="11" lengthAdjust="spacing" textLength="31" x="272.5" y="54.4189">cid: int</text><ellipse cx="263.5" cy="63.8359" rx="3" ry="3" style="stroke:#038048;stroke-width:1.0;fill:none;"/><text fill="#000000" font-family="sans-serif" font-size="11" lengthAdjust="spacing" textLength="65" x="272.5" y="68.2549">cid_name: str</text><ellipse cx="263.5" cy="77.6719" rx="3" ry="3" style="stroke:#038048;stroke-width:1.0;fill:none;"/><text fill="#000000" font-family="sans-serif" font-size="11" lengthAdjust="spacing" textLength="66" x="272.5" y="82.0908">command: obj</text><line style="stroke:#A80036;stroke-width:1.5;" x1="253.5" x2="428.5" y1="88.5078" y2="88.5078"/><ellipse cx="263.5" cy="99.5078" fill="#84BE84" rx="3" ry="3" style="stroke:#038048;stroke-width:1.0;"/><text fill="#000000" font-family="sans-serif" font-size="11" lengthAdjust="spacing" textLength="45" x="272.5" y="103.9268">__init__()</text><ellipse cx="263.5" cy="113.3438" fill="#84BE84" rx="3" ry="3" style="stroke:#038048;stroke-width:1.0;"/><text fill="#000000" font-family="sans-serif" font-size="11" lengthAdjust="spacing" textLength="78" x="272.5" y="117.7627">add_command()</text><ellipse cx="263.5" cy="127.1797" fill="#84BE84" rx="3" ry="3" style="stroke:#038048;stroke-width:1.0;"/><text fill="#000000" font-family="sans-serif" font-size="11" lengthAdjust="spacing" textLength="44" x="272.5" y="131.5986">encode()</text><ellipse cx="263.5" cy="141.0156" fill="#84BE84" rx="3" ry="3" style="stroke:#038048;stroke-width:1.0;"/><text fill="#000000" font-family="sans-serif" font-size="11" lengthAdjust="spacing" textLength="80" x="272.5" y="145.4346">decode( buffer )</text><text fill="#000000" font-family="sans-serif" font-size="11" lengthAdjust="spacing" textLength="0" x="275.5" y="159.2705"/><rect fill="#F24D5C" height="6" style="stroke:#C82930;stroke-width:1.0;" width="6" x="260.5" y="165.6875"/><text fill="#000000" font-family="sans-serif" font-size="11" lengthAdjust="spacing" textLength="151" x="272.5" y="173.1064">_add_command_to_command()</text><!--MD5=[d4acb71c44b98545d956c6d112e7010b]
class X01_send--><rect codeLine="109" fill="#FEFECE" filter="url(#f1ljnbjzhmz7vr)" height="103.3438" id="X01_send" style="stroke:#A80036;stroke-width:1.5;" width="162" x="7" y="240"/><ellipse cx="55.75" cy="256" fill="#ADD1B2" rx="11" ry="11" style="stroke:#A80036;stroke-width:1.0;"/><path d="M58.5156,251.875 Q58.6719,251.6563 58.8594,251.5469 Q59.0469,251.4375 59.2656,251.4375 Q59.6406,251.4375 59.875,251.6953 Q60.1094,251.9531 60.1094,252.5625 L60.1094,254.0156 Q60.1094,254.625 59.875,254.8906 Q59.6406,255.1563 59.2656,255.1563 Q58.9219,255.1563 58.7188,254.9531 Q58.5156,254.7656 58.4063,254.25 Q58.3594,253.8906 58.1719,253.7031 Q57.8438,253.3281 57.2344,253.1094 Q56.625,252.8906 56,252.8906 Q55.2344,252.8906 54.6016,253.2188 Q53.9688,253.5469 53.4766,254.2969 Q52.9844,255.0469 52.9844,256.0781 L52.9844,257.1719 Q52.9844,258.4063 53.875,259.2266 Q54.7656,260.0469 56.3594,260.0469 Q57.2969,260.0469 57.9531,259.7969 Q58.3438,259.6406 58.7656,259.2031 Q59.0313,258.9375 59.1797,258.8594 Q59.3281,258.7813 59.5313,258.7813 Q59.8594,258.7813 60.1172,259.0391 Q60.375,259.2969 60.375,259.6406 Q60.375,259.9844 60.0313,260.3906 Q59.5313,260.9688 58.7344,261.2969 Q57.6563,261.75 56.3594,261.75 Q54.8438,261.75 53.6406,261.125 Q52.6563,260.625 51.9688,259.5547 Q51.2813,258.4844 51.2813,257.2031 L51.2813,256.0469 Q51.2813,254.7188 51.8984,253.5703 Q52.5156,252.4219 53.6094,251.8047 Q54.7031,251.1875 55.9375,251.1875 Q56.6719,251.1875 57.3203,251.3516 Q57.9688,251.5156 58.5156,251.875 Z " fill="#000000"/><text fill="#000000" font-family="sans-serif" font-size="12" lengthAdjust="spacing" textLength="56" x="76.25" y="260.9102">X01_send</text><line style="stroke:#A80036;stroke-width:1.5;" x1="8" x2="168" y1="272" y2="272"/><ellipse cx="18" cy="283" rx="3" ry="3" style="stroke:#038048;stroke-width:1.0;fill:none;"/><text fill="#000000" font-family="sans-serif" font-size="11" lengthAdjust="spacing" textLength="47" x="27" y="287.4189">time: Time</text><ellipse cx="18" cy="296.8359" rx="3" ry="3" style="stroke:#038048;stroke-width:1.0;fill:none;"/><text fill="#000000" font-family="sans-serif" font-size="11" lengthAdjust="spacing" textLength="136" x="27" y="301.2549">payload: list of two byte ints</text><line style="stroke:#A80036;stroke-width:1.5;" x1="8" x2="168" y1="307.6719" y2="307.6719"/><ellipse cx="18" cy="318.6719" fill="#84BE84" rx="3" ry="3" style="stroke:#038048;stroke-width:1.0;"/><text fill="#000000" font-family="sans-serif" font-size="11" lengthAdjust="spacing" textLength="44" x="27" y="323.0908">encode()</text><ellipse cx="18" cy="332.5078" fill="#84BE84" rx="3" ry="3" style="stroke:#038048;stroke-width:1.0;"/><text fill="#000000" font-family="sans-serif" font-size="11" lengthAdjust="spacing" textLength="80" x="27" y="336.9268">decode( buffer )</text><!--MD5=[8faf6d6e31cdb8f40c3edfad104fc0bc]
class XA1_enroll--><rect codeLine="117" fill="#FEFECE" filter="url(#f1ljnbjzhmz7vr)" height="103.3438" id="XA1_enroll" style="stroke:#A80036;stroke-width:1.5;" width="106" x="204" y="240"/><ellipse cx="225.75" cy="256" fill="#ADD1B2" rx="11" ry="11" style="stroke:#A80036;stroke-width:1.0;"/><path d="M228.5156,251.875 Q228.6719,251.6563 228.8594,251.5469 Q229.0469,251.4375 229.2656,251.4375 Q229.6406,251.4375 229.875,251.6953 Q230.1094,251.9531 230.1094,252.5625 L230.1094,254.0156 Q230.1094,254.625 229.875,254.8906 Q229.6406,255.1563 229.2656,255.1563 Q228.9219,255.1563 228.7188,254.9531 Q228.5156,254.7656 228.4063,254.25 Q228.3594,253.8906 228.1719,253.7031 Q227.8438,253.3281 227.2344,253.1094 Q226.625,252.8906 226,252.8906 Q225.2344,252.8906 224.6016,253.2188 Q223.9688,253.5469 223.4766,254.2969 Q222.9844,255.0469 222.9844,256.0781 L222.9844,257.1719 Q222.9844,258.4063 223.875,259.2266 Q224.7656,260.0469 226.3594,260.0469 Q227.2969,260.0469 227.9531,259.7969 Q228.3438,259.6406 228.7656,259.2031 Q229.0313,258.9375 229.1797,258.8594 Q229.3281,258.7813 229.5313,258.7813 Q229.8594,258.7813 230.1172,259.0391 Q230.375,259.2969 230.375,259.6406 Q230.375,259.9844 230.0313,260.3906 Q229.5313,260.9688 228.7344,261.2969 Q227.6563,261.75 226.3594,261.75 Q224.8438,261.75 223.6406,261.125 Q222.6563,260.625 221.9688,259.5547 Q221.2813,258.4844 221.2813,257.2031 L221.2813,256.0469 Q221.2813,254.7188 221.8984,253.5703 Q222.5156,252.4219 223.6094,251.8047 Q224.7031,251.1875 225.9375,251.1875 Q226.6719,251.1875 227.3203,251.3516 Q227.9688,251.5156 228.5156,251.875 Z " fill="#000000"/><text fill="#000000" font-family="sans-serif" font-size="12" lengthAdjust="spacing" textLength="59" x="241.25" y="260.9102">XA1_enroll</text><line style="stroke:#A80036;stroke-width:1.5;" x1="205" x2="309" y1="272" y2="272"/><ellipse cx="215" cy="283" rx="3" ry="3" style="stroke:#038048;stroke-width:1.0;fill:none;"/><text fill="#000000" font-family="sans-serif" font-size="11" lengthAdjust="spacing" textLength="56" x="224" y="287.4189">client_id: int</text><ellipse cx="215" cy="296.8359" rx="3" ry="3" style="stroke:#038048;stroke-width:1.0;fill:none;"/><text fill="#000000" font-family="sans-serif" font-size="11" lengthAdjust="spacing" textLength="33" x="224" y="301.2549">res: int</text><line style="stroke:#A80036;stroke-width:1.5;" x1="205" x2="309" y1="307.6719" y2="307.6719"/><ellipse cx="215" cy="318.6719" fill="#84BE84" rx="3" ry="3" style="stroke:#038048;stroke-width:1.0;"/><text fill="#000000" font-family="sans-serif" font-size="11" lengthAdjust="spacing" textLength="44" x="224" y="323.0908">encode()</text><ellipse cx="215" cy="332.5078" fill="#84BE84" rx="3" ry="3" style="stroke:#038048;stroke-width:1.0;"/><text fill="#000000" font-family="sans-serif" font-size="11" lengthAdjust="spacing" textLength="80" x="224" y="336.9268">decode( buffer )</text><!--MD5=[f677df57565a6f3f009e9787a71084c7]
class XB3_set_sound_format--><rect codeLine="125" fill="#FEFECE" filter="url(#f1ljnbjzhmz7vr)" height="103.3438" id="XB3_set_sound_format" style="stroke:#A80036;stroke-width:1.5;" width="162" x="345" y="240"/><ellipse cx="360" cy="256" fill="#ADD1B2" rx="11" ry="11" style="stroke:#A80036;stroke-width:1.0;"/><path d="M362.7656,251.875 Q362.9219,251.6563 363.1094,251.5469 Q363.2969,251.4375 363.5156,251.4375 Q363.8906,251.4375 364.125,251.6953 Q364.3594,251.9531 364.3594,252.5625 L364.3594,254.0156 Q364.3594,254.625 364.125,254.8906 Q363.8906,255.1563 363.5156,255.1563 Q363.1719,255.1563 362.9688,254.9531 Q362.7656,254.7656 362.6563,254.25 Q362.6094,253.8906 362.4219,253.7031 Q362.0938,253.3281 361.4844,253.1094 Q360.875,252.8906 360.25,252.8906 Q359.4844,252.8906 358.8516,253.2188 Q358.2188,253.5469 357.7266,254.2969 Q357.2344,255.0469 357.2344,256.0781 L357.2344,257.1719 Q357.2344,258.4063 358.125,259.2266 Q359.0156,260.0469 360.6094,260.0469 Q361.5469,260.0469 362.2031,259.7969 Q362.5938,259.6406 363.0156,259.2031 Q363.2813,258.9375 363.4297,258.8594 Q363.5781,258.7813 363.7813,258.7813 Q364.1094,258.7813 364.3672,259.0391 Q364.625,259.2969 364.625,259.6406 Q364.625,259.9844 364.2813,260.3906 Q363.7813,260.9688 362.9844,261.2969 Q361.9063,261.75 360.6094,261.75 Q359.0938,261.75 357.8906,261.125 Q356.9063,260.625 356.2188,259.5547 Q355.5313,258.4844 355.5313,257.2031 L355.5313,256.0469 Q355.5313,254.7188 356.1484,253.5703 Q356.7656,252.4219 357.8594,251.8047 Q358.9531,251.1875 360.1875,251.1875 Q360.9219,251.1875 361.5703,251.3516 Q362.2188,251.5156 362.7656,251.875 Z " fill="#000000"/><text fill="#000000" font-family="sans-serif" font-size="12" lengthAdjust="spacing" textLength="130" x="374" y="260.9102">XB3_set_sound_format</text><line style="stroke:#A80036;stroke-width:1.5;" x1="346" x2="506" y1="272" y2="272"/><ellipse cx="356" cy="283" rx="3" ry="3" style="stroke:#038048;stroke-width:1.0;fill:none;"/><text fill="#000000" font-family="sans-serif" font-size="11" lengthAdjust="spacing" textLength="62" x="365" y="287.4189">format_id: int</text><ellipse cx="356" cy="296.8359" rx="3" ry="3" style="stroke:#038048;stroke-width:1.0;fill:none;"/><text fill="#000000" font-family="sans-serif" font-size="11" lengthAdjust="spacing" textLength="110" x="365" y="301.2549">raw_setup: RawSetup</text><line style="stroke:#A80036;stroke-width:1.5;" x1="346" x2="506" y1="307.6719" y2="307.6719"/><ellipse cx="356" cy="318.6719" fill="#84BE84" rx="3" ry="3" style="stroke:#038048;stroke-width:1.0;"/><text fill="#000000" font-family="sans-serif" font-size="11" lengthAdjust="spacing" textLength="44" x="365" y="323.0908">encode()</text><ellipse cx="356" cy="332.5078" fill="#84BE84" rx="3" ry="3" style="stroke:#038048;stroke-width:1.0;"/><text fill="#000000" font-family="sans-serif" font-size="11" lengthAdjust="spacing" textLength="80" x="365" y="336.9268">decode( buffer )</text><!--MD5=[38225e8f95d5b4c548c94816985f583a]
class XF1_checkConn--><rect codeLine="133" fill="#FEFECE" filter="url(#f1ljnbjzhmz7vr)" height="75.6719" id="XF1_checkConn" style="stroke:#A80036;stroke-width:1.5;" width="122" x="542" y="253.5"/><ellipse cx="557" cy="269.5" fill="#ADD1B2" rx="11" ry="11" style="stroke:#A80036;stroke-width:1.0;"/><path d="M559.7656,265.375 Q559.9219,265.1563 560.1094,265.0469 Q560.2969,264.9375 560.5156,264.9375 Q560.8906,264.9375 561.125,265.1953 Q561.3594,265.4531 561.3594,266.0625 L561.3594,267.5156 Q561.3594,268.125 561.125,268.3906 Q560.8906,268.6563 560.5156,268.6563 Q560.1719,268.6563 559.9688,268.4531 Q559.7656,268.2656 559.6563,267.75 Q559.6094,267.3906 559.4219,267.2031 Q559.0938,266.8281 558.4844,266.6094 Q557.875,266.3906 557.25,266.3906 Q556.4844,266.3906 555.8516,266.7188 Q555.2188,267.0469 554.7266,267.7969 Q554.2344,268.5469 554.2344,269.5781 L554.2344,270.6719 Q554.2344,271.9063 555.125,272.7266 Q556.0156,273.5469 557.6094,273.5469 Q558.5469,273.5469 559.2031,273.2969 Q559.5938,273.1406 560.0156,272.7031 Q560.2813,272.4375 560.4297,272.3594 Q560.5781,272.2813 560.7813,272.2813 Q561.1094,272.2813 561.3672,272.5391 Q561.625,272.7969 561.625,273.1406 Q561.625,273.4844 561.2813,273.8906 Q560.7813,274.4688 559.9844,274.7969 Q558.9063,275.25 557.6094,275.25 Q556.0938,275.25 554.8906,274.625 Q553.9063,274.125 553.2188,273.0547 Q552.5313,271.9844 552.5313,270.7031 L552.5313,269.5469 Q552.5313,268.2188 553.1484,267.0703 Q553.7656,265.9219 554.8594,265.3047 Q555.9531,264.6875 557.1875,264.6875 Q557.9219,264.6875 558.5703,264.8516 Q559.2188,265.0156 559.7656,265.375 Z " fill="#000000"/><text fill="#000000" font-family="sans-serif" font-size="12" lengthAdjust="spacing" textLength="90" x="571" y="274.4102">XF1_checkConn</text><line style="stroke:#A80036;stroke-width:1.5;" x1="543" x2="663" y1="285.5" y2="285.5"/><line style="stroke:#A80036;stroke-width:1.5;" x1="543" x2="663" y1="293.5" y2="293.5"/><ellipse cx="553" cy="304.5" fill="#84BE84" rx="3" ry="3" style="stroke:#038048;stroke-width:1.0;"/><text fill="#000000" font-family="sans-serif" font-size="11" lengthAdjust="spacing" textLength="44" x="562" y="308.9189">encode()</text><ellipse cx="553" cy="318.3359" fill="#84BE84" rx="3" ry="3" style="stroke:#038048;stroke-width:1.0;"/><text fill="#000000" font-family="sans-serif" font-size="11" lengthAdjust="spacing" textLength="80" x="562" y="322.7549">decode( buffer )</text><!--MD5=[2e42295458bb0bec21c9622a623eb29e]
class Time--><rect codeLine="140" fill="#FEFECE" filter="url(#f1ljnbjzhmz7vr)" height="144.8516" id="Time" style="stroke:#A80036;stroke-width:1.5;" width="106" x="35" y="403"/><ellipse cx="70.7" cy="419" fill="#ADD1B2" rx="11" ry="11" style="stroke:#A80036;stroke-width:1.0;"/><path d="M73.4656,414.875 Q73.6219,414.6563 73.8094,414.5469 Q73.9969,414.4375 74.2156,414.4375 Q74.5906,414.4375 74.825,414.6953 Q75.0594,414.9531 75.0594,415.5625 L75.0594,417.0156 Q75.0594,417.625 74.825,417.8906 Q74.5906,418.1563 74.2156,418.1563 Q73.8719,418.1563 73.6688,417.9531 Q73.4656,417.7656 73.3563,417.25 Q73.3094,416.8906 73.1219,416.7031 Q72.7938,416.3281 72.1844,416.1094 Q71.575,415.8906 70.95,415.8906 Q70.1844,415.8906 69.5516,416.2188 Q68.9188,416.5469 68.4266,417.2969 Q67.9344,418.0469 67.9344,419.0781 L67.9344,420.1719 Q67.9344,421.4063 68.825,422.2266 Q69.7156,423.0469 71.3094,423.0469 Q72.2469,423.0469 72.9031,422.7969 Q73.2938,422.6406 73.7156,422.2031 Q73.9813,421.9375 74.1297,421.8594 Q74.2781,421.7813 74.4813,421.7813 Q74.8094,421.7813 75.0672,422.0391 Q75.325,422.2969 75.325,422.6406 Q75.325,422.9844 74.9813,423.3906 Q74.4813,423.9688 73.6844,424.2969 Q72.6063,424.75 71.3094,424.75 Q69.7938,424.75 68.5906,424.125 Q67.6063,423.625 66.9188,422.5547 Q66.2313,421.4844 66.2313,420.2031 L66.2313,419.0469 Q66.2313,417.7188 66.8484,416.5703 Q67.4656,415.4219 68.5594,414.8047 Q69.6531,414.1875 70.8875,414.1875 Q71.6219,414.1875 72.2703,414.3516 Q72.9188,414.5156 73.4656,414.875 Z " fill="#000000"/><text fill="#000000" font-family="sans-serif" font-size="12" lengthAdjust="spacing" textLength="28" x="89.3" y="423.9102">Time</text><line style="stroke:#A80036;stroke-width:1.5;" x1="36" x2="140" y1="435" y2="435"/><ellipse cx="46" cy="446" rx="3" ry="3" style="stroke:#038048;stroke-width:1.0;fill:none;"/><text fill="#000000" font-family="sans-serif" font-size="11" lengthAdjust="spacing" textLength="22" x="55" y="450.4189">hour</text><ellipse cx="46" cy="459.8359" rx="3" ry="3" style="stroke:#038048;stroke-width:1.0;fill:none;"/><text fill="#000000" font-family="sans-serif" font-size="11" lengthAdjust="spacing" textLength="31" x="55" y="464.2549">minute</text><ellipse cx="46" cy="473.6719" rx="3" ry="3" style="stroke:#038048;stroke-width:1.0;fill:none;"/><text fill="#000000" font-family="sans-serif" font-size="11" lengthAdjust="spacing" textLength="36" x="55" y="478.0908">second</text><ellipse cx="46" cy="487.5078" rx="3" ry="3" style="stroke:#038048;stroke-width:1.0;fill:none;"/><text fill="#000000" font-family="sans-serif" font-size="11" lengthAdjust="spacing" textLength="56" x="55" y="491.9268">mili_second</text><ellipse cx="46" cy="501.3438" rx="3" ry="3" style="stroke:#038048;stroke-width:1.0;fill:none;"/><text fill="#000000" font-family="sans-serif" font-size="11" lengthAdjust="spacing" textLength="68" x="55" y="505.7627">micro_second</text><line style="stroke:#A80036;stroke-width:1.5;" x1="36" x2="140" y1="512.1797" y2="512.1797"/><ellipse cx="46" cy="523.1797" fill="#84BE84" rx="3" ry="3" style="stroke:#038048;stroke-width:1.0;"/><text fill="#000000" font-family="sans-serif" font-size="11" lengthAdjust="spacing" textLength="44" x="55" y="527.5986">encode()</text><ellipse cx="46" cy="537.0156" fill="#84BE84" rx="3" ry="3" style="stroke:#038048;stroke-width:1.0;"/><text fill="#000000" font-family="sans-serif" font-size="11" lengthAdjust="spacing" textLength="80" x="55" y="541.4346">decode( buffer )</text><!--MD5=[9e91a0188bfe49be27b680dfd9e58555]
class RawSetup--><rect codeLine="151" fill="#FEFECE" filter="url(#f1ljnbjzhmz7vr)" height="103.3438" id="RawSetup" style="stroke:#A80036;stroke-width:1.5;" width="130" x="361" y="424"/><ellipse cx="394.45" cy="440" fill="#ADD1B2" rx="11" ry="11" style="stroke:#A80036;stroke-width:1.0;"/><path d="M397.2156,435.875 Q397.3719,435.6563 397.5594,435.5469 Q397.7469,435.4375 397.9656,435.4375 Q398.3406,435.4375 398.575,435.6953 Q398.8094,435.9531 398.8094,436.5625 L398.8094,438.0156 Q398.8094,438.625 398.575,438.8906 Q398.3406,439.1563 397.9656,439.1563 Q397.6219,439.1563 397.4188,438.9531 Q397.2156,438.7656 397.1063,438.25 Q397.0594,437.8906 396.8719,437.7031 Q396.5438,437.3281 395.9344,437.1094 Q395.325,436.8906 394.7,436.8906 Q393.9344,436.8906 393.3016,437.2188 Q392.6688,437.5469 392.1766,438.2969 Q391.6844,439.0469 391.6844,440.0781 L391.6844,441.1719 Q391.6844,442.4063 392.575,443.2266 Q393.4656,444.0469 395.0594,444.0469 Q395.9969,444.0469 396.6531,443.7969 Q397.0438,443.6406 397.4656,443.2031 Q397.7313,442.9375 397.8797,442.8594 Q398.0281,442.7813 398.2313,442.7813 Q398.5594,442.7813 398.8172,443.0391 Q399.075,443.2969 399.075,443.6406 Q399.075,443.9844 398.7313,444.3906 Q398.2313,444.9688 397.4344,445.2969 Q396.3563,445.75 395.0594,445.75 Q393.5438,445.75 392.3406,445.125 Q391.3563,444.625 390.6688,443.5547 Q389.9813,442.4844 389.9813,441.2031 L389.9813,440.0469 Q389.9813,438.7188 390.5984,437.5703 Q391.2156,436.4219 392.3094,435.8047 Q393.4031,435.1875 394.6375,435.1875 Q395.3719,435.1875 396.0203,435.3516 Q396.6688,435.5156 397.2156,435.875 Z " fill="#000000"/><text fill="#000000" font-family="sans-serif" font-size="12" lengthAdjust="spacing" textLength="57" x="412.55" y="444.9102">RawSetup</text><line style="stroke:#A80036;stroke-width:1.5;" x1="362" x2="490" y1="456" y2="456"/><ellipse cx="372" cy="467" rx="3" ry="3" style="stroke:#038048;stroke-width:1.0;fill:none;"/><text fill="#000000" font-family="sans-serif" font-size="11" lengthAdjust="spacing" textLength="76" x="381" y="471.4189">sample_rate: int</text><ellipse cx="372" cy="480.8359" rx="3" ry="3" style="stroke:#038048;stroke-width:1.0;fill:none;"/><text fill="#000000" font-family="sans-serif" font-size="11" lengthAdjust="spacing" textLength="104" x="381" y="485.2549">sample_resolution: int</text><line style="stroke:#A80036;stroke-width:1.5;" x1="362" x2="490" y1="491.6719" y2="491.6719"/><ellipse cx="372" cy="502.6719" fill="#84BE84" rx="3" ry="3" style="stroke:#038048;stroke-width:1.0;"/><text fill="#000000" font-family="sans-serif" font-size="11" lengthAdjust="spacing" textLength="44" x="381" y="507.0908">encode()</text><ellipse cx="372" cy="516.5078" fill="#84BE84" rx="3" ry="3" style="stroke:#038048;stroke-width:1.0;"/><text fill="#000000" font-family="sans-serif" font-size="11" lengthAdjust="spacing" textLength="80" x="381" y="520.9268">decode( buffer )</text><!--MD5=[2ba364be5a065b17b535363dac3ec7c6]
link SZPApl to X01_send--><path codeLine="88" d="M252.16,163.33 C223.37,185.63 191.72,210.14 163.96,231.65 " fill="none" id="SZPApl-to-X01_send" style="stroke:#A80036;stroke-width:1.0;"/><polygon fill="#A80036" points="153.53,239.74,160.7229,239.2276,163.0164,232.391,155.8235,232.9034,153.53,239.74" style="stroke:#A80036;stroke-width:1.0;"/><!--MD5=[bdc364f3ae576aa0ef1aeab5496b8e1f]
link SZPApl to XA1_enroll--><path codeLine="89" d="M304.28,180.18 C297.45,196.12 290.43,212.49 283.96,227.59 " fill="none" id="SZPApl-to-XA1_enroll" style="stroke:#A80036;stroke-width:1.0;"/><polygon fill="#A80036" points="278.67,239.93,284.7073,235.9865,283.3891,228.8969,277.3518,232.8404,278.67,239.93" style="stroke:#A80036;stroke-width:1.0;"/><!--MD5=[2b90347c202d052a00e50821f0d9ba55]
link SZPApl to XB3_set_sound_format--><path codeLine="90" d="M378.16,180.18 C385.07,196.12 392.17,212.49 398.72,227.59 " fill="none" id="SZPApl-to-XB3_set_sound_format" style="stroke:#A80036;stroke-width:1.0;"/><polygon fill="#A80036" points="404.07,239.93,405.3534,232.834,399.2969,228.9201,398.0135,236.0161,404.07,239.93" style="stroke:#A80036;stroke-width:1.0;"/><!--MD5=[484930e71ac52343c439cf152d77de77]
link SZPApl to XF1_checkConn--><path codeLine="91" d="M429.7,160.86 C466.94,188.72 509.29,220.4 542.8,245.47 " fill="none" id="SZPApl-to-XF1_checkConn" style="stroke:#A80036;stroke-width:1.0;"/><polygon fill="#A80036" points="553.35,253.36,550.9395,246.5637,543.7389,246.1748,546.1494,252.9711,553.35,253.36" style="stroke:#A80036;stroke-width:1.0;"/><!--MD5=[24f404eb133135df44ad57d60bfb00c5]
link X01_send to Time--><path codeLine="93" d="M88,343.2 C88,357.66 88,373.82 88,389.73 " fill="none" id="X01_send-to-Time" style="stroke:#A80036;stroke-width:1.0;"/><polygon fill="#A80036" points="88,402.99,92,396.99,88,390.99,84,396.99,88,402.99" style="stroke:#A80036;stroke-width:1.0;"/><!--MD5=[ef8c8a99bc7ff4a89d5ae6371c60e238]
link XB3_set_sound_format to RawSetup--><path codeLine="94" d="M426,343.2 C426,364.11 426,388.59 426,410.7 " fill="none" id="XB3_set_sound_format-to-RawSetup" style="stroke:#A80036;stroke-width:1.0;"/><polygon fill="#A80036" points="426,423.76,430,417.76,426,411.76,422,417.76,426,423.76" style="stroke:#A80036;stroke-width:1.0;"/><!--MD5=[d4b14bc1e85d5658538d4b15f930742c]
@startuml class_diagram

SZPApl - -* X01_send
SZPApl - -* XA1_enroll
SZPApl - -* XB3_set_sound_format
SZPApl - -* XF1_checkConn

X01_send - -* Time
XB3_set_sound_format - -* RawSetup

class SZPApl {
    + cid: int
    + cid_name: str
    + command: obj

    + __init__()
    + add_command()
    + encode()
    + decode( buffer )

    - _add_command_to_command()
}

class X01_send {
    + time: Time
    + payload: list of two byte ints

    + encode()
    + decode( buffer )
}

class XA1_enroll {
    + client_id: int
    + res: int

    + encode()
    + decode( buffer )
}

class XB3_set_sound_format {
    + format_id: int
    + raw_setup: RawSetup

    + encode()
    + decode( buffer )
}

class XF1_checkConn {


    + encode()
    + decode( buffer )
}

class Time {
    + hour
    + minute
    + second
    + mili_second
    + micro_second

    + encode()
    + decode( buffer )
}

class RawSetup {
    + sample_rate: int
    + sample_resolution: int

    + encode()
    + decode( buffer )
}

@enduml

PlantUML version 1.2021.10(Mon Aug 30 15:43:48 CEST 2021)
(GPL source distribution)
Java Runtime: Java(TM) SE Runtime Environment
JVM: Java HotSpot(TM) 64-Bit Server VM
Default Encoding: Cp1252
Language: en
Country: US
--></g></svg>