<?xml version="1.0" encoding="UTF-8" standalone="no"?><svg xmlns="http://www.w3.org/2000/svg" xmlns:xlink="http://www.w3.org/1999/xlink" contentScriptType="application/ecmascript" contentStyleType="text/css" height="191px" preserveAspectRatio="none" style="width:363px;height:191px;background:#FFFFFF;" version="1.1" viewBox="0 0 363 191" width="363px" zoomAndPan="magnify"><defs><filter height="300%" id="ff9ajfnaxn6c5" width="300%" x="-1" y="-1"><feGaussianBlur result="blurOut" stdDeviation="2.0"/><feColorMatrix in="blurOut" result="blurOut2" type="matrix" values="0 0 0 0 0 0 0 0 0 0 0 0 0 0 0 0 0 0 .4 0"/><feOffset dx="4.0" dy="4.0" in="blurOut2" result="blurOut3"/><feBlend in="SourceGraphic" in2="blurOut3" mode="normal"/></filter></defs><g><!--MD5=[b1435b213846e3ddcd1e6c1cd6b83b9a]
entity Server--><ellipse cx="59.5" cy="14" fill="#FEFECE" filter="url(#ff9ajfnaxn6c5)" rx="8" ry="8" style="stroke:#A80036;stroke-width:1.5;"/><path d="M59.5,22 L59.5,49 M46.5,30 L72.5,30 M59.5,49 L46.5,64 M59.5,49 L72.5,64 " fill="none" filter="url(#ff9ajfnaxn6c5)" style="stroke:#A80036;stroke-width:1.5;"/><text fill="#000000" font-family="sans-serif" font-size="14" lengthAdjust="spacing" textLength="42" x="38.5" y="84.0332">Server</text><!--MD5=[7d8c7e2b29bed1e509695a91a6741b93]
entity Client_1--><ellipse cx="297.5" cy="14" fill="#FEFECE" filter="url(#ff9ajfnaxn6c5)" rx="8" ry="8" style="stroke:#A80036;stroke-width:1.5;"/><path d="M297.5,22 L297.5,49 M284.5,30 L310.5,30 M297.5,49 L284.5,64 M297.5,49 L310.5,64 " fill="none" filter="url(#ff9ajfnaxn6c5)" style="stroke:#A80036;stroke-width:1.5;"/><text fill="#000000" font-family="sans-serif" font-size="14" lengthAdjust="spacing" textLength="52" x="271.5" y="84.0332">Client_1</text><ellipse cx="59.5193" cy="164.0298" fill="#FEFECE" filter="url(#ff9ajfnaxn6c5)" rx="53.5193" ry="15.5298" style="stroke:#A80036;stroke-width:1.5;"/><text fill="#000000" font-family="sans-serif" font-size="14" lengthAdjust="spacing" textLength="59" x="27.0193" y="168.5464">Encoding</text><ellipse cx="297.258" cy="164.0364" fill="#FEFECE" filter="url(#ff9ajfnaxn6c5)" rx="54.258" ry="15.5364" style="stroke:#A80036;stroke-width:1.5;"/><text fill="#000000" font-family="sans-serif" font-size="14" lengthAdjust="spacing" textLength="60" x="264.258" y="168.553">Decoding</text><!--MD5=[e0cb60721482df2be1671c48de4064ea]
link Server to Encoding--><path d="M59.5,87.57 C59.5,103.18 59.5,120.66 59.5,134.85 " fill="none" id="Server-to-Encoding" style="stroke:#A80036;stroke-width:1.0;"/><polygon fill="#A80036" points="59.5,148.24,63.5,142.24,59.5,136.24,55.5,142.24,59.5,148.24" style="stroke:#A80036;stroke-width:1.0;"/><!--MD5=[62e16f3d71d686b8a1fd646eaddefd41]
link Client_1 to Decoding--><path d="M297.5,87.57 C297.5,103.18 297.5,120.66 297.5,134.85 " fill="none" id="Client_1-to-Decoding" style="stroke:#A80036;stroke-width:1.0;"/><polygon fill="#A80036" points="297.5,148.24,301.5,142.24,297.5,136.24,293.5,142.24,297.5,148.24" style="stroke:#A80036;stroke-width:1.0;"/><!--MD5=[f9d40022da16afc14f6c640dfe4b5fd0]
link Server to Client_1--><path d="M80.62,46 C122.66,46 216.99,46 266.23,46 " fill="none" id="Server-to-Client_1" style="stroke:#008000;stroke-width:1.0;stroke-dasharray:7.0,7.0;"/><polygon fill="#008000" points="271.43,46,262.43,42,266.43,46,262.43,50,271.43,46" style="stroke:#008000;stroke-width:1.0;"/><text fill="#008000" font-family="sans-serif" font-size="13" lengthAdjust="spacing" textLength="154" x="99" y="39.4951">Transmit the encoded data</text><!--MD5=[a68b913b5afd2185c85b063c404c5d58]
@startuml use_cases

:Server:
:Client_1:

(Encoding)
(Decoding)

Server - -* Encoding
Client_1 - -* Decoding
Server -> Client_1 #green;line.dashed;text:green : Transmit the encoded data

@enduml

PlantUML version 1.2021.10(Mon Aug 30 15:43:48 CEST 2021)
(GPL source distribution)
Java Runtime: Java(TM) SE Runtime Environment
JVM: Java HotSpot(TM) 64-Bit Server VM
Default Encoding: Cp1252
Language: en
Country: US
--></g></svg>