<?xml version="1.0" encoding="UTF-8" standalone="no"?><svg xmlns="http://www.w3.org/2000/svg" xmlns:xlink="http://www.w3.org/1999/xlink" contentScriptType="application/ecmascript" contentStyleType="text/css" height="191px" preserveAspectRatio="none" style="width:339px;height:191px;background:#FFFFFF;" version="1.1" viewBox="0 0 339 191" width="339px" zoomAndPan="magnify"><defs><filter height="300%" id="f1cmyvx7bt8icp" width="300%" x="-1" y="-1"><feGaussianBlur result="blurOut" stdDeviation="2.0"/><feColorMatrix in="blurOut" result="blurOut2" type="matrix" values="0 0 0 0 0 0 0 0 0 0 0 0 0 0 0 0 0 0 .4 0"/><feOffset dx="4.0" dy="4.0" in="blurOut2" result="blurOut3"/><feBlend in="SourceGraphic" in2="blurOut3" mode="normal"/></filter></defs><g><!--MD5=[b1435b213846e3ddcd1e6c1cd6b83b9a]
entity Server--><ellipse cx="51.5" cy="14" fill="#FEFECE" filter="url(#f1cmyvx7bt8icp)" rx="8" ry="8" style="stroke:#A80036;stroke-width:1.5;"/><path d="M51.5,22 L51.5,49 M38.5,30 L64.5,30 M51.5,49 L38.5,64 M51.5,49 L64.5,64 " fill="none" filter="url(#f1cmyvx7bt8icp)" style="stroke:#A80036;stroke-width:1.5;"/><text fill="#000000" font-family="sans-serif" font-size="14" lengthAdjust="spacing" textLength="42" x="30.5" y="84.0332">Server</text><!--MD5=[0ba5ee7700168656dc1b457c6fe9fdac]
entity Client--><ellipse cx="281.5" cy="14" fill="#FEFECE" filter="url(#f1cmyvx7bt8icp)" rx="8" ry="8" style="stroke:#A80036;stroke-width:1.5;"/><path d="M281.5,22 L281.5,49 M268.5,30 L294.5,30 M281.5,49 L268.5,64 M281.5,49 L294.5,64 " fill="none" filter="url(#f1cmyvx7bt8icp)" style="stroke:#A80036;stroke-width:1.5;"/><text fill="#000000" font-family="sans-serif" font-size="14" lengthAdjust="spacing" textLength="36" x="263.5" y="84.0332">Client</text><ellipse cx="51.4598" cy="163.9615" fill="#FEFECE" filter="url(#f1cmyvx7bt8icp)" rx="45.4598" ry="15.4615" style="stroke:#A80036;stroke-width:1.5;"/><text fill="#000000" font-family="sans-serif" font-size="14" lengthAdjust="spacing" textLength="48" x="26.2695" y="168.0394">Encode</text><ellipse cx="281.6812" cy="163.9655" fill="#FEFECE" filter="url(#f1cmyvx7bt8icp)" rx="46.1812" ry="15.4655" style="stroke:#A80036;stroke-width:1.5;"/><text fill="#000000" font-family="sans-serif" font-size="14" lengthAdjust="spacing" textLength="49" x="255.7471" y="168.108">Decode</text><!--MD5=[d37832649abe73c01818ce8677720027]
link Server to Encode--><path d="M51.5,87.57 C51.5,103.18 51.5,120.66 51.5,134.85 " fill="none" id="Server-to-Encode" style="stroke:#A80036;stroke-width:1.0;"/><polygon fill="#A80036" points="51.5,148.24,55.5,142.24,51.5,136.24,47.5,142.24,51.5,148.24" style="stroke:#A80036;stroke-width:1.0;"/><!--MD5=[7db836f0592316a52fb898a77c34ee06]
link Client to Decode--><path d="M281.5,87.57 C281.5,103.18 281.5,120.66 281.5,134.85 " fill="none" id="Client-to-Decode" style="stroke:#A80036;stroke-width:1.0;"/><polygon fill="#A80036" points="281.5,148.24,285.5,142.24,281.5,136.24,277.5,142.24,281.5,148.24" style="stroke:#A80036;stroke-width:1.0;"/><!--MD5=[12c569b13109240eee676e2f6cc7dd88]
link Server to Client--><path d="M72.73,46 C115.79,46 213.15,46 258.03,46 " fill="none" id="Server-to-Client" style="stroke:#008000;stroke-width:1.0;stroke-dasharray:7.0,7.0;"/><polygon fill="#008000" points="263.24,46,254.24,42,258.24,46,254.24,50,263.24,46" style="stroke:#008000;stroke-width:1.0;"/><text fill="#008000" font-family="sans-serif" font-size="13" lengthAdjust="spacing" textLength="154" x="91" y="39.4951">Transmit the encoded data</text><!--MD5=[7d9cbd60598d251b192bf19e5360f758]
@startuml use_cases_1

:Server:
:Client:

(Encode)
(Decode)

Server - -* Encode
Client - -* Decode
Server -> Client #green;line.dashed;text:green : Transmit the encoded data

@enduml

PlantUML version 1.2021.10(Mon Aug 30 15:43:48 CEST 2021)
(GPL source distribution)
Java Runtime: Java(TM) SE Runtime Environment
JVM: Java HotSpot(TM) 64-Bit Server VM
Default Encoding: Cp1252
Language: en
Country: US
--></g></svg>