<?xml version="1.0" encoding="UTF-8" standalone="no"?><svg xmlns="http://www.w3.org/2000/svg" xmlns:xlink="http://www.w3.org/1999/xlink" contentScriptType="application/ecmascript" contentStyleType="text/css" height="565px" preserveAspectRatio="none" style="width:890px;height:565px;background:#FFFFFF;" version="1.1" viewBox="0 0 890 565" width="890px" zoomAndPan="magnify"><defs><filter height="300%" id="fh8vw2375ajk2" width="300%" x="-1" y="-1"><feGaussianBlur result="blurOut" stdDeviation="2.0"/><feColorMatrix in="blurOut" result="blurOut2" type="matrix" values="0 0 0 0 0 0 0 0 0 0 0 0 0 0 0 0 0 0 .4 0"/><feOffset dx="4.0" dy="4.0" in="blurOut2" result="blurOut3"/><feBlend in="SourceGraphic" in2="blurOut3" mode="normal"/></filter></defs><g><!--MD5=[0f38d47a969d072f9948567dab64c60a]
cluster soundzone_client--><polygon fill="#FFFFFF" filter="url(#fh8vw2375ajk2)" points="409,6,540,6,547,29.6094,654,29.6094,654,106,409,106,409,6" style="stroke:#000000;stroke-width:1.5;"/><line style="stroke:#000000;stroke-width:1.5;" x1="409" x2="547" y1="29.6094" y2="29.6094"/><text fill="#000000" font-family="sans-serif" font-size="14" font-weight="bold" lengthAdjust="spacing" textLength="125" x="413" y="22.5332">soundzone_client</text><!--MD5=[c0030eacce3da9fc2464a91d6ad537bd]
cluster soundzone_server--><polygon fill="#FFFFFF" filter="url(#fh8vw2375ajk2)" points="236,6,375,6,382,29.6094,385,29.6094,385,106,236,106,236,6" style="stroke:#000000;stroke-width:1.5;"/><line style="stroke:#000000;stroke-width:1.5;" x1="236" x2="382" y1="29.6094" y2="29.6094"/><text fill="#000000" font-family="sans-serif" font-size="14" font-weight="bold" lengthAdjust="spacing" textLength="133" x="240" y="22.5332">soundzone_server</text><!--MD5=[6bcd4e2e4339cb18f29cde61031d3191]
cluster SZP--><polygon fill="#FFFFFF" filter="url(#fh8vw2375ajk2)" points="590,178,622,178,629,201.6094,873,201.6094,873,434,590,434,590,178" style="stroke:#000000;stroke-width:1.5;"/><line style="stroke:#000000;stroke-width:1.5;" x1="590" x2="629" y1="201.6094" y2="201.6094"/><text fill="#000000" font-family="sans-serif" font-size="14" font-weight="bold" lengthAdjust="spacing" textLength="26" x="594" y="194.5332">SZP</text><!--MD5=[3515607e15a279e3594e3ca07429e5dc]
cluster sound_zone_protocol--><polygon fill="#FFFFFF" filter="url(#fh8vw2375ajk2)" points="622,286,781,286,788,309.6094,841,309.6094,841,402,622,402,622,286" style="stroke:#000000;stroke-width:1.5;"/><line style="stroke:#000000;stroke-width:1.5;" x1="622" x2="788" y1="309.6094" y2="309.6094"/><text fill="#000000" font-family="sans-serif" font-size="14" font-weight="bold" lengthAdjust="spacing" textLength="153" x="626" y="302.5332">sound_zone_protocol</text><!--MD5=[46eb245c58a01c5a8fccd0fd398da143]
cluster szs_time_sync--><polygon fill="#FFFFFF" filter="url(#fh8vw2375ajk2)" points="16,178,123,178,130,201.6094,281,201.6094,281,394,16,394,16,178" style="stroke:#000000;stroke-width:1.5;"/><line style="stroke:#000000;stroke-width:1.5;" x1="16" x2="130" y1="201.6094" y2="201.6094"/><text fill="#000000" font-family="sans-serif" font-size="14" font-weight="bold" lengthAdjust="spacing" textLength="101" x="20" y="194.5332">szs_time_sync</text><!--MD5=[79a26e4ac8bd5100d7277bc5c79d8e58]
cluster DataTransport--><polygon fill="#FFFFFF" filter="url(#fh8vw2375ajk2)" points="305,294,410,294,417,317.6094,566,317.6094,566,558,305,558,305,294" style="stroke:#000000;stroke-width:1.5;"/><line style="stroke:#000000;stroke-width:1.5;" x1="305" x2="417" y1="317.6094" y2="317.6094"/><text fill="#000000" font-family="sans-serif" font-size="14" font-weight="bold" lengthAdjust="spacing" textLength="99" x="309" y="310.5332">DataTransport</text><!--MD5=[08e646b6e49514e876c736bf7ebe2eb0]
cluster Socket--><polygon fill="#FFFFFF" filter="url(#fh8vw2375ajk2)" points="181,458,235,458,242,481.6094,281,481.6094,281,558,181,558,181,458" style="stroke:#000000;stroke-width:1.5;"/><line style="stroke:#000000;stroke-width:1.5;" x1="181" x2="242" y1="481.6094" y2="481.6094"/><text fill="#000000" font-family="sans-serif" font-size="14" font-weight="bold" lengthAdjust="spacing" textLength="48" x="185" y="474.5332">Socket</text><!--MD5=[98d75d84b14fef00cd160a6152153064]
class SZS_client--><rect codeLine="44" fill="#FEFECE" filter="url(#fh8vw2375ajk2)" height="48" id="SZS_client" style="stroke:#A80036;stroke-width:1.5;" width="91" x="425.5" y="42"/><ellipse cx="440.5" cy="58" fill="#ADD1B2" rx="11" ry="11" style="stroke:#A80036;stroke-width:1.0;"/><path d="M443.2656,53.875 Q443.4219,53.6563 443.6094,53.5469 Q443.7969,53.4375 444.0156,53.4375 Q444.3906,53.4375 444.625,53.6953 Q444.8594,53.9531 444.8594,54.5625 L444.8594,56.0156 Q444.8594,56.625 444.625,56.8906 Q444.3906,57.1563 444.0156,57.1563 Q443.6719,57.1563 443.4688,56.9531 Q443.2656,56.7656 443.1563,56.25 Q443.1094,55.8906 442.9219,55.7031 Q442.5938,55.3281 441.9844,55.1094 Q441.375,54.8906 440.75,54.8906 Q439.9844,54.8906 439.3516,55.2188 Q438.7188,55.5469 438.2266,56.2969 Q437.7344,57.0469 437.7344,58.0781 L437.7344,59.1719 Q437.7344,60.4063 438.625,61.2266 Q439.5156,62.0469 441.1094,62.0469 Q442.0469,62.0469 442.7031,61.7969 Q443.0938,61.6406 443.5156,61.2031 Q443.7813,60.9375 443.9297,60.8594 Q444.0781,60.7813 444.2813,60.7813 Q444.6094,60.7813 444.8672,61.0391 Q445.125,61.2969 445.125,61.6406 Q445.125,61.9844 444.7813,62.3906 Q444.2813,62.9688 443.4844,63.2969 Q442.4063,63.75 441.1094,63.75 Q439.5938,63.75 438.3906,63.125 Q437.4063,62.625 436.7188,61.5547 Q436.0313,60.4844 436.0313,59.2031 L436.0313,58.0469 Q436.0313,56.7188 436.6484,55.5703 Q437.2656,54.4219 438.3594,53.8047 Q439.4531,53.1875 440.6875,53.1875 Q441.4219,53.1875 442.0703,53.3516 Q442.7188,53.5156 443.2656,53.875 Z " fill="#000000"/><text fill="#000000" font-family="sans-serif" font-size="12" lengthAdjust="spacing" textLength="59" x="454.5" y="62.9102">SZS_client</text><line style="stroke:#A80036;stroke-width:1.5;" x1="426.5" x2="515.5" y1="74" y2="74"/><line style="stroke:#A80036;stroke-width:1.5;" x1="426.5" x2="515.5" y1="82" y2="82"/><!--MD5=[11d09d670e40b3eb54dea3e6d0ca1e98]
class alsadriver--><rect codeLine="45" fill="#FEFECE" filter="url(#fh8vw2375ajk2)" height="48" id="alsadriver" style="stroke:#A80036;stroke-width:1.5;" width="86" x="552" y="42"/><ellipse cx="567" cy="58" fill="#ADD1B2" rx="11" ry="11" style="stroke:#A80036;stroke-width:1.0;"/><path d="M569.7656,53.875 Q569.9219,53.6563 570.1094,53.5469 Q570.2969,53.4375 570.5156,53.4375 Q570.8906,53.4375 571.125,53.6953 Q571.3594,53.9531 571.3594,54.5625 L571.3594,56.0156 Q571.3594,56.625 571.125,56.8906 Q570.8906,57.1563 570.5156,57.1563 Q570.1719,57.1563 569.9688,56.9531 Q569.7656,56.7656 569.6563,56.25 Q569.6094,55.8906 569.4219,55.7031 Q569.0938,55.3281 568.4844,55.1094 Q567.875,54.8906 567.25,54.8906 Q566.4844,54.8906 565.8516,55.2188 Q565.2188,55.5469 564.7266,56.2969 Q564.2344,57.0469 564.2344,58.0781 L564.2344,59.1719 Q564.2344,60.4063 565.125,61.2266 Q566.0156,62.0469 567.6094,62.0469 Q568.5469,62.0469 569.2031,61.7969 Q569.5938,61.6406 570.0156,61.2031 Q570.2813,60.9375 570.4297,60.8594 Q570.5781,60.7813 570.7813,60.7813 Q571.1094,60.7813 571.3672,61.0391 Q571.625,61.2969 571.625,61.6406 Q571.625,61.9844 571.2813,62.3906 Q570.7813,62.9688 569.9844,63.2969 Q568.9063,63.75 567.6094,63.75 Q566.0938,63.75 564.8906,63.125 Q563.9063,62.625 563.2188,61.5547 Q562.5313,60.4844 562.5313,59.2031 L562.5313,58.0469 Q562.5313,56.7188 563.1484,55.5703 Q563.7656,54.4219 564.8594,53.8047 Q565.9531,53.1875 567.1875,53.1875 Q567.9219,53.1875 568.5703,53.3516 Q569.2188,53.5156 569.7656,53.875 Z " fill="#000000"/><text fill="#000000" font-family="sans-serif" font-size="12" lengthAdjust="spacing" textLength="54" x="581" y="62.9102">alsadriver</text><line style="stroke:#A80036;stroke-width:1.5;" x1="553" x2="637" y1="74" y2="74"/><line style="stroke:#A80036;stroke-width:1.5;" x1="553" x2="637" y1="82" y2="82"/><!--MD5=[f1a8ba6ebfc908d8fd9e9fd35d31fb37]
class SZS_server--><rect codeLine="49" fill="#FEFECE" filter="url(#fh8vw2375ajk2)" height="48" id="SZS_server" style="stroke:#A80036;stroke-width:1.5;" width="96" x="253" y="42"/><ellipse cx="268" cy="58" fill="#ADD1B2" rx="11" ry="11" style="stroke:#A80036;stroke-width:1.0;"/><path d="M270.7656,53.875 Q270.9219,53.6563 271.1094,53.5469 Q271.2969,53.4375 271.5156,53.4375 Q271.8906,53.4375 272.125,53.6953 Q272.3594,53.9531 272.3594,54.5625 L272.3594,56.0156 Q272.3594,56.625 272.125,56.8906 Q271.8906,57.1563 271.5156,57.1563 Q271.1719,57.1563 270.9688,56.9531 Q270.7656,56.7656 270.6563,56.25 Q270.6094,55.8906 270.4219,55.7031 Q270.0938,55.3281 269.4844,55.1094 Q268.875,54.8906 268.25,54.8906 Q267.4844,54.8906 266.8516,55.2188 Q266.2188,55.5469 265.7266,56.2969 Q265.2344,57.0469 265.2344,58.0781 L265.2344,59.1719 Q265.2344,60.4063 266.125,61.2266 Q267.0156,62.0469 268.6094,62.0469 Q269.5469,62.0469 270.2031,61.7969 Q270.5938,61.6406 271.0156,61.2031 Q271.2813,60.9375 271.4297,60.8594 Q271.5781,60.7813 271.7813,60.7813 Q272.1094,60.7813 272.3672,61.0391 Q272.625,61.2969 272.625,61.6406 Q272.625,61.9844 272.2813,62.3906 Q271.7813,62.9688 270.9844,63.2969 Q269.9063,63.75 268.6094,63.75 Q267.0938,63.75 265.8906,63.125 Q264.9063,62.625 264.2188,61.5547 Q263.5313,60.4844 263.5313,59.2031 L263.5313,58.0469 Q263.5313,56.7188 264.1484,55.5703 Q264.7656,54.4219 265.8594,53.8047 Q266.9531,53.1875 268.1875,53.1875 Q268.9219,53.1875 269.5703,53.3516 Q270.2188,53.5156 270.7656,53.875 Z " fill="#000000"/><text fill="#000000" font-family="sans-serif" font-size="12" lengthAdjust="spacing" textLength="64" x="282" y="62.9102">SZS_server</text><line style="stroke:#A80036;stroke-width:1.5;" x1="254" x2="348" y1="74" y2="74"/><line style="stroke:#A80036;stroke-width:1.5;" x1="254" x2="348" y1="82" y2="82"/><!--MD5=[358141ac238f2a25e6d946b89ad047f2]
class SZP_master--><rect codeLine="101" fill="#FEFECE" filter="url(#fh8vw2375ajk2)" height="48" id="SZP_master" style="stroke:#A80036;stroke-width:1.5;" width="101" x="606.5" y="214"/><ellipse cx="621.5" cy="230" fill="#ADD1B2" rx="11" ry="11" style="stroke:#A80036;stroke-width:1.0;"/><path d="M624.2656,225.875 Q624.4219,225.6563 624.6094,225.5469 Q624.7969,225.4375 625.0156,225.4375 Q625.3906,225.4375 625.625,225.6953 Q625.8594,225.9531 625.8594,226.5625 L625.8594,228.0156 Q625.8594,228.625 625.625,228.8906 Q625.3906,229.1563 625.0156,229.1563 Q624.6719,229.1563 624.4688,228.9531 Q624.2656,228.7656 624.1563,228.25 Q624.1094,227.8906 623.9219,227.7031 Q623.5938,227.3281 622.9844,227.1094 Q622.375,226.8906 621.75,226.8906 Q620.9844,226.8906 620.3516,227.2188 Q619.7188,227.5469 619.2266,228.2969 Q618.7344,229.0469 618.7344,230.0781 L618.7344,231.1719 Q618.7344,232.4063 619.625,233.2266 Q620.5156,234.0469 622.1094,234.0469 Q623.0469,234.0469 623.7031,233.7969 Q624.0938,233.6406 624.5156,233.2031 Q624.7813,232.9375 624.9297,232.8594 Q625.0781,232.7813 625.2813,232.7813 Q625.6094,232.7813 625.8672,233.0391 Q626.125,233.2969 626.125,233.6406 Q626.125,233.9844 625.7813,234.3906 Q625.2813,234.9688 624.4844,235.2969 Q623.4063,235.75 622.1094,235.75 Q620.5938,235.75 619.3906,235.125 Q618.4063,234.625 617.7188,233.5547 Q617.0313,232.4844 617.0313,231.2031 L617.0313,230.0469 Q617.0313,228.7188 617.6484,227.5703 Q618.2656,226.4219 619.3594,225.8047 Q620.4531,225.1875 621.6875,225.1875 Q622.4219,225.1875 623.0703,225.3516 Q623.7188,225.5156 624.2656,225.875 Z " fill="#000000"/><text fill="#000000" font-family="sans-serif" font-size="12" lengthAdjust="spacing" textLength="69" x="635.5" y="234.9102">SZP_master</text><line style="stroke:#A80036;stroke-width:1.5;" x1="607.5" x2="706.5" y1="246" y2="246"/><line style="stroke:#A80036;stroke-width:1.5;" x1="607.5" x2="706.5" y1="254" y2="254"/><!--MD5=[f98b2bde8a9293bad7a4d96faca01189]
class SZP_slave--><rect codeLine="103" fill="#FEFECE" filter="url(#fh8vw2375ajk2)" height="48" id="SZP_slave" style="stroke:#A80036;stroke-width:1.5;" width="91" x="742.5" y="214"/><ellipse cx="757.5" cy="230" fill="#ADD1B2" rx="11" ry="11" style="stroke:#A80036;stroke-width:1.0;"/><path d="M760.2656,225.875 Q760.4219,225.6563 760.6094,225.5469 Q760.7969,225.4375 761.0156,225.4375 Q761.3906,225.4375 761.625,225.6953 Q761.8594,225.9531 761.8594,226.5625 L761.8594,228.0156 Q761.8594,228.625 761.625,228.8906 Q761.3906,229.1563 761.0156,229.1563 Q760.6719,229.1563 760.4688,228.9531 Q760.2656,228.7656 760.1563,228.25 Q760.1094,227.8906 759.9219,227.7031 Q759.5938,227.3281 758.9844,227.1094 Q758.375,226.8906 757.75,226.8906 Q756.9844,226.8906 756.3516,227.2188 Q755.7188,227.5469 755.2266,228.2969 Q754.7344,229.0469 754.7344,230.0781 L754.7344,231.1719 Q754.7344,232.4063 755.625,233.2266 Q756.5156,234.0469 758.1094,234.0469 Q759.0469,234.0469 759.7031,233.7969 Q760.0938,233.6406 760.5156,233.2031 Q760.7813,232.9375 760.9297,232.8594 Q761.0781,232.7813 761.2813,232.7813 Q761.6094,232.7813 761.8672,233.0391 Q762.125,233.2969 762.125,233.6406 Q762.125,233.9844 761.7813,234.3906 Q761.2813,234.9688 760.4844,235.2969 Q759.4063,235.75 758.1094,235.75 Q756.5938,235.75 755.3906,235.125 Q754.4063,234.625 753.7188,233.5547 Q753.0313,232.4844 753.0313,231.2031 L753.0313,230.0469 Q753.0313,228.7188 753.6484,227.5703 Q754.2656,226.4219 755.3594,225.8047 Q756.4531,225.1875 757.6875,225.1875 Q758.4219,225.1875 759.0703,225.3516 Q759.7188,225.5156 760.2656,225.875 Z " fill="#000000"/><text fill="#000000" font-family="sans-serif" font-size="12" lengthAdjust="spacing" textLength="59" x="771.5" y="234.9102">SZP_slave</text><line style="stroke:#A80036;stroke-width:1.5;" x1="743.5" x2="832.5" y1="246" y2="246"/><line style="stroke:#A80036;stroke-width:1.5;" x1="743.5" x2="832.5" y1="254" y2="254"/><!--MD5=[1abc3e6dc9fe2c8063ed4793c1552605]
class sound_zone_protocol--><rect codeLine="59" fill="#FEFECE" filter="url(#fh8vw2375ajk2)" height="48" id="sound_zone_protocol" style="stroke:#A80036;stroke-width:1.5;" width="151" x="665.5" y="330"/><ellipse cx="680.5" cy="346" fill="#ADD1B2" rx="11" ry="11" style="stroke:#A80036;stroke-width:1.0;"/><path d="M683.2656,341.875 Q683.4219,341.6563 683.6094,341.5469 Q683.7969,341.4375 684.0156,341.4375 Q684.3906,341.4375 684.625,341.6953 Q684.8594,341.9531 684.8594,342.5625 L684.8594,344.0156 Q684.8594,344.625 684.625,344.8906 Q684.3906,345.1563 684.0156,345.1563 Q683.6719,345.1563 683.4688,344.9531 Q683.2656,344.7656 683.1563,344.25 Q683.1094,343.8906 682.9219,343.7031 Q682.5938,343.3281 681.9844,343.1094 Q681.375,342.8906 680.75,342.8906 Q679.9844,342.8906 679.3516,343.2188 Q678.7188,343.5469 678.2266,344.2969 Q677.7344,345.0469 677.7344,346.0781 L677.7344,347.1719 Q677.7344,348.4063 678.625,349.2266 Q679.5156,350.0469 681.1094,350.0469 Q682.0469,350.0469 682.7031,349.7969 Q683.0938,349.6406 683.5156,349.2031 Q683.7813,348.9375 683.9297,348.8594 Q684.0781,348.7813 684.2813,348.7813 Q684.6094,348.7813 684.8672,349.0391 Q685.125,349.2969 685.125,349.6406 Q685.125,349.9844 684.7813,350.3906 Q684.2813,350.9688 683.4844,351.2969 Q682.4063,351.75 681.1094,351.75 Q679.5938,351.75 678.3906,351.125 Q677.4063,350.625 676.7188,349.5547 Q676.0313,348.4844 676.0313,347.2031 L676.0313,346.0469 Q676.0313,344.7188 676.6484,343.5703 Q677.2656,342.4219 678.3594,341.8047 Q679.4531,341.1875 680.6875,341.1875 Q681.4219,341.1875 682.0703,341.3516 Q682.7188,341.5156 683.2656,341.875 Z " fill="#000000"/><text fill="#000000" font-family="sans-serif" font-size="12" lengthAdjust="spacing" textLength="119" x="694.5" y="350.9102">sound_zone_protocol</text><line style="stroke:#A80036;stroke-width:1.5;" x1="666.5" x2="815.5" y1="362" y2="362"/><line style="stroke:#A80036;stroke-width:1.5;" x1="666.5" x2="815.5" y1="370" y2="370"/><!--MD5=[fe0413f8a59d1ce1aa90e9f36490b983]
class Sync_Slave--><rect codeLine="64" fill="#FEFECE" filter="url(#fh8vw2375ajk2)" height="48" id="Sync_Slave" style="stroke:#A80036;stroke-width:1.5;" width="95" x="169.5" y="214"/><ellipse cx="184.5" cy="230" fill="#ADD1B2" rx="11" ry="11" style="stroke:#A80036;stroke-width:1.0;"/><path d="M187.2656,225.875 Q187.4219,225.6563 187.6094,225.5469 Q187.7969,225.4375 188.0156,225.4375 Q188.3906,225.4375 188.625,225.6953 Q188.8594,225.9531 188.8594,226.5625 L188.8594,228.0156 Q188.8594,228.625 188.625,228.8906 Q188.3906,229.1563 188.0156,229.1563 Q187.6719,229.1563 187.4688,228.9531 Q187.2656,228.7656 187.1563,228.25 Q187.1094,227.8906 186.9219,227.7031 Q186.5938,227.3281 185.9844,227.1094 Q185.375,226.8906 184.75,226.8906 Q183.9844,226.8906 183.3516,227.2188 Q182.7188,227.5469 182.2266,228.2969 Q181.7344,229.0469 181.7344,230.0781 L181.7344,231.1719 Q181.7344,232.4063 182.625,233.2266 Q183.5156,234.0469 185.1094,234.0469 Q186.0469,234.0469 186.7031,233.7969 Q187.0938,233.6406 187.5156,233.2031 Q187.7813,232.9375 187.9297,232.8594 Q188.0781,232.7813 188.2813,232.7813 Q188.6094,232.7813 188.8672,233.0391 Q189.125,233.2969 189.125,233.6406 Q189.125,233.9844 188.7813,234.3906 Q188.2813,234.9688 187.4844,235.2969 Q186.4063,235.75 185.1094,235.75 Q183.5938,235.75 182.3906,235.125 Q181.4063,234.625 180.7188,233.5547 Q180.0313,232.4844 180.0313,231.2031 L180.0313,230.0469 Q180.0313,228.7188 180.6484,227.5703 Q181.2656,226.4219 182.3594,225.8047 Q183.4531,225.1875 184.6875,225.1875 Q185.4219,225.1875 186.0703,225.3516 Q186.7188,225.5156 187.2656,225.875 Z " fill="#000000"/><text fill="#000000" font-family="sans-serif" font-size="12" lengthAdjust="spacing" textLength="63" x="198.5" y="234.9102">Sync_Slave</text><line style="stroke:#A80036;stroke-width:1.5;" x1="170.5" x2="263.5" y1="246" y2="246"/><line style="stroke:#A80036;stroke-width:1.5;" x1="170.5" x2="263.5" y1="254" y2="254"/><!--MD5=[24d123cddd699fe20e6f85e7696493e4]
class Sync_Master--><rect codeLine="65" fill="#FEFECE" filter="url(#fh8vw2375ajk2)" height="48" id="Sync_Master" style="stroke:#A80036;stroke-width:1.5;" width="102" x="32" y="214"/><ellipse cx="47" cy="230" fill="#ADD1B2" rx="11" ry="11" style="stroke:#A80036;stroke-width:1.0;"/><path d="M49.7656,225.875 Q49.9219,225.6563 50.1094,225.5469 Q50.2969,225.4375 50.5156,225.4375 Q50.8906,225.4375 51.125,225.6953 Q51.3594,225.9531 51.3594,226.5625 L51.3594,228.0156 Q51.3594,228.625 51.125,228.8906 Q50.8906,229.1563 50.5156,229.1563 Q50.1719,229.1563 49.9688,228.9531 Q49.7656,228.7656 49.6563,228.25 Q49.6094,227.8906 49.4219,227.7031 Q49.0938,227.3281 48.4844,227.1094 Q47.875,226.8906 47.25,226.8906 Q46.4844,226.8906 45.8516,227.2188 Q45.2188,227.5469 44.7266,228.2969 Q44.2344,229.0469 44.2344,230.0781 L44.2344,231.1719 Q44.2344,232.4063 45.125,233.2266 Q46.0156,234.0469 47.6094,234.0469 Q48.5469,234.0469 49.2031,233.7969 Q49.5938,233.6406 50.0156,233.2031 Q50.2813,232.9375 50.4297,232.8594 Q50.5781,232.7813 50.7813,232.7813 Q51.1094,232.7813 51.3672,233.0391 Q51.625,233.2969 51.625,233.6406 Q51.625,233.9844 51.2813,234.3906 Q50.7813,234.9688 49.9844,235.2969 Q48.9063,235.75 47.6094,235.75 Q46.0938,235.75 44.8906,235.125 Q43.9063,234.625 43.2188,233.5547 Q42.5313,232.4844 42.5313,231.2031 L42.5313,230.0469 Q42.5313,228.7188 43.1484,227.5703 Q43.7656,226.4219 44.8594,225.8047 Q45.9531,225.1875 47.1875,225.1875 Q47.9219,225.1875 48.5703,225.3516 Q49.2188,225.5156 49.7656,225.875 Z " fill="#000000"/><text fill="#000000" font-family="sans-serif" font-size="12" lengthAdjust="spacing" textLength="70" x="61" y="234.9102">Sync_Master</text><line style="stroke:#A80036;stroke-width:1.5;" x1="33" x2="133" y1="246" y2="246"/><line style="stroke:#A80036;stroke-width:1.5;" x1="33" x2="133" y1="254" y2="254"/><!--MD5=[2285bc677c4c71f49da698e53a3fbe44]
class TimeKeeper--><rect codeLine="66" fill="#FEFECE" filter="url(#fh8vw2375ajk2)" height="48" id="TimeKeeper" style="stroke:#A80036;stroke-width:1.5;" width="100" x="99" y="330"/><ellipse cx="114" cy="346" fill="#ADD1B2" rx="11" ry="11" style="stroke:#A80036;stroke-width:1.0;"/><path d="M116.7656,341.875 Q116.9219,341.6563 117.1094,341.5469 Q117.2969,341.4375 117.5156,341.4375 Q117.8906,341.4375 118.125,341.6953 Q118.3594,341.9531 118.3594,342.5625 L118.3594,344.0156 Q118.3594,344.625 118.125,344.8906 Q117.8906,345.1563 117.5156,345.1563 Q117.1719,345.1563 116.9688,344.9531 Q116.7656,344.7656 116.6563,344.25 Q116.6094,343.8906 116.4219,343.7031 Q116.0938,343.3281 115.4844,343.1094 Q114.875,342.8906 114.25,342.8906 Q113.4844,342.8906 112.8516,343.2188 Q112.2188,343.5469 111.7266,344.2969 Q111.2344,345.0469 111.2344,346.0781 L111.2344,347.1719 Q111.2344,348.4063 112.125,349.2266 Q113.0156,350.0469 114.6094,350.0469 Q115.5469,350.0469 116.2031,349.7969 Q116.5938,349.6406 117.0156,349.2031 Q117.2813,348.9375 117.4297,348.8594 Q117.5781,348.7813 117.7813,348.7813 Q118.1094,348.7813 118.3672,349.0391 Q118.625,349.2969 118.625,349.6406 Q118.625,349.9844 118.2813,350.3906 Q117.7813,350.9688 116.9844,351.2969 Q115.9063,351.75 114.6094,351.75 Q113.0938,351.75 111.8906,351.125 Q110.9063,350.625 110.2188,349.5547 Q109.5313,348.4844 109.5313,347.2031 L109.5313,346.0469 Q109.5313,344.7188 110.1484,343.5703 Q110.7656,342.4219 111.8594,341.8047 Q112.9531,341.1875 114.1875,341.1875 Q114.9219,341.1875 115.5703,341.3516 Q116.2188,341.5156 116.7656,341.875 Z " fill="#000000"/><text fill="#000000" font-family="sans-serif" font-size="12" lengthAdjust="spacing" textLength="68" x="128" y="350.9102">TimeKeeper</text><line style="stroke:#A80036;stroke-width:1.5;" x1="100" x2="198" y1="362" y2="362"/><line style="stroke:#A80036;stroke-width:1.5;" x1="100" x2="198" y1="370" y2="370"/><!--MD5=[33bda69caa66fb7c99eaf82bc543b74e]
class UDP_server--><rect codeLine="93" fill="#FEFECE" filter="url(#fh8vw2375ajk2)" height="48" id="UDP_server" style="stroke:#A80036;stroke-width:1.5;" width="99" x="450.5" y="330"/><ellipse cx="465.5" cy="346" fill="#ADD1B2" rx="11" ry="11" style="stroke:#A80036;stroke-width:1.0;"/><path d="M468.2656,341.875 Q468.4219,341.6563 468.6094,341.5469 Q468.7969,341.4375 469.0156,341.4375 Q469.3906,341.4375 469.625,341.6953 Q469.8594,341.9531 469.8594,342.5625 L469.8594,344.0156 Q469.8594,344.625 469.625,344.8906 Q469.3906,345.1563 469.0156,345.1563 Q468.6719,345.1563 468.4688,344.9531 Q468.2656,344.7656 468.1563,344.25 Q468.1094,343.8906 467.9219,343.7031 Q467.5938,343.3281 466.9844,343.1094 Q466.375,342.8906 465.75,342.8906 Q464.9844,342.8906 464.3516,343.2188 Q463.7188,343.5469 463.2266,344.2969 Q462.7344,345.0469 462.7344,346.0781 L462.7344,347.1719 Q462.7344,348.4063 463.625,349.2266 Q464.5156,350.0469 466.1094,350.0469 Q467.0469,350.0469 467.7031,349.7969 Q468.0938,349.6406 468.5156,349.2031 Q468.7813,348.9375 468.9297,348.8594 Q469.0781,348.7813 469.2813,348.7813 Q469.6094,348.7813 469.8672,349.0391 Q470.125,349.2969 470.125,349.6406 Q470.125,349.9844 469.7813,350.3906 Q469.2813,350.9688 468.4844,351.2969 Q467.4063,351.75 466.1094,351.75 Q464.5938,351.75 463.3906,351.125 Q462.4063,350.625 461.7188,349.5547 Q461.0313,348.4844 461.0313,347.2031 L461.0313,346.0469 Q461.0313,344.7188 461.6484,343.5703 Q462.2656,342.4219 463.3594,341.8047 Q464.4531,341.1875 465.6875,341.1875 Q466.4219,341.1875 467.0703,341.3516 Q467.7188,341.5156 468.2656,341.875 Z " fill="#000000"/><text fill="#000000" font-family="sans-serif" font-size="12" lengthAdjust="spacing" textLength="67" x="479.5" y="350.9102">UDP_server</text><line style="stroke:#A80036;stroke-width:1.5;" x1="451.5" x2="548.5" y1="362" y2="362"/><line style="stroke:#A80036;stroke-width:1.5;" x1="451.5" x2="548.5" y1="370" y2="370"/><!--MD5=[20934f0f42dab29883fe29cb589f3eaa]
class DataTransport--><rect codeLine="97" fill="#FEFECE" filter="url(#fh8vw2375ajk2)" height="48" id="DataTransport" style="stroke:#A80036;stroke-width:1.5;" width="111" x="321.5" y="494"/><ellipse cx="336.5" cy="510" fill="#ADD1B2" rx="11" ry="11" style="stroke:#A80036;stroke-width:1.0;"/><path d="M339.2656,505.875 Q339.4219,505.6563 339.6094,505.5469 Q339.7969,505.4375 340.0156,505.4375 Q340.3906,505.4375 340.625,505.6953 Q340.8594,505.9531 340.8594,506.5625 L340.8594,508.0156 Q340.8594,508.625 340.625,508.8906 Q340.3906,509.1563 340.0156,509.1563 Q339.6719,509.1563 339.4688,508.9531 Q339.2656,508.7656 339.1563,508.25 Q339.1094,507.8906 338.9219,507.7031 Q338.5938,507.3281 337.9844,507.1094 Q337.375,506.8906 336.75,506.8906 Q335.9844,506.8906 335.3516,507.2188 Q334.7188,507.5469 334.2266,508.2969 Q333.7344,509.0469 333.7344,510.0781 L333.7344,511.1719 Q333.7344,512.4063 334.625,513.2266 Q335.5156,514.0469 337.1094,514.0469 Q338.0469,514.0469 338.7031,513.7969 Q339.0938,513.6406 339.5156,513.2031 Q339.7813,512.9375 339.9297,512.8594 Q340.0781,512.7813 340.2813,512.7813 Q340.6094,512.7813 340.8672,513.0391 Q341.125,513.2969 341.125,513.6406 Q341.125,513.9844 340.7813,514.3906 Q340.2813,514.9688 339.4844,515.2969 Q338.4063,515.75 337.1094,515.75 Q335.5938,515.75 334.3906,515.125 Q333.4063,514.625 332.7188,513.5547 Q332.0313,512.4844 332.0313,511.2031 L332.0313,510.0469 Q332.0313,508.7188 332.6484,507.5703 Q333.2656,506.4219 334.3594,505.8047 Q335.4531,505.1875 336.6875,505.1875 Q337.4219,505.1875 338.0703,505.3516 Q338.7188,505.5156 339.2656,505.875 Z " fill="#000000"/><text fill="#000000" font-family="sans-serif" font-size="12" lengthAdjust="spacing" textLength="79" x="350.5" y="514.9102">DataTransport</text><line style="stroke:#A80036;stroke-width:1.5;" x1="322.5" x2="431.5" y1="526" y2="526"/><line style="stroke:#A80036;stroke-width:1.5;" x1="322.5" x2="431.5" y1="534" y2="534"/><!--MD5=[d1515d178fad2bf0f45f27ac1a5c0712]
class UDP_client--><rect codeLine="95" fill="#FEFECE" filter="url(#fh8vw2375ajk2)" height="48" id="UDP_client" style="stroke:#A80036;stroke-width:1.5;" width="94" x="321" y="330"/><ellipse cx="336" cy="346" fill="#ADD1B2" rx="11" ry="11" style="stroke:#A80036;stroke-width:1.0;"/><path d="M338.7656,341.875 Q338.9219,341.6563 339.1094,341.5469 Q339.2969,341.4375 339.5156,341.4375 Q339.8906,341.4375 340.125,341.6953 Q340.3594,341.9531 340.3594,342.5625 L340.3594,344.0156 Q340.3594,344.625 340.125,344.8906 Q339.8906,345.1563 339.5156,345.1563 Q339.1719,345.1563 338.9688,344.9531 Q338.7656,344.7656 338.6563,344.25 Q338.6094,343.8906 338.4219,343.7031 Q338.0938,343.3281 337.4844,343.1094 Q336.875,342.8906 336.25,342.8906 Q335.4844,342.8906 334.8516,343.2188 Q334.2188,343.5469 333.7266,344.2969 Q333.2344,345.0469 333.2344,346.0781 L333.2344,347.1719 Q333.2344,348.4063 334.125,349.2266 Q335.0156,350.0469 336.6094,350.0469 Q337.5469,350.0469 338.2031,349.7969 Q338.5938,349.6406 339.0156,349.2031 Q339.2813,348.9375 339.4297,348.8594 Q339.5781,348.7813 339.7813,348.7813 Q340.1094,348.7813 340.3672,349.0391 Q340.625,349.2969 340.625,349.6406 Q340.625,349.9844 340.2813,350.3906 Q339.7813,350.9688 338.9844,351.2969 Q337.9063,351.75 336.6094,351.75 Q335.0938,351.75 333.8906,351.125 Q332.9063,350.625 332.2188,349.5547 Q331.5313,348.4844 331.5313,347.2031 L331.5313,346.0469 Q331.5313,344.7188 332.1484,343.5703 Q332.7656,342.4219 333.8594,341.8047 Q334.9531,341.1875 336.1875,341.1875 Q336.9219,341.1875 337.5703,341.3516 Q338.2188,341.5156 338.7656,341.875 Z " fill="#000000"/><text fill="#000000" font-family="sans-serif" font-size="12" lengthAdjust="spacing" textLength="62" x="350" y="350.9102">UDP_client</text><line style="stroke:#A80036;stroke-width:1.5;" x1="322" x2="414" y1="362" y2="362"/><line style="stroke:#A80036;stroke-width:1.5;" x1="322" x2="414" y1="370" y2="370"/><!--MD5=[45f3bfb0a79ec97110abe388513c5f18]
class socket--><rect codeLine="99" fill="#FEFECE" filter="url(#fh8vw2375ajk2)" height="48" id="socket" style="stroke:#A80036;stroke-width:1.5;" width="68" x="197" y="494"/><ellipse cx="212" cy="510" fill="#ADD1B2" rx="11" ry="11" style="stroke:#A80036;stroke-width:1.0;"/><path d="M214.7656,505.875 Q214.9219,505.6563 215.1094,505.5469 Q215.2969,505.4375 215.5156,505.4375 Q215.8906,505.4375 216.125,505.6953 Q216.3594,505.9531 216.3594,506.5625 L216.3594,508.0156 Q216.3594,508.625 216.125,508.8906 Q215.8906,509.1563 215.5156,509.1563 Q215.1719,509.1563 214.9688,508.9531 Q214.7656,508.7656 214.6563,508.25 Q214.6094,507.8906 214.4219,507.7031 Q214.0938,507.3281 213.4844,507.1094 Q212.875,506.8906 212.25,506.8906 Q211.4844,506.8906 210.8516,507.2188 Q210.2188,507.5469 209.7266,508.2969 Q209.2344,509.0469 209.2344,510.0781 L209.2344,511.1719 Q209.2344,512.4063 210.125,513.2266 Q211.0156,514.0469 212.6094,514.0469 Q213.5469,514.0469 214.2031,513.7969 Q214.5938,513.6406 215.0156,513.2031 Q215.2813,512.9375 215.4297,512.8594 Q215.5781,512.7813 215.7813,512.7813 Q216.1094,512.7813 216.3672,513.0391 Q216.625,513.2969 216.625,513.6406 Q216.625,513.9844 216.2813,514.3906 Q215.7813,514.9688 214.9844,515.2969 Q213.9063,515.75 212.6094,515.75 Q211.0938,515.75 209.8906,515.125 Q208.9063,514.625 208.2188,513.5547 Q207.5313,512.4844 207.5313,511.2031 L207.5313,510.0469 Q207.5313,508.7188 208.1484,507.5703 Q208.7656,506.4219 209.8594,505.8047 Q210.9531,505.1875 212.1875,505.1875 Q212.9219,505.1875 213.5703,505.3516 Q214.2188,505.5156 214.7656,505.875 Z " fill="#000000"/><text fill="#000000" font-family="sans-serif" font-size="12" lengthAdjust="spacing" textLength="36" x="226" y="514.9102">socket</text><line style="stroke:#A80036;stroke-width:1.5;" x1="198" x2="264" y1="526" y2="526"/><line style="stroke:#A80036;stroke-width:1.5;" x1="198" x2="264" y1="534" y2="534"/><!--MD5=[819560a7ae37cec3121a30417fb867bb]
link SZP_master to sound_zone_protocol--><path codeLine="55" d="M674,262.07 C688.57,281.85 709.46,310.2 724.03,329.96 " fill="none" id="SZP_master-to-sound_zone_protocol" style="stroke:#A80036;stroke-width:1.0;"/><polygon fill="#FFFFFF" points="724.03,329.96,723.6887,322.757,716.9084,320.3017,717.2498,327.5047,724.03,329.96" style="stroke:#A80036;stroke-width:1.0;"/><!--MD5=[8624d67ac5351fc796ea96f52dbebcea]
link SZP_slave to sound_zone_protocol--><path codeLine="56" d="M778.49,262.07 C770.33,281.85 758.65,310.2 750.5,329.96 " fill="none" id="SZP_slave-to-sound_zone_protocol" style="stroke:#A80036;stroke-width:1.0;"/><polygon fill="#FFFFFF" points="750.5,329.96,756.4856,325.9384,755.0755,318.8665,749.0899,322.8881,750.5,329.96" style="stroke:#A80036;stroke-width:1.0;"/><!--MD5=[c73236e6e62923f8eb0c3e9375e2ee62]
link UDP_server to DataTransport--><path codeLine="70" d="M482.38,378.21 C461.46,405.76 426.42,451.92 402.53,483.37 " fill="none" id="UDP_server-to-DataTransport" style="stroke:#A80036;stroke-width:1.0;"/><polygon fill="#FFFFFF" points="394.59,493.83,401.4031,491.4674,401.8426,484.2697,395.0296,486.6323,394.59,493.83" style="stroke:#A80036;stroke-width:1.0;"/><!--MD5=[5473576d6bb9d2cd5d0a254ee17285b3]
link UDP_client to DataTransport--><path codeLine="71" d="M369.29,378.21 C370.77,404.92 373.23,449.11 374.97,480.45 " fill="none" id="UDP_client-to-DataTransport" style="stroke:#A80036;stroke-width:1.0;"/><polygon fill="#FFFFFF" points="375.71,493.83,379.3741,487.6191,375.0502,481.8482,371.3862,488.059,375.71,493.83" style="stroke:#A80036;stroke-width:1.0;"/><!--MD5=[d402314b8de9c76708f81e661f90091d]
link DataTransport to socket--><path codeLine="76" d="M321.11,518 C306.85,518 292.58,518 278.32,518 " fill="none" id="DataTransport-to-socket" style="stroke:#A80036;stroke-width:1.0;"/><polygon fill="#A80036" points="265.22,518,271.22,522,277.22,518,271.22,514,265.22,518" style="stroke:#A80036;stroke-width:1.0;"/><!--MD5=[cdc8a5dd759ce40a7134fc3686352dcd]
link SZS_client to SZP_slave--><path codeLine="80" d="M484.61,90.04 C495.83,106.64 513.38,127.83 535,138 C573.24,155.99 687.99,125.6 725,146 C747.02,158.13 762.99,181.64 773.34,201.72 " fill="none" id="SZS_client-to-SZP_slave" style="stroke:#A80036;stroke-width:1.0;"/><polygon fill="#A80036" points="779.06,213.65,780.074,206.5105,773.8737,202.8286,772.8597,209.9681,779.06,213.65" style="stroke:#A80036;stroke-width:1.0;"/><!--MD5=[c93d180a2d47f2f1755a0a135a2e48e3]
link SZS_server to SZP_master--><path codeLine="81" d="M332.57,90.2 C353.58,105.01 382.14,123.99 409,138 C469.63,169.62 542.72,197.67 593.79,215.76 " fill="none" id="SZS_server-to-SZP_master" style="stroke:#A80036;stroke-width:1.0;"/><polygon fill="#A80036" points="606.28,220.15,601.9484,214.3848,594.9607,216.1658,599.2923,221.931,606.28,220.15" style="stroke:#A80036;stroke-width:1.0;"/><!--MD5=[2e2adf2ea465e53ceaec2972fdf9281b]
link SZS_client to Sync_Slave--><path codeLine="82" d="M436.63,90.03 C415.89,103.92 388.93,121.98 365,138 C330.76,160.92 292.04,186.82 262.8,206.37 " fill="none" id="SZS_client-to-Sync_Slave" style="stroke:#A80036;stroke-width:1.0;"/><polygon fill="#A80036" points="251.69,213.8,258.9011,213.7912,261.6665,207.1314,254.4554,207.1402,251.69,213.8" style="stroke:#A80036;stroke-width:1.0;"/><!--MD5=[ba73a3ea1e447c464b932ba9270b7528]
link SZS_server to Sync_Master--><path codeLine="83" d="M252.79,86.1 C221.9,99.82 182.11,120.39 152,146 C132.99,162.17 115.99,184.44 103.62,202.9 " fill="none" id="SZS_server-to-Sync_Master" style="stroke:#A80036;stroke-width:1.0;"/><polygon fill="#A80036" points="96.54,213.81,103.1595,210.9495,103.065,203.7391,96.4455,206.5995,96.54,213.81" style="stroke:#A80036;stroke-width:1.0;"/><!--MD5=[c8890c178e7a625d697c028a2571e2e5]
link SZS_client to alsadriver--><path codeLine="84" d="M516.53,66 C523.87,66 531.22,66 538.56,66 " fill="none" id="SZS_client-to-alsadriver" style="stroke:#A80036;stroke-width:1.0;"/><polygon fill="#A80036" points="551.78,66,545.78,62,539.78,66,545.78,70,551.78,66" style="stroke:#A80036;stroke-width:1.0;"/><!--MD5=[d63e008edd9545a95f94b6841a9578f6]
link SZP_master to UDP_client--><path codeLine="85" d="M606.43,241.61 C549.64,245.3 461.67,253.51 433,270 C413.41,281.27 397.59,300.98 386.47,318.37 " fill="none" id="SZP_master-to-UDP_client" style="stroke:#A80036;stroke-width:1.0;"/><polygon fill="#A80036" points="379.53,329.9,386.0499,326.8192,385.7136,319.6159,379.1938,322.6967,379.53,329.9" style="stroke:#A80036;stroke-width:1.0;"/><!--MD5=[db18abf83db8f090ed0662d17841ad27]
link SZP_slave to UDP_server--><path codeLine="86" d="M742.33,257.34 C736.56,259.16 730.69,260.78 725,262 C676.64,272.36 660.45,253.01 614,270 C583.77,281.06 554.52,302.65 533.22,321.04 " fill="none" id="SZP_slave-to-UDP_server" style="stroke:#A80036;stroke-width:1.0;"/><polygon fill="#A80036" points="523.43,329.75,530.5715,328.7502,532.3953,321.7735,525.2538,322.7733,523.43,329.75" style="stroke:#A80036;stroke-width:1.0;"/><!--MD5=[48acfc678aa9d2c02c1ad1eeef7be786]
link Sync_Slave to TimeKeeper--><path codeLine="87" d="M203.24,262.07 C193.56,278.29 180.44,300.29 169.53,318.58 " fill="none" id="Sync_Slave-to-TimeKeeper" style="stroke:#A80036;stroke-width:1.0;"/><polygon fill="#A80036" points="162.74,329.96,169.2476,326.8534,168.8829,319.6515,162.3753,322.7581,162.74,329.96" style="stroke:#A80036;stroke-width:1.0;"/><!--MD5=[c72b85cae8a817ad035e795fcee80f00]
link Sync_Master to TimeKeeper--><path codeLine="88" d="M96.36,262.07 C105.75,278.29 118.48,300.29 129.07,318.58 " fill="none" id="Sync_Master-to-TimeKeeper" style="stroke:#A80036;stroke-width:1.0;"/><polygon fill="#A80036" points="135.66,329.96,136.1169,322.7634,129.6496,319.5737,129.1927,326.7703,135.66,329.96" style="stroke:#A80036;stroke-width:1.0;"/><!--MD5=[485c6350bd6aeed32c6b00e392632a25]
link Sync_Slave to UDP_server--><path codeLine="89" d="M264.76,241.79 C319.45,245.68 405.09,254.13 433,270 C452.88,281.31 469.17,301.02 480.71,318.4 " fill="none" id="Sync_Slave-to-UDP_server" style="stroke:#A80036;stroke-width:1.0;"/><polygon fill="#A80036" points="487.93,329.92,488.1386,322.7119,481.5653,319.747,481.3566,326.9551,487.93,329.92" style="stroke:#A80036;stroke-width:1.0;"/><!--MD5=[88b0888601f2024adfe7de4c8c189b93]
link Sync_Master to UDP_client--><path codeLine="90" d="M134.23,257.7 C140.16,259.38 146.17,260.87 152,262 C180.19,267.48 254.68,258.5 281,270 C305.47,280.69 327.2,301.41 342.83,319.48 " fill="none" id="Sync_Master-to-UDP_client" style="stroke:#A80036;stroke-width:1.0;"/><polygon fill="#A80036" points="351.3,329.71,350.557,322.5373,343.6503,320.4644,344.3933,327.6371,351.3,329.71" style="stroke:#A80036;stroke-width:1.0;"/><!--MD5=[ed91303bb45971e5d0c761ec66df7dd6]
@startuml class_diagram

together {
    package soundzone_client{
        class SZS_client{}
        class alsadriver{}
    }

    package soundzone_server {
        class SZS_server{}
    }
}

together {
    package SZP {
        SZP_master - -o sound_zone_protocol
        SZP_slave - -o sound_zone_protocol

        package sound_zone_protocol {
            class sound_zone_protocol {}
        }
    }

    package szs_time_sync {
        class Sync_Slave {}
        class Sync_Master {}
        class TimeKeeper {}
    }

    package DataTransport{
        UDP_server - -o DataTransport
        UDP_client - -o DataTransport

    }

    package Socket{
        DataTransport -right-* socket
    }
}

SZS_client - -* SZP_slave
SZS_server - -* SZP_master
SZS_client - -* Sync_Slave
SZS_server - -* Sync_Master
SZS_client -right-* alsadriver
SZP_master - -* UDP_client
SZP_slave - -* UDP_server
Sync_Slave - -* TimeKeeper
Sync_Master - -* TimeKeeper
Sync_Slave - -* UDP_server
Sync_Master - -* UDP_client


class UDP_server {}

class UDP_client {}

class DataTransport {}

class socket {}

class SZP_master{}

class SZP_slave{}

@enduml

PlantUML version 1.2021.10(Mon Aug 30 15:43:48 CEST 2021)
(GPL source distribution)
Java Runtime: Java(TM) SE Runtime Environment
JVM: Java HotSpot(TM) 64-Bit Server VM
Default Encoding: Cp1252
Language: en
Country: US
--></g></svg>