<?xml version="1.0" encoding="UTF-8" standalone="no"?><svg xmlns="http://www.w3.org/2000/svg" xmlns:xlink="http://www.w3.org/1999/xlink" contentScriptType="application/ecmascript" contentStyleType="text/css" height="641px" preserveAspectRatio="none" style="width:867px;height:641px;background:#FFFFFF;" version="1.1" viewBox="0 0 867 641" width="867px" zoomAndPan="magnify"><defs><filter height="300%" id="f1e9i7q1v51wqi" width="300%" x="-1" y="-1"><feGaussianBlur result="blurOut" stdDeviation="2.0"/><feColorMatrix in="blurOut" result="blurOut2" type="matrix" values="0 0 0 0 0 0 0 0 0 0 0 0 0 0 0 0 0 0 .4 0"/><feOffset dx="4.0" dy="4.0" in="blurOut2" result="blurOut3"/><feBlend in="SourceGraphic" in2="blurOut3" mode="normal"/></filter></defs><g><!--MD5=[cea38e4d4c12f90c4517732a9e072fc7]
cluster alsa--><polygon fill="#DDDDDD" filter="url(#f1e9i7q1v51wqi)" points="604,6,638,6,645,29.6094,706,29.6094,706,106,604,106,604,6" style="stroke:#000000;stroke-width:1.5;"/><line style="stroke:#000000;stroke-width:1.5;" x1="604" x2="645" y1="29.6094" y2="29.6094"/><text fill="#000000" font-family="sans-serif" font-size="14" font-weight="bold" lengthAdjust="spacing" textLength="28" x="608" y="22.5332">alsa</text><!--MD5=[0f38d47a969d072f9948567dab64c60a]
cluster soundzone_client--><polygon fill="#FFFFFF" filter="url(#f1e9i7q1v51wqi)" points="335,6,466,6,473,29.6094,580,29.6094,580,106,335,106,335,6" style="stroke:#000000;stroke-width:1.5;"/><line style="stroke:#000000;stroke-width:1.5;" x1="335" x2="473" y1="29.6094" y2="29.6094"/><text fill="#000000" font-family="sans-serif" font-size="14" font-weight="bold" lengthAdjust="spacing" textLength="125" x="339" y="22.5332">soundzone_client</text><!--MD5=[c0030eacce3da9fc2464a91d6ad537bd]
cluster soundzone_server--><polygon fill="#FFFFFF" filter="url(#f1e9i7q1v51wqi)" points="162,6,301,6,308,29.6094,311,29.6094,311,106,162,106,162,6" style="stroke:#000000;stroke-width:1.5;"/><line style="stroke:#000000;stroke-width:1.5;" x1="162" x2="308" y1="29.6094" y2="29.6094"/><text fill="#000000" font-family="sans-serif" font-size="14" font-weight="bold" lengthAdjust="spacing" textLength="133" x="166" y="22.5332">soundzone_server</text><!--MD5=[5fef1451656b5a9badf49a78f09e17f4]
cluster chrono--><polygon fill="#DDDDDD" filter="url(#f1e9i7q1v51wqi)" points="98,410,154,410,161,433.6094,200,433.6094,200,510,98,510,98,410" style="stroke:#000000;stroke-width:1.5;"/><line style="stroke:#000000;stroke-width:1.5;" x1="98" x2="161" y1="433.6094" y2="433.6094"/><text fill="#000000" font-family="sans-serif" font-size="14" font-weight="bold" lengthAdjust="spacing" textLength="50" x="102" y="426.5332">chrono</text><!--MD5=[6bcd4e2e4339cb18f29cde61031d3191]
cluster SZP--><polygon fill="#FFFFFF" filter="url(#f1e9i7q1v51wqi)" points="590,178,622,178,629,201.6094,850,201.6094,850,386,590,386,590,178" style="stroke:#000000;stroke-width:1.5;"/><line style="stroke:#000000;stroke-width:1.5;" x1="590" x2="629" y1="201.6094" y2="201.6094"/><text fill="#000000" font-family="sans-serif" font-size="14" font-weight="bold" lengthAdjust="spacing" textLength="26" x="594" y="194.5332">SZP</text><!--MD5=[46eb245c58a01c5a8fccd0fd398da143]
cluster szs_time_sync--><polygon fill="#FFFFFF" filter="url(#f1e9i7q1v51wqi)" points="16,178,123,178,130,201.6094,281,201.6094,281,386,16,386,16,178" style="stroke:#000000;stroke-width:1.5;"/><line style="stroke:#000000;stroke-width:1.5;" x1="16" x2="130" y1="201.6094" y2="201.6094"/><text fill="#000000" font-family="sans-serif" font-size="14" font-weight="bold" lengthAdjust="spacing" textLength="101" x="20" y="194.5332">szs_time_sync</text><!--MD5=[79a26e4ac8bd5100d7277bc5c79d8e58]
cluster DataTransport--><polygon fill="#FFFFFF" filter="url(#f1e9i7q1v51wqi)" points="305,286,410,286,417,309.6094,566,309.6094,566,510,305,510,305,286" style="stroke:#000000;stroke-width:1.5;"/><line style="stroke:#000000;stroke-width:1.5;" x1="305" x2="417" y1="309.6094" y2="309.6094"/><text fill="#000000" font-family="sans-serif" font-size="14" font-weight="bold" lengthAdjust="spacing" textLength="99" x="309" y="302.5332">DataTransport</text><!--MD5=[08e646b6e49514e876c736bf7ebe2eb0]
cluster Socket--><polygon fill="#DDDDDD" filter="url(#f1e9i7q1v51wqi)" points="385,534,439,534,446,557.6094,485,557.6094,485,634,385,634,385,534" style="stroke:#000000;stroke-width:1.5;"/><line style="stroke:#000000;stroke-width:1.5;" x1="385" x2="446" y1="557.6094" y2="557.6094"/><text fill="#000000" font-family="sans-serif" font-size="14" font-weight="bold" lengthAdjust="spacing" textLength="48" x="389" y="550.5332">Socket</text><!--MD5=[b9a1552a7db295bbe98f12be93614ebb]
class alsalib--><rect codeLine="92" fill="#FEFECE" filter="url(#f1e9i7q1v51wqi)" height="48" id="alsalib" style="stroke:#A80036;stroke-width:1.5;" width="69" x="620.5" y="42"/><ellipse cx="635.5" cy="58" fill="#ADD1B2" rx="11" ry="11" style="stroke:#A80036;stroke-width:1.0;"/><path d="M638.2656,53.875 Q638.4219,53.6563 638.6094,53.5469 Q638.7969,53.4375 639.0156,53.4375 Q639.3906,53.4375 639.625,53.6953 Q639.8594,53.9531 639.8594,54.5625 L639.8594,56.0156 Q639.8594,56.625 639.625,56.8906 Q639.3906,57.1563 639.0156,57.1563 Q638.6719,57.1563 638.4688,56.9531 Q638.2656,56.7656 638.1563,56.25 Q638.1094,55.8906 637.9219,55.7031 Q637.5938,55.3281 636.9844,55.1094 Q636.375,54.8906 635.75,54.8906 Q634.9844,54.8906 634.3516,55.2188 Q633.7188,55.5469 633.2266,56.2969 Q632.7344,57.0469 632.7344,58.0781 L632.7344,59.1719 Q632.7344,60.4063 633.625,61.2266 Q634.5156,62.0469 636.1094,62.0469 Q637.0469,62.0469 637.7031,61.7969 Q638.0938,61.6406 638.5156,61.2031 Q638.7813,60.9375 638.9297,60.8594 Q639.0781,60.7813 639.2813,60.7813 Q639.6094,60.7813 639.8672,61.0391 Q640.125,61.2969 640.125,61.6406 Q640.125,61.9844 639.7813,62.3906 Q639.2813,62.9688 638.4844,63.2969 Q637.4063,63.75 636.1094,63.75 Q634.5938,63.75 633.3906,63.125 Q632.4063,62.625 631.7188,61.5547 Q631.0313,60.4844 631.0313,59.2031 L631.0313,58.0469 Q631.0313,56.7188 631.6484,55.5703 Q632.2656,54.4219 633.3594,53.8047 Q634.4531,53.1875 635.6875,53.1875 Q636.4219,53.1875 637.0703,53.3516 Q637.7188,53.5156 638.2656,53.875 Z " fill="#000000"/><text fill="#000000" font-family="sans-serif" font-size="12" lengthAdjust="spacing" textLength="37" x="649.5" y="62.9102">alsalib</text><line style="stroke:#A80036;stroke-width:1.5;" x1="621.5" x2="688.5" y1="74" y2="74"/><line style="stroke:#A80036;stroke-width:1.5;" x1="621.5" x2="688.5" y1="82" y2="82"/><!--MD5=[98d75d84b14fef00cd160a6152153064]
class SZS_client--><rect codeLine="96" fill="#FEFECE" filter="url(#f1e9i7q1v51wqi)" height="48" id="SZS_client" style="stroke:#A80036;stroke-width:1.5;" width="91" x="351.5" y="42"/><ellipse cx="366.5" cy="58" fill="#ADD1B2" rx="11" ry="11" style="stroke:#A80036;stroke-width:1.0;"/><path d="M369.2656,53.875 Q369.4219,53.6563 369.6094,53.5469 Q369.7969,53.4375 370.0156,53.4375 Q370.3906,53.4375 370.625,53.6953 Q370.8594,53.9531 370.8594,54.5625 L370.8594,56.0156 Q370.8594,56.625 370.625,56.8906 Q370.3906,57.1563 370.0156,57.1563 Q369.6719,57.1563 369.4688,56.9531 Q369.2656,56.7656 369.1563,56.25 Q369.1094,55.8906 368.9219,55.7031 Q368.5938,55.3281 367.9844,55.1094 Q367.375,54.8906 366.75,54.8906 Q365.9844,54.8906 365.3516,55.2188 Q364.7188,55.5469 364.2266,56.2969 Q363.7344,57.0469 363.7344,58.0781 L363.7344,59.1719 Q363.7344,60.4063 364.625,61.2266 Q365.5156,62.0469 367.1094,62.0469 Q368.0469,62.0469 368.7031,61.7969 Q369.0938,61.6406 369.5156,61.2031 Q369.7813,60.9375 369.9297,60.8594 Q370.0781,60.7813 370.2813,60.7813 Q370.6094,60.7813 370.8672,61.0391 Q371.125,61.2969 371.125,61.6406 Q371.125,61.9844 370.7813,62.3906 Q370.2813,62.9688 369.4844,63.2969 Q368.4063,63.75 367.1094,63.75 Q365.5938,63.75 364.3906,63.125 Q363.4063,62.625 362.7188,61.5547 Q362.0313,60.4844 362.0313,59.2031 L362.0313,58.0469 Q362.0313,56.7188 362.6484,55.5703 Q363.2656,54.4219 364.3594,53.8047 Q365.4531,53.1875 366.6875,53.1875 Q367.4219,53.1875 368.0703,53.3516 Q368.7188,53.5156 369.2656,53.875 Z " fill="#000000"/><text fill="#000000" font-family="sans-serif" font-size="12" lengthAdjust="spacing" textLength="59" x="380.5" y="62.9102">SZS_client</text><line style="stroke:#A80036;stroke-width:1.5;" x1="352.5" x2="441.5" y1="74" y2="74"/><line style="stroke:#A80036;stroke-width:1.5;" x1="352.5" x2="441.5" y1="82" y2="82"/><!--MD5=[11d09d670e40b3eb54dea3e6d0ca1e98]
class alsadriver--><rect codeLine="97" fill="#FEFECE" filter="url(#f1e9i7q1v51wqi)" height="48" id="alsadriver" style="stroke:#A80036;stroke-width:1.5;" width="86" x="478" y="42"/><ellipse cx="493" cy="58" fill="#ADD1B2" rx="11" ry="11" style="stroke:#A80036;stroke-width:1.0;"/><path d="M495.7656,53.875 Q495.9219,53.6563 496.1094,53.5469 Q496.2969,53.4375 496.5156,53.4375 Q496.8906,53.4375 497.125,53.6953 Q497.3594,53.9531 497.3594,54.5625 L497.3594,56.0156 Q497.3594,56.625 497.125,56.8906 Q496.8906,57.1563 496.5156,57.1563 Q496.1719,57.1563 495.9688,56.9531 Q495.7656,56.7656 495.6563,56.25 Q495.6094,55.8906 495.4219,55.7031 Q495.0938,55.3281 494.4844,55.1094 Q493.875,54.8906 493.25,54.8906 Q492.4844,54.8906 491.8516,55.2188 Q491.2188,55.5469 490.7266,56.2969 Q490.2344,57.0469 490.2344,58.0781 L490.2344,59.1719 Q490.2344,60.4063 491.125,61.2266 Q492.0156,62.0469 493.6094,62.0469 Q494.5469,62.0469 495.2031,61.7969 Q495.5938,61.6406 496.0156,61.2031 Q496.2813,60.9375 496.4297,60.8594 Q496.5781,60.7813 496.7813,60.7813 Q497.1094,60.7813 497.3672,61.0391 Q497.625,61.2969 497.625,61.6406 Q497.625,61.9844 497.2813,62.3906 Q496.7813,62.9688 495.9844,63.2969 Q494.9063,63.75 493.6094,63.75 Q492.0938,63.75 490.8906,63.125 Q489.9063,62.625 489.2188,61.5547 Q488.5313,60.4844 488.5313,59.2031 L488.5313,58.0469 Q488.5313,56.7188 489.1484,55.5703 Q489.7656,54.4219 490.8594,53.8047 Q491.9531,53.1875 493.1875,53.1875 Q493.9219,53.1875 494.5703,53.3516 Q495.2188,53.5156 495.7656,53.875 Z " fill="#000000"/><text fill="#000000" font-family="sans-serif" font-size="12" lengthAdjust="spacing" textLength="54" x="507" y="62.9102">alsadriver</text><line style="stroke:#A80036;stroke-width:1.5;" x1="479" x2="563" y1="74" y2="74"/><line style="stroke:#A80036;stroke-width:1.5;" x1="479" x2="563" y1="82" y2="82"/><!--MD5=[f1a8ba6ebfc908d8fd9e9fd35d31fb37]
class SZS_server--><rect codeLine="101" fill="#FEFECE" filter="url(#f1e9i7q1v51wqi)" height="48" id="SZS_server" style="stroke:#A80036;stroke-width:1.5;" width="96" x="179" y="42"/><ellipse cx="194" cy="58" fill="#ADD1B2" rx="11" ry="11" style="stroke:#A80036;stroke-width:1.0;"/><path d="M196.7656,53.875 Q196.9219,53.6563 197.1094,53.5469 Q197.2969,53.4375 197.5156,53.4375 Q197.8906,53.4375 198.125,53.6953 Q198.3594,53.9531 198.3594,54.5625 L198.3594,56.0156 Q198.3594,56.625 198.125,56.8906 Q197.8906,57.1563 197.5156,57.1563 Q197.1719,57.1563 196.9688,56.9531 Q196.7656,56.7656 196.6563,56.25 Q196.6094,55.8906 196.4219,55.7031 Q196.0938,55.3281 195.4844,55.1094 Q194.875,54.8906 194.25,54.8906 Q193.4844,54.8906 192.8516,55.2188 Q192.2188,55.5469 191.7266,56.2969 Q191.2344,57.0469 191.2344,58.0781 L191.2344,59.1719 Q191.2344,60.4063 192.125,61.2266 Q193.0156,62.0469 194.6094,62.0469 Q195.5469,62.0469 196.2031,61.7969 Q196.5938,61.6406 197.0156,61.2031 Q197.2813,60.9375 197.4297,60.8594 Q197.5781,60.7813 197.7813,60.7813 Q198.1094,60.7813 198.3672,61.0391 Q198.625,61.2969 198.625,61.6406 Q198.625,61.9844 198.2813,62.3906 Q197.7813,62.9688 196.9844,63.2969 Q195.9063,63.75 194.6094,63.75 Q193.0938,63.75 191.8906,63.125 Q190.9063,62.625 190.2188,61.5547 Q189.5313,60.4844 189.5313,59.2031 L189.5313,58.0469 Q189.5313,56.7188 190.1484,55.5703 Q190.7656,54.4219 191.8594,53.8047 Q192.9531,53.1875 194.1875,53.1875 Q194.9219,53.1875 195.5703,53.3516 Q196.2188,53.5156 196.7656,53.875 Z " fill="#000000"/><text fill="#000000" font-family="sans-serif" font-size="12" lengthAdjust="spacing" textLength="64" x="208" y="62.9102">SZS_server</text><line style="stroke:#A80036;stroke-width:1.5;" x1="180" x2="274" y1="74" y2="74"/><line style="stroke:#A80036;stroke-width:1.5;" x1="180" x2="274" y1="82" y2="82"/><!--MD5=[aef5c7a870dad8ee4f9eb2eafb9dde8d]
class chrono--><rect codeLine="109" fill="#FEFECE" filter="url(#f1e9i7q1v51wqi)" height="48" id="chrono" style="stroke:#A80036;stroke-width:1.5;" width="70" x="114" y="446"/><ellipse cx="129" cy="462" fill="#ADD1B2" rx="11" ry="11" style="stroke:#A80036;stroke-width:1.0;"/><path d="M131.7656,457.875 Q131.9219,457.6563 132.1094,457.5469 Q132.2969,457.4375 132.5156,457.4375 Q132.8906,457.4375 133.125,457.6953 Q133.3594,457.9531 133.3594,458.5625 L133.3594,460.0156 Q133.3594,460.625 133.125,460.8906 Q132.8906,461.1563 132.5156,461.1563 Q132.1719,461.1563 131.9688,460.9531 Q131.7656,460.7656 131.6563,460.25 Q131.6094,459.8906 131.4219,459.7031 Q131.0938,459.3281 130.4844,459.1094 Q129.875,458.8906 129.25,458.8906 Q128.4844,458.8906 127.8516,459.2188 Q127.2188,459.5469 126.7266,460.2969 Q126.2344,461.0469 126.2344,462.0781 L126.2344,463.1719 Q126.2344,464.4063 127.125,465.2266 Q128.0156,466.0469 129.6094,466.0469 Q130.5469,466.0469 131.2031,465.7969 Q131.5938,465.6406 132.0156,465.2031 Q132.2813,464.9375 132.4297,464.8594 Q132.5781,464.7813 132.7813,464.7813 Q133.1094,464.7813 133.3672,465.0391 Q133.625,465.2969 133.625,465.6406 Q133.625,465.9844 133.2813,466.3906 Q132.7813,466.9688 131.9844,467.2969 Q130.9063,467.75 129.6094,467.75 Q128.0938,467.75 126.8906,467.125 Q125.9063,466.625 125.2188,465.5547 Q124.5313,464.4844 124.5313,463.2031 L124.5313,462.0469 Q124.5313,460.7188 125.1484,459.5703 Q125.7656,458.4219 126.8594,457.8047 Q127.9531,457.1875 129.1875,457.1875 Q129.9219,457.1875 130.5703,457.3516 Q131.2188,457.5156 131.7656,457.875 Z " fill="#000000"/><text fill="#000000" font-family="sans-serif" font-size="12" lengthAdjust="spacing" textLength="38" x="143" y="466.9102">chrono</text><line style="stroke:#A80036;stroke-width:1.5;" x1="115" x2="183" y1="478" y2="478"/><line style="stroke:#A80036;stroke-width:1.5;" x1="115" x2="183" y1="486" y2="486"/><!--MD5=[358141ac238f2a25e6d946b89ad047f2]
class SZP_master--><rect codeLine="157" fill="#FEFECE" filter="url(#f1e9i7q1v51wqi)" height="48" id="SZP_master" style="stroke:#A80036;stroke-width:1.5;" width="101" x="606.5" y="214"/><ellipse cx="621.5" cy="230" fill="#ADD1B2" rx="11" ry="11" style="stroke:#A80036;stroke-width:1.0;"/><path d="M624.2656,225.875 Q624.4219,225.6563 624.6094,225.5469 Q624.7969,225.4375 625.0156,225.4375 Q625.3906,225.4375 625.625,225.6953 Q625.8594,225.9531 625.8594,226.5625 L625.8594,228.0156 Q625.8594,228.625 625.625,228.8906 Q625.3906,229.1563 625.0156,229.1563 Q624.6719,229.1563 624.4688,228.9531 Q624.2656,228.7656 624.1563,228.25 Q624.1094,227.8906 623.9219,227.7031 Q623.5938,227.3281 622.9844,227.1094 Q622.375,226.8906 621.75,226.8906 Q620.9844,226.8906 620.3516,227.2188 Q619.7188,227.5469 619.2266,228.2969 Q618.7344,229.0469 618.7344,230.0781 L618.7344,231.1719 Q618.7344,232.4063 619.625,233.2266 Q620.5156,234.0469 622.1094,234.0469 Q623.0469,234.0469 623.7031,233.7969 Q624.0938,233.6406 624.5156,233.2031 Q624.7813,232.9375 624.9297,232.8594 Q625.0781,232.7813 625.2813,232.7813 Q625.6094,232.7813 625.8672,233.0391 Q626.125,233.2969 626.125,233.6406 Q626.125,233.9844 625.7813,234.3906 Q625.2813,234.9688 624.4844,235.2969 Q623.4063,235.75 622.1094,235.75 Q620.5938,235.75 619.3906,235.125 Q618.4063,234.625 617.7188,233.5547 Q617.0313,232.4844 617.0313,231.2031 L617.0313,230.0469 Q617.0313,228.7188 617.6484,227.5703 Q618.2656,226.4219 619.3594,225.8047 Q620.4531,225.1875 621.6875,225.1875 Q622.4219,225.1875 623.0703,225.3516 Q623.7188,225.5156 624.2656,225.875 Z " fill="#000000"/><text fill="#000000" font-family="sans-serif" font-size="12" lengthAdjust="spacing" textLength="69" x="635.5" y="234.9102">SZP_master</text><line style="stroke:#A80036;stroke-width:1.5;" x1="607.5" x2="706.5" y1="246" y2="246"/><line style="stroke:#A80036;stroke-width:1.5;" x1="607.5" x2="706.5" y1="254" y2="254"/><!--MD5=[1abc3e6dc9fe2c8063ed4793c1552605]
class sound_zone_protocol--><rect codeLine="115" fill="#FEFECE" filter="url(#f1e9i7q1v51wqi)" height="48" id="sound_zone_protocol" style="stroke:#A80036;stroke-width:1.5;" width="151" x="644.5" y="322"/><ellipse cx="659.5" cy="338" fill="#ADD1B2" rx="11" ry="11" style="stroke:#A80036;stroke-width:1.0;"/><path d="M662.2656,333.875 Q662.4219,333.6563 662.6094,333.5469 Q662.7969,333.4375 663.0156,333.4375 Q663.3906,333.4375 663.625,333.6953 Q663.8594,333.9531 663.8594,334.5625 L663.8594,336.0156 Q663.8594,336.625 663.625,336.8906 Q663.3906,337.1563 663.0156,337.1563 Q662.6719,337.1563 662.4688,336.9531 Q662.2656,336.7656 662.1563,336.25 Q662.1094,335.8906 661.9219,335.7031 Q661.5938,335.3281 660.9844,335.1094 Q660.375,334.8906 659.75,334.8906 Q658.9844,334.8906 658.3516,335.2188 Q657.7188,335.5469 657.2266,336.2969 Q656.7344,337.0469 656.7344,338.0781 L656.7344,339.1719 Q656.7344,340.4063 657.625,341.2266 Q658.5156,342.0469 660.1094,342.0469 Q661.0469,342.0469 661.7031,341.7969 Q662.0938,341.6406 662.5156,341.2031 Q662.7813,340.9375 662.9297,340.8594 Q663.0781,340.7813 663.2813,340.7813 Q663.6094,340.7813 663.8672,341.0391 Q664.125,341.2969 664.125,341.6406 Q664.125,341.9844 663.7813,342.3906 Q663.2813,342.9688 662.4844,343.2969 Q661.4063,343.75 660.1094,343.75 Q658.5938,343.75 657.3906,343.125 Q656.4063,342.625 655.7188,341.5547 Q655.0313,340.4844 655.0313,339.2031 L655.0313,338.0469 Q655.0313,336.7188 655.6484,335.5703 Q656.2656,334.4219 657.3594,333.8047 Q658.4531,333.1875 659.6875,333.1875 Q660.4219,333.1875 661.0703,333.3516 Q661.7188,333.5156 662.2656,333.875 Z " fill="#000000"/><text fill="#000000" font-family="sans-serif" font-size="12" lengthAdjust="spacing" textLength="119" x="673.5" y="342.9102">sound_zone_protocol</text><line style="stroke:#A80036;stroke-width:1.5;" x1="645.5" x2="794.5" y1="354" y2="354"/><line style="stroke:#A80036;stroke-width:1.5;" x1="645.5" x2="794.5" y1="362" y2="362"/><!--MD5=[f98b2bde8a9293bad7a4d96faca01189]
class SZP_slave--><rect codeLine="159" fill="#FEFECE" filter="url(#f1e9i7q1v51wqi)" height="48" id="SZP_slave" style="stroke:#A80036;stroke-width:1.5;" width="91" x="742.5" y="214"/><ellipse cx="757.5" cy="230" fill="#ADD1B2" rx="11" ry="11" style="stroke:#A80036;stroke-width:1.0;"/><path d="M760.2656,225.875 Q760.4219,225.6563 760.6094,225.5469 Q760.7969,225.4375 761.0156,225.4375 Q761.3906,225.4375 761.625,225.6953 Q761.8594,225.9531 761.8594,226.5625 L761.8594,228.0156 Q761.8594,228.625 761.625,228.8906 Q761.3906,229.1563 761.0156,229.1563 Q760.6719,229.1563 760.4688,228.9531 Q760.2656,228.7656 760.1563,228.25 Q760.1094,227.8906 759.9219,227.7031 Q759.5938,227.3281 758.9844,227.1094 Q758.375,226.8906 757.75,226.8906 Q756.9844,226.8906 756.3516,227.2188 Q755.7188,227.5469 755.2266,228.2969 Q754.7344,229.0469 754.7344,230.0781 L754.7344,231.1719 Q754.7344,232.4063 755.625,233.2266 Q756.5156,234.0469 758.1094,234.0469 Q759.0469,234.0469 759.7031,233.7969 Q760.0938,233.6406 760.5156,233.2031 Q760.7813,232.9375 760.9297,232.8594 Q761.0781,232.7813 761.2813,232.7813 Q761.6094,232.7813 761.8672,233.0391 Q762.125,233.2969 762.125,233.6406 Q762.125,233.9844 761.7813,234.3906 Q761.2813,234.9688 760.4844,235.2969 Q759.4063,235.75 758.1094,235.75 Q756.5938,235.75 755.3906,235.125 Q754.4063,234.625 753.7188,233.5547 Q753.0313,232.4844 753.0313,231.2031 L753.0313,230.0469 Q753.0313,228.7188 753.6484,227.5703 Q754.2656,226.4219 755.3594,225.8047 Q756.4531,225.1875 757.6875,225.1875 Q758.4219,225.1875 759.0703,225.3516 Q759.7188,225.5156 760.2656,225.875 Z " fill="#000000"/><text fill="#000000" font-family="sans-serif" font-size="12" lengthAdjust="spacing" textLength="59" x="771.5" y="234.9102">SZP_slave</text><line style="stroke:#A80036;stroke-width:1.5;" x1="743.5" x2="832.5" y1="246" y2="246"/><line style="stroke:#A80036;stroke-width:1.5;" x1="743.5" x2="832.5" y1="254" y2="254"/><!--MD5=[fe0413f8a59d1ce1aa90e9f36490b983]
class Sync_Slave--><rect codeLine="119" fill="#FEFECE" filter="url(#f1e9i7q1v51wqi)" height="48" id="Sync_Slave" style="stroke:#A80036;stroke-width:1.5;" width="95" x="169.5" y="214"/><ellipse cx="184.5" cy="230" fill="#ADD1B2" rx="11" ry="11" style="stroke:#A80036;stroke-width:1.0;"/><path d="M187.2656,225.875 Q187.4219,225.6563 187.6094,225.5469 Q187.7969,225.4375 188.0156,225.4375 Q188.3906,225.4375 188.625,225.6953 Q188.8594,225.9531 188.8594,226.5625 L188.8594,228.0156 Q188.8594,228.625 188.625,228.8906 Q188.3906,229.1563 188.0156,229.1563 Q187.6719,229.1563 187.4688,228.9531 Q187.2656,228.7656 187.1563,228.25 Q187.1094,227.8906 186.9219,227.7031 Q186.5938,227.3281 185.9844,227.1094 Q185.375,226.8906 184.75,226.8906 Q183.9844,226.8906 183.3516,227.2188 Q182.7188,227.5469 182.2266,228.2969 Q181.7344,229.0469 181.7344,230.0781 L181.7344,231.1719 Q181.7344,232.4063 182.625,233.2266 Q183.5156,234.0469 185.1094,234.0469 Q186.0469,234.0469 186.7031,233.7969 Q187.0938,233.6406 187.5156,233.2031 Q187.7813,232.9375 187.9297,232.8594 Q188.0781,232.7813 188.2813,232.7813 Q188.6094,232.7813 188.8672,233.0391 Q189.125,233.2969 189.125,233.6406 Q189.125,233.9844 188.7813,234.3906 Q188.2813,234.9688 187.4844,235.2969 Q186.4063,235.75 185.1094,235.75 Q183.5938,235.75 182.3906,235.125 Q181.4063,234.625 180.7188,233.5547 Q180.0313,232.4844 180.0313,231.2031 L180.0313,230.0469 Q180.0313,228.7188 180.6484,227.5703 Q181.2656,226.4219 182.3594,225.8047 Q183.4531,225.1875 184.6875,225.1875 Q185.4219,225.1875 186.0703,225.3516 Q186.7188,225.5156 187.2656,225.875 Z " fill="#000000"/><text fill="#000000" font-family="sans-serif" font-size="12" lengthAdjust="spacing" textLength="63" x="198.5" y="234.9102">Sync_Slave</text><line style="stroke:#A80036;stroke-width:1.5;" x1="170.5" x2="263.5" y1="246" y2="246"/><line style="stroke:#A80036;stroke-width:1.5;" x1="170.5" x2="263.5" y1="254" y2="254"/><!--MD5=[24d123cddd699fe20e6f85e7696493e4]
class Sync_Master--><rect codeLine="120" fill="#FEFECE" filter="url(#f1e9i7q1v51wqi)" height="48" id="Sync_Master" style="stroke:#A80036;stroke-width:1.5;" width="102" x="32" y="214"/><ellipse cx="47" cy="230" fill="#ADD1B2" rx="11" ry="11" style="stroke:#A80036;stroke-width:1.0;"/><path d="M49.7656,225.875 Q49.9219,225.6563 50.1094,225.5469 Q50.2969,225.4375 50.5156,225.4375 Q50.8906,225.4375 51.125,225.6953 Q51.3594,225.9531 51.3594,226.5625 L51.3594,228.0156 Q51.3594,228.625 51.125,228.8906 Q50.8906,229.1563 50.5156,229.1563 Q50.1719,229.1563 49.9688,228.9531 Q49.7656,228.7656 49.6563,228.25 Q49.6094,227.8906 49.4219,227.7031 Q49.0938,227.3281 48.4844,227.1094 Q47.875,226.8906 47.25,226.8906 Q46.4844,226.8906 45.8516,227.2188 Q45.2188,227.5469 44.7266,228.2969 Q44.2344,229.0469 44.2344,230.0781 L44.2344,231.1719 Q44.2344,232.4063 45.125,233.2266 Q46.0156,234.0469 47.6094,234.0469 Q48.5469,234.0469 49.2031,233.7969 Q49.5938,233.6406 50.0156,233.2031 Q50.2813,232.9375 50.4297,232.8594 Q50.5781,232.7813 50.7813,232.7813 Q51.1094,232.7813 51.3672,233.0391 Q51.625,233.2969 51.625,233.6406 Q51.625,233.9844 51.2813,234.3906 Q50.7813,234.9688 49.9844,235.2969 Q48.9063,235.75 47.6094,235.75 Q46.0938,235.75 44.8906,235.125 Q43.9063,234.625 43.2188,233.5547 Q42.5313,232.4844 42.5313,231.2031 L42.5313,230.0469 Q42.5313,228.7188 43.1484,227.5703 Q43.7656,226.4219 44.8594,225.8047 Q45.9531,225.1875 47.1875,225.1875 Q47.9219,225.1875 48.5703,225.3516 Q49.2188,225.5156 49.7656,225.875 Z " fill="#000000"/><text fill="#000000" font-family="sans-serif" font-size="12" lengthAdjust="spacing" textLength="70" x="61" y="234.9102">Sync_Master</text><line style="stroke:#A80036;stroke-width:1.5;" x1="33" x2="133" y1="246" y2="246"/><line style="stroke:#A80036;stroke-width:1.5;" x1="33" x2="133" y1="254" y2="254"/><!--MD5=[2285bc677c4c71f49da698e53a3fbe44]
class TimeKeeper--><rect codeLine="121" fill="#FEFECE" filter="url(#f1e9i7q1v51wqi)" height="48" id="TimeKeeper" style="stroke:#A80036;stroke-width:1.5;" width="100" x="99" y="322"/><ellipse cx="114" cy="338" fill="#ADD1B2" rx="11" ry="11" style="stroke:#A80036;stroke-width:1.0;"/><path d="M116.7656,333.875 Q116.9219,333.6563 117.1094,333.5469 Q117.2969,333.4375 117.5156,333.4375 Q117.8906,333.4375 118.125,333.6953 Q118.3594,333.9531 118.3594,334.5625 L118.3594,336.0156 Q118.3594,336.625 118.125,336.8906 Q117.8906,337.1563 117.5156,337.1563 Q117.1719,337.1563 116.9688,336.9531 Q116.7656,336.7656 116.6563,336.25 Q116.6094,335.8906 116.4219,335.7031 Q116.0938,335.3281 115.4844,335.1094 Q114.875,334.8906 114.25,334.8906 Q113.4844,334.8906 112.8516,335.2188 Q112.2188,335.5469 111.7266,336.2969 Q111.2344,337.0469 111.2344,338.0781 L111.2344,339.1719 Q111.2344,340.4063 112.125,341.2266 Q113.0156,342.0469 114.6094,342.0469 Q115.5469,342.0469 116.2031,341.7969 Q116.5938,341.6406 117.0156,341.2031 Q117.2813,340.9375 117.4297,340.8594 Q117.5781,340.7813 117.7813,340.7813 Q118.1094,340.7813 118.3672,341.0391 Q118.625,341.2969 118.625,341.6406 Q118.625,341.9844 118.2813,342.3906 Q117.7813,342.9688 116.9844,343.2969 Q115.9063,343.75 114.6094,343.75 Q113.0938,343.75 111.8906,343.125 Q110.9063,342.625 110.2188,341.5547 Q109.5313,340.4844 109.5313,339.2031 L109.5313,338.0469 Q109.5313,336.7188 110.1484,335.5703 Q110.7656,334.4219 111.8594,333.8047 Q112.9531,333.1875 114.1875,333.1875 Q114.9219,333.1875 115.5703,333.3516 Q116.2188,333.5156 116.7656,333.875 Z " fill="#000000"/><text fill="#000000" font-family="sans-serif" font-size="12" lengthAdjust="spacing" textLength="68" x="128" y="342.9102">TimeKeeper</text><line style="stroke:#A80036;stroke-width:1.5;" x1="100" x2="198" y1="354" y2="354"/><line style="stroke:#A80036;stroke-width:1.5;" x1="100" x2="198" y1="362" y2="362"/><!--MD5=[33bda69caa66fb7c99eaf82bc543b74e]
class UDP_server--><rect codeLine="149" fill="#FEFECE" filter="url(#f1e9i7q1v51wqi)" height="48" id="UDP_server" style="stroke:#A80036;stroke-width:1.5;" width="99" x="450.5" y="322"/><ellipse cx="465.5" cy="338" fill="#ADD1B2" rx="11" ry="11" style="stroke:#A80036;stroke-width:1.0;"/><path d="M468.2656,333.875 Q468.4219,333.6563 468.6094,333.5469 Q468.7969,333.4375 469.0156,333.4375 Q469.3906,333.4375 469.625,333.6953 Q469.8594,333.9531 469.8594,334.5625 L469.8594,336.0156 Q469.8594,336.625 469.625,336.8906 Q469.3906,337.1563 469.0156,337.1563 Q468.6719,337.1563 468.4688,336.9531 Q468.2656,336.7656 468.1563,336.25 Q468.1094,335.8906 467.9219,335.7031 Q467.5938,335.3281 466.9844,335.1094 Q466.375,334.8906 465.75,334.8906 Q464.9844,334.8906 464.3516,335.2188 Q463.7188,335.5469 463.2266,336.2969 Q462.7344,337.0469 462.7344,338.0781 L462.7344,339.1719 Q462.7344,340.4063 463.625,341.2266 Q464.5156,342.0469 466.1094,342.0469 Q467.0469,342.0469 467.7031,341.7969 Q468.0938,341.6406 468.5156,341.2031 Q468.7813,340.9375 468.9297,340.8594 Q469.0781,340.7813 469.2813,340.7813 Q469.6094,340.7813 469.8672,341.0391 Q470.125,341.2969 470.125,341.6406 Q470.125,341.9844 469.7813,342.3906 Q469.2813,342.9688 468.4844,343.2969 Q467.4063,343.75 466.1094,343.75 Q464.5938,343.75 463.3906,343.125 Q462.4063,342.625 461.7188,341.5547 Q461.0313,340.4844 461.0313,339.2031 L461.0313,338.0469 Q461.0313,336.7188 461.6484,335.5703 Q462.2656,334.4219 463.3594,333.8047 Q464.4531,333.1875 465.6875,333.1875 Q466.4219,333.1875 467.0703,333.3516 Q467.7188,333.5156 468.2656,333.875 Z " fill="#000000"/><text fill="#000000" font-family="sans-serif" font-size="12" lengthAdjust="spacing" textLength="67" x="479.5" y="342.9102">UDP_server</text><line style="stroke:#A80036;stroke-width:1.5;" x1="451.5" x2="548.5" y1="354" y2="354"/><line style="stroke:#A80036;stroke-width:1.5;" x1="451.5" x2="548.5" y1="362" y2="362"/><!--MD5=[20934f0f42dab29883fe29cb589f3eaa]
class DataTransport--><rect codeLine="153" fill="#FEFECE" filter="url(#f1e9i7q1v51wqi)" height="48" id="DataTransport" style="stroke:#A80036;stroke-width:1.5;" width="111" x="379.5" y="446"/><ellipse cx="394.5" cy="462" fill="#ADD1B2" rx="11" ry="11" style="stroke:#A80036;stroke-width:1.0;"/><path d="M397.2656,457.875 Q397.4219,457.6563 397.6094,457.5469 Q397.7969,457.4375 398.0156,457.4375 Q398.3906,457.4375 398.625,457.6953 Q398.8594,457.9531 398.8594,458.5625 L398.8594,460.0156 Q398.8594,460.625 398.625,460.8906 Q398.3906,461.1563 398.0156,461.1563 Q397.6719,461.1563 397.4688,460.9531 Q397.2656,460.7656 397.1563,460.25 Q397.1094,459.8906 396.9219,459.7031 Q396.5938,459.3281 395.9844,459.1094 Q395.375,458.8906 394.75,458.8906 Q393.9844,458.8906 393.3516,459.2188 Q392.7188,459.5469 392.2266,460.2969 Q391.7344,461.0469 391.7344,462.0781 L391.7344,463.1719 Q391.7344,464.4063 392.625,465.2266 Q393.5156,466.0469 395.1094,466.0469 Q396.0469,466.0469 396.7031,465.7969 Q397.0938,465.6406 397.5156,465.2031 Q397.7813,464.9375 397.9297,464.8594 Q398.0781,464.7813 398.2813,464.7813 Q398.6094,464.7813 398.8672,465.0391 Q399.125,465.2969 399.125,465.6406 Q399.125,465.9844 398.7813,466.3906 Q398.2813,466.9688 397.4844,467.2969 Q396.4063,467.75 395.1094,467.75 Q393.5938,467.75 392.3906,467.125 Q391.4063,466.625 390.7188,465.5547 Q390.0313,464.4844 390.0313,463.2031 L390.0313,462.0469 Q390.0313,460.7188 390.6484,459.5703 Q391.2656,458.4219 392.3594,457.8047 Q393.4531,457.1875 394.6875,457.1875 Q395.4219,457.1875 396.0703,457.3516 Q396.7188,457.5156 397.2656,457.875 Z " fill="#000000"/><text fill="#000000" font-family="sans-serif" font-size="12" lengthAdjust="spacing" textLength="79" x="408.5" y="466.9102">DataTransport</text><line style="stroke:#A80036;stroke-width:1.5;" x1="380.5" x2="489.5" y1="478" y2="478"/><line style="stroke:#A80036;stroke-width:1.5;" x1="380.5" x2="489.5" y1="486" y2="486"/><!--MD5=[d1515d178fad2bf0f45f27ac1a5c0712]
class UDP_client--><rect codeLine="151" fill="#FEFECE" filter="url(#f1e9i7q1v51wqi)" height="48" id="UDP_client" style="stroke:#A80036;stroke-width:1.5;" width="94" x="321" y="322"/><ellipse cx="336" cy="338" fill="#ADD1B2" rx="11" ry="11" style="stroke:#A80036;stroke-width:1.0;"/><path d="M338.7656,333.875 Q338.9219,333.6563 339.1094,333.5469 Q339.2969,333.4375 339.5156,333.4375 Q339.8906,333.4375 340.125,333.6953 Q340.3594,333.9531 340.3594,334.5625 L340.3594,336.0156 Q340.3594,336.625 340.125,336.8906 Q339.8906,337.1563 339.5156,337.1563 Q339.1719,337.1563 338.9688,336.9531 Q338.7656,336.7656 338.6563,336.25 Q338.6094,335.8906 338.4219,335.7031 Q338.0938,335.3281 337.4844,335.1094 Q336.875,334.8906 336.25,334.8906 Q335.4844,334.8906 334.8516,335.2188 Q334.2188,335.5469 333.7266,336.2969 Q333.2344,337.0469 333.2344,338.0781 L333.2344,339.1719 Q333.2344,340.4063 334.125,341.2266 Q335.0156,342.0469 336.6094,342.0469 Q337.5469,342.0469 338.2031,341.7969 Q338.5938,341.6406 339.0156,341.2031 Q339.2813,340.9375 339.4297,340.8594 Q339.5781,340.7813 339.7813,340.7813 Q340.1094,340.7813 340.3672,341.0391 Q340.625,341.2969 340.625,341.6406 Q340.625,341.9844 340.2813,342.3906 Q339.7813,342.9688 338.9844,343.2969 Q337.9063,343.75 336.6094,343.75 Q335.0938,343.75 333.8906,343.125 Q332.9063,342.625 332.2188,341.5547 Q331.5313,340.4844 331.5313,339.2031 L331.5313,338.0469 Q331.5313,336.7188 332.1484,335.5703 Q332.7656,334.4219 333.8594,333.8047 Q334.9531,333.1875 336.1875,333.1875 Q336.9219,333.1875 337.5703,333.3516 Q338.2188,333.5156 338.7656,333.875 Z " fill="#000000"/><text fill="#000000" font-family="sans-serif" font-size="12" lengthAdjust="spacing" textLength="62" x="350" y="342.9102">UDP_client</text><line style="stroke:#A80036;stroke-width:1.5;" x1="322" x2="414" y1="354" y2="354"/><line style="stroke:#A80036;stroke-width:1.5;" x1="322" x2="414" y1="362" y2="362"/><!--MD5=[45f3bfb0a79ec97110abe388513c5f18]
class socket--><rect codeLine="155" fill="#FEFECE" filter="url(#f1e9i7q1v51wqi)" height="48" id="socket" style="stroke:#A80036;stroke-width:1.5;" width="68" x="401" y="570"/><ellipse cx="416" cy="586" fill="#ADD1B2" rx="11" ry="11" style="stroke:#A80036;stroke-width:1.0;"/><path d="M418.7656,581.875 Q418.9219,581.6563 419.1094,581.5469 Q419.2969,581.4375 419.5156,581.4375 Q419.8906,581.4375 420.125,581.6953 Q420.3594,581.9531 420.3594,582.5625 L420.3594,584.0156 Q420.3594,584.625 420.125,584.8906 Q419.8906,585.1563 419.5156,585.1563 Q419.1719,585.1563 418.9688,584.9531 Q418.7656,584.7656 418.6563,584.25 Q418.6094,583.8906 418.4219,583.7031 Q418.0938,583.3281 417.4844,583.1094 Q416.875,582.8906 416.25,582.8906 Q415.4844,582.8906 414.8516,583.2188 Q414.2188,583.5469 413.7266,584.2969 Q413.2344,585.0469 413.2344,586.0781 L413.2344,587.1719 Q413.2344,588.4063 414.125,589.2266 Q415.0156,590.0469 416.6094,590.0469 Q417.5469,590.0469 418.2031,589.7969 Q418.5938,589.6406 419.0156,589.2031 Q419.2813,588.9375 419.4297,588.8594 Q419.5781,588.7813 419.7813,588.7813 Q420.1094,588.7813 420.3672,589.0391 Q420.625,589.2969 420.625,589.6406 Q420.625,589.9844 420.2813,590.3906 Q419.7813,590.9688 418.9844,591.2969 Q417.9063,591.75 416.6094,591.75 Q415.0938,591.75 413.8906,591.125 Q412.9063,590.625 412.2188,589.5547 Q411.5313,588.4844 411.5313,587.2031 L411.5313,586.0469 Q411.5313,584.7188 412.1484,583.5703 Q412.7656,582.4219 413.8594,581.8047 Q414.9531,581.1875 416.1875,581.1875 Q416.9219,581.1875 417.5703,581.3516 Q418.2188,581.5156 418.7656,581.875 Z " fill="#000000"/><text fill="#000000" font-family="sans-serif" font-size="12" lengthAdjust="spacing" textLength="36" x="430" y="590.9102">socket</text><line style="stroke:#A80036;stroke-width:1.5;" x1="402" x2="468" y1="602" y2="602"/><line style="stroke:#A80036;stroke-width:1.5;" x1="402" x2="468" y1="610" y2="610"/><!--MD5=[d9e44fb284466fb39c3bd9965a3dc0a9]
link alsadriver to alsalib--><path codeLine="105" d="M564.18,66 C578.49,66 592.79,66 607.1,66 " fill="none" id="alsadriver-to-alsalib" style="stroke:#A80036;stroke-width:1.0;"/><polygon fill="#A80036" points="620.23,66,614.23,62,608.23,66,614.23,70,620.23,66" style="stroke:#A80036;stroke-width:1.0;"/><!--MD5=[819560a7ae37cec3121a30417fb867bb]
link SZP_master to sound_zone_protocol--><path codeLine="113" d="M670.67,262 C679.03,276.07 689.9,294.35 699.3,310.17 " fill="none" id="SZP_master-to-sound_zone_protocol" style="stroke:#A80036;stroke-width:1.0;"/><polygon fill="#FFFFFF" points="706.14,321.68,706.5115,314.4785,700.0068,311.3657,699.6353,318.5673,706.14,321.68" style="stroke:#A80036;stroke-width:1.0;"/><!--MD5=[8624d67ac5351fc796ea96f52dbebcea]
link SZP_slave to sound_zone_protocol--><path codeLine="114" d="M773.25,262 C764.13,276.21 752.26,294.71 742.05,310.63 " fill="none" id="SZP_slave-to-sound_zone_protocol" style="stroke:#A80036;stroke-width:1.0;"/><polygon fill="#FFFFFF" points="734.96,321.68,741.5654,318.7872,741.4358,311.5773,734.8303,314.4701,734.96,321.68" style="stroke:#A80036;stroke-width:1.0;"/><!--MD5=[c73236e6e62923f8eb0c3e9375e2ee62]
link UDP_server to DataTransport--><path codeLine="125" d="M487.62,370.23 C478,388.3 464.49,413.64 453.58,434.13 " fill="none" id="UDP_server-to-DataTransport" style="stroke:#A80036;stroke-width:1.0;"/><polygon fill="#FFFFFF" points="447.33,445.85,453.6821,442.4366,452.9743,435.2603,446.6223,438.6737,447.33,445.85" style="stroke:#A80036;stroke-width:1.0;"/><!--MD5=[5473576d6bb9d2cd5d0a254ee17285b3]
link UDP_client to DataTransport--><path codeLine="126" d="M380.76,370.23 C390.73,388.38 404.73,413.88 416.01,434.42 " fill="none" id="UDP_client-to-DataTransport" style="stroke:#A80036;stroke-width:1.0;"/><polygon fill="#FFFFFF" points="422.29,445.85,422.9096,438.6656,416.5161,435.3304,415.8965,442.5148,422.29,445.85" style="stroke:#A80036;stroke-width:1.0;"/><!--MD5=[d402314b8de9c76708f81e661f90091d]
link DataTransport to socket--><path codeLine="131" d="M435,494.23 C435,511.87 435,536.46 435,556.68 " fill="none" id="DataTransport-to-socket" style="stroke:#A80036;stroke-width:1.0;"/><polygon fill="#A80036" points="435,569.85,439,563.85,435,557.85,431,563.85,435,569.85" style="stroke:#A80036;stroke-width:1.0;"/><!--MD5=[cdc8a5dd759ce40a7134fc3686352dcd]
link SZS_client to SZP_slave--><path codeLine="135" d="M410.58,90.11 C421.78,106.75 439.32,127.96 461,138 C487.63,150.33 699.21,131.99 725,146 C747.23,158.08 763.26,181.81 773.59,202.01 " fill="none" id="SZS_client-to-SZP_slave" style="stroke:#A80036;stroke-width:1.0;"/><polygon fill="#A80036" points="779.28,213.99,780.3149,206.8535,774.1254,203.1535,773.0905,210.2899,779.28,213.99" style="stroke:#A80036;stroke-width:1.0;"/><!--MD5=[c93d180a2d47f2f1755a0a135a2e48e3]
link SZS_server to SZP_master--><path codeLine="136" d="M257.28,90.28 C278.21,105.49 307.19,124.91 335,138 C420.82,178.4 527.15,207.34 593.54,223.13 " fill="none" id="SZS_server-to-SZP_master" style="stroke:#A80036;stroke-width:1.0;"/><polygon fill="#A80036" points="606.27,226.12,601.3374,220.8598,594.5847,223.3899,599.5173,228.6501,606.27,226.12" style="stroke:#A80036;stroke-width:1.0;"/><!--MD5=[2e2adf2ea465e53ceaec2972fdf9281b]
link SZS_client to Sync_Slave--><path codeLine="137" d="M372.35,90.28 C340.98,119.91 286.62,171.25 251.24,204.67 " fill="none" id="SZS_client-to-Sync_Slave" style="stroke:#A80036;stroke-width:1.0;"/><polygon fill="#A80036" points="241.35,214,248.4579,212.7842,250.0694,205.7555,242.9615,206.9713,241.35,214" style="stroke:#A80036;stroke-width:1.0;"/><!--MD5=[ba73a3ea1e447c464b932ba9270b7528]
link SZS_server to Sync_Master--><path codeLine="138" d="M203.65,90.22 C188.48,105.64 168.53,126.54 152,146 C136.52,164.22 120.32,185.47 107.5,202.85 " fill="none" id="SZS_server-to-Sync_Master" style="stroke:#A80036;stroke-width:1.0;"/><polygon fill="#A80036" points="99.61,213.64,106.3794,211.155,106.6892,203.9506,99.9198,206.4356,99.61,213.64" style="stroke:#A80036;stroke-width:1.0;"/><!--MD5=[c8890c178e7a625d697c028a2571e2e5]
link SZS_client to alsadriver--><path codeLine="139" d="M442.53,66 C449.87,66 457.22,66 464.56,66 " fill="none" id="SZS_client-to-alsadriver" style="stroke:#A80036;stroke-width:1.0;"/><polygon fill="#A80036" points="477.78,66,471.78,62,465.78,66,471.78,70,477.78,66" style="stroke:#A80036;stroke-width:1.0;"/><!--MD5=[d63e008edd9545a95f94b6841a9578f6]
link SZP_master to UDP_client--><path codeLine="140" d="M606.08,239.03 C558.71,241.03 487.44,249.21 433,278 C417.67,286.11 403.79,299.15 392.84,311.58 " fill="none" id="SZP_master-to-UDP_client" style="stroke:#A80036;stroke-width:1.0;"/><polygon fill="#A80036" points="384.35,321.76,391.2631,319.7085,392.0283,312.5381,385.1152,314.5896,384.35,321.76" style="stroke:#A80036;stroke-width:1.0;"/><!--MD5=[db18abf83db8f090ed0662d17841ad27]
link SZP_slave to UDP_server--><path codeLine="141" d="M742.27,257.09 C736.52,258.95 730.66,260.65 725,262 C666.23,276.01 646.13,255.65 590,278 C569.71,286.08 549.93,299.94 534.1,312.96 " fill="none" id="SZP_slave-to-UDP_server" style="stroke:#A80036;stroke-width:1.0;"/><polygon fill="#A80036" points="523.82,321.76,530.9796,320.9,532.9395,313.9603,525.7798,314.8203,523.82,321.76" style="stroke:#A80036;stroke-width:1.0;"/><!--MD5=[48acfc678aa9d2c02c1ad1eeef7be786]
link Sync_Slave to TimeKeeper--><path codeLine="142" d="M202.25,262 C193.13,276.21 181.26,294.71 171.05,310.63 " fill="none" id="Sync_Slave-to-TimeKeeper" style="stroke:#A80036;stroke-width:1.0;"/><polygon fill="#A80036" points="163.96,321.68,170.5654,318.7872,170.4358,311.5773,163.8303,314.4701,163.96,321.68" style="stroke:#A80036;stroke-width:1.0;"/><!--MD5=[c72b85cae8a817ad035e795fcee80f00]
link Sync_Master to TimeKeeper--><path codeLine="143" d="M97.32,262 C106.17,276.21 117.69,294.71 127.6,310.63 " fill="none" id="Sync_Master-to-TimeKeeper" style="stroke:#A80036;stroke-width:1.0;"/><polygon fill="#A80036" points="134.48,321.68,134.7021,314.4723,128.1342,311.4951,127.9122,318.7028,134.48,321.68" style="stroke:#A80036;stroke-width:1.0;"/><!--MD5=[485c6350bd6aeed32c6b00e392632a25]
link Sync_Slave to UDP_server--><path codeLine="144" d="M264.71,239.52 C310.32,241.83 379.82,250.18 433,278 C448.6,286.16 462.87,299.21 474.19,311.63 " fill="none" id="Sync_Slave-to-UDP_server" style="stroke:#A80036;stroke-width:1.0;"/><polygon fill="#A80036" points="482.97,321.8,482.0758,314.6445,475.1269,312.7178,476.0211,319.8733,482.97,321.8" style="stroke:#A80036;stroke-width:1.0;"/><!--MD5=[88b0888601f2024adfe7de4c8c189b93]
link Sync_Master to UDP_client--><path codeLine="145" d="M134.3,257.34 C140.22,259.09 146.21,260.69 152,262 C208.35,274.75 227.56,256.04 281,278 C300.77,286.12 319.91,299.98 335.18,313 " fill="none" id="Sync_Master-to-UDP_client" style="stroke:#A80036;stroke-width:1.0;"/><polygon fill="#A80036" points="345.1,321.79,343.2654,314.8162,336.1224,313.8275,337.957,320.8013,345.1,321.79" style="stroke:#A80036;stroke-width:1.0;"/><!--MD5=[d3fdf404b118b35c4fa5c40249f55c0e]
link TimeKeeper to chrono--><path codeLine="146" d="M149,370.23 C149,387.87 149,412.46 149,432.68 " fill="none" id="TimeKeeper-to-chrono" style="stroke:#A80036;stroke-width:1.0;"/><polygon fill="#A80036" points="149,445.85,153,439.85,149,433.85,145,439.85,149,445.85" style="stroke:#A80036;stroke-width:1.0;"/><!--MD5=[e459d9b6e00250c2a422ba48093eb661]
@startuml class_diagram

together {
    package alsa #DDDDDD {
        class alsalib {}
    }

    package soundzone_client{
        class SZS_client{}
        class alsadriver{}
    }

    package soundzone_server {
        class SZS_server{}
    }
}

alsadriver -right-* alsalib

together {
    package chrono #DDDDDD {
        class chrono {}
    }

    package SZP {
        SZP_master - -o sound_zone_protocol
        SZP_slave - -o sound_zone_protocol
        class sound_zone_protocol {}
    }

    package szs_time_sync {
        class Sync_Slave {}
        class Sync_Master {}
        class TimeKeeper {}
    }

    package DataTransport{
        UDP_server - -o DataTransport
        UDP_client - -o DataTransport

    }

    package Socket #DDDDDD {
        DataTransport -down-* socket
    }
}

SZS_client - -* SZP_slave
SZS_server - -* SZP_master
SZS_client - -* Sync_Slave
SZS_server - -* Sync_Master
SZS_client -right-* alsadriver
SZP_master - -* UDP_client
SZP_slave - -* UDP_server
Sync_Slave - -* TimeKeeper
Sync_Master - -* TimeKeeper
Sync_Slave - -* UDP_server
Sync_Master - -* UDP_client
TimeKeeper -down-* chrono


class UDP_server {}

class UDP_client {}

class DataTransport {}

class socket {}

class SZP_master{}

class SZP_slave{}

@enduml

PlantUML version 1.2021.10(Mon Aug 30 15:43:48 CEST 2021)
(GPL source distribution)
Java Runtime: Java(TM) SE Runtime Environment
JVM: Java HotSpot(TM) 64-Bit Server VM
Default Encoding: Cp1252
Language: en
Country: US
--></g></svg>