<?xml version="1.0" encoding="UTF-8" standalone="no"?><svg xmlns="http://www.w3.org/2000/svg" xmlns:xlink="http://www.w3.org/1999/xlink" contentScriptType="application/ecmascript" contentStyleType="text/css" height="517px" preserveAspectRatio="none" style="width:1009px;height:517px;background:#FFFFFF;" version="1.1" viewBox="0 0 1009 517" width="1009px" zoomAndPan="magnify"><defs><filter height="300%" id="fk1nrtwpyavv1" width="300%" x="-1" y="-1"><feGaussianBlur result="blurOut" stdDeviation="2.0"/><feColorMatrix in="blurOut" result="blurOut2" type="matrix" values="0 0 0 0 0 0 0 0 0 0 0 0 0 0 0 0 0 0 .4 0"/><feOffset dx="4.0" dy="4.0" in="blurOut2" result="blurOut3"/><feBlend in="SourceGraphic" in2="blurOut3" mode="normal"/></filter></defs><g><!--MD5=[0f38d47a969d072f9948567dab64c60a]
cluster soundzone_client--><polygon fill="#FFFFFF" filter="url(#fk1nrtwpyavv1)" points="717,6,848,6,855,29.6094,858,29.6094,858,106,717,106,717,6" style="stroke:#000000;stroke-width:1.5;"/><line style="stroke:#000000;stroke-width:1.5;" x1="717" x2="855" y1="29.6094" y2="29.6094"/><text fill="#000000" font-family="sans-serif" font-size="14" font-weight="bold" lengthAdjust="spacing" textLength="125" x="721" y="22.5332">soundzone_client</text><!--MD5=[c0030eacce3da9fc2464a91d6ad537bd]
cluster soundzone_server--><polygon fill="#FFFFFF" filter="url(#fk1nrtwpyavv1)" points="544,6,683,6,690,29.6094,693,29.6094,693,106,544,106,544,6" style="stroke:#000000;stroke-width:1.5;"/><line style="stroke:#000000;stroke-width:1.5;" x1="544" x2="690" y1="29.6094" y2="29.6094"/><text fill="#000000" font-family="sans-serif" font-size="14" font-weight="bold" lengthAdjust="spacing" textLength="133" x="548" y="22.5332">soundzone_server</text><!--MD5=[3aeea6675fad3e3ad95ae6d92360bff3]
cluster alsadriver--><polygon fill="#FFFFFF" filter="url(#fk1nrtwpyavv1)" points="874,178,951,178,958,201.6094,992,201.6094,992,278,874,278,874,178" style="stroke:#000000;stroke-width:1.5;"/><line style="stroke:#000000;stroke-width:1.5;" x1="874" x2="958" y1="201.6094" y2="201.6094"/><text fill="#000000" font-family="sans-serif" font-size="14" font-weight="bold" lengthAdjust="spacing" textLength="71" x="878" y="194.5332">alsadriver</text><!--MD5=[6bcd4e2e4339cb18f29cde61031d3191]
cluster SZP--><polygon fill="#FFFFFF" filter="url(#fk1nrtwpyavv1)" points="590,178,622,178,629,201.6094,850,201.6094,850,402,590,402,590,178" style="stroke:#000000;stroke-width:1.5;"/><line style="stroke:#000000;stroke-width:1.5;" x1="590" x2="629" y1="201.6094" y2="201.6094"/><text fill="#000000" font-family="sans-serif" font-size="14" font-weight="bold" lengthAdjust="spacing" textLength="26" x="594" y="194.5332">SZP</text><!--MD5=[46eb245c58a01c5a8fccd0fd398da143]
cluster szs_time_sync--><polygon fill="#FFFFFF" filter="url(#fk1nrtwpyavv1)" points="16,178,123,178,130,201.6094,281,201.6094,281,402,16,402,16,178" style="stroke:#000000;stroke-width:1.5;"/><line style="stroke:#000000;stroke-width:1.5;" x1="16" x2="130" y1="201.6094" y2="201.6094"/><text fill="#000000" font-family="sans-serif" font-size="14" font-weight="bold" lengthAdjust="spacing" textLength="101" x="20" y="194.5332">szs_time_sync</text><!--MD5=[79a26e4ac8bd5100d7277bc5c79d8e58]
cluster DataTransport--><polygon fill="#FFFFFF" filter="url(#fk1nrtwpyavv1)" points="305,302,410,302,417,325.6094,566,325.6094,566,510,305,510,305,302" style="stroke:#000000;stroke-width:1.5;"/><line style="stroke:#000000;stroke-width:1.5;" x1="305" x2="417" y1="325.6094" y2="325.6094"/><text fill="#000000" font-family="sans-serif" font-size="14" font-weight="bold" lengthAdjust="spacing" textLength="99" x="309" y="318.5332">DataTransport</text><!--MD5=[98d75d84b14fef00cd160a6152153064]
class SZS_client--><rect codeLine="92" fill="#FEFECE" filter="url(#fk1nrtwpyavv1)" height="48" id="SZS_client" style="stroke:#A80036;stroke-width:1.5;" width="91" x="742.5" y="42"/><ellipse cx="757.5" cy="58" fill="#ADD1B2" rx="11" ry="11" style="stroke:#A80036;stroke-width:1.0;"/><path d="M760.2656,53.875 Q760.4219,53.6563 760.6094,53.5469 Q760.7969,53.4375 761.0156,53.4375 Q761.3906,53.4375 761.625,53.6953 Q761.8594,53.9531 761.8594,54.5625 L761.8594,56.0156 Q761.8594,56.625 761.625,56.8906 Q761.3906,57.1563 761.0156,57.1563 Q760.6719,57.1563 760.4688,56.9531 Q760.2656,56.7656 760.1563,56.25 Q760.1094,55.8906 759.9219,55.7031 Q759.5938,55.3281 758.9844,55.1094 Q758.375,54.8906 757.75,54.8906 Q756.9844,54.8906 756.3516,55.2188 Q755.7188,55.5469 755.2266,56.2969 Q754.7344,57.0469 754.7344,58.0781 L754.7344,59.1719 Q754.7344,60.4063 755.625,61.2266 Q756.5156,62.0469 758.1094,62.0469 Q759.0469,62.0469 759.7031,61.7969 Q760.0938,61.6406 760.5156,61.2031 Q760.7813,60.9375 760.9297,60.8594 Q761.0781,60.7813 761.2813,60.7813 Q761.6094,60.7813 761.8672,61.0391 Q762.125,61.2969 762.125,61.6406 Q762.125,61.9844 761.7813,62.3906 Q761.2813,62.9688 760.4844,63.2969 Q759.4063,63.75 758.1094,63.75 Q756.5938,63.75 755.3906,63.125 Q754.4063,62.625 753.7188,61.5547 Q753.0313,60.4844 753.0313,59.2031 L753.0313,58.0469 Q753.0313,56.7188 753.6484,55.5703 Q754.2656,54.4219 755.3594,53.8047 Q756.4531,53.1875 757.6875,53.1875 Q758.4219,53.1875 759.0703,53.3516 Q759.7188,53.5156 760.2656,53.875 Z " fill="#000000"/><text fill="#000000" font-family="sans-serif" font-size="12" lengthAdjust="spacing" textLength="59" x="771.5" y="62.9102">SZS_client</text><line style="stroke:#A80036;stroke-width:1.5;" x1="743.5" x2="832.5" y1="74" y2="74"/><line style="stroke:#A80036;stroke-width:1.5;" x1="743.5" x2="832.5" y1="82" y2="82"/><!--MD5=[f1a8ba6ebfc908d8fd9e9fd35d31fb37]
class SZS_server--><rect codeLine="96" fill="#FEFECE" filter="url(#fk1nrtwpyavv1)" height="48" id="SZS_server" style="stroke:#A80036;stroke-width:1.5;" width="96" x="570" y="42"/><ellipse cx="585" cy="58" fill="#ADD1B2" rx="11" ry="11" style="stroke:#A80036;stroke-width:1.0;"/><path d="M587.7656,53.875 Q587.9219,53.6563 588.1094,53.5469 Q588.2969,53.4375 588.5156,53.4375 Q588.8906,53.4375 589.125,53.6953 Q589.3594,53.9531 589.3594,54.5625 L589.3594,56.0156 Q589.3594,56.625 589.125,56.8906 Q588.8906,57.1563 588.5156,57.1563 Q588.1719,57.1563 587.9688,56.9531 Q587.7656,56.7656 587.6563,56.25 Q587.6094,55.8906 587.4219,55.7031 Q587.0938,55.3281 586.4844,55.1094 Q585.875,54.8906 585.25,54.8906 Q584.4844,54.8906 583.8516,55.2188 Q583.2188,55.5469 582.7266,56.2969 Q582.2344,57.0469 582.2344,58.0781 L582.2344,59.1719 Q582.2344,60.4063 583.125,61.2266 Q584.0156,62.0469 585.6094,62.0469 Q586.5469,62.0469 587.2031,61.7969 Q587.5938,61.6406 588.0156,61.2031 Q588.2813,60.9375 588.4297,60.8594 Q588.5781,60.7813 588.7813,60.7813 Q589.1094,60.7813 589.3672,61.0391 Q589.625,61.2969 589.625,61.6406 Q589.625,61.9844 589.2813,62.3906 Q588.7813,62.9688 587.9844,63.2969 Q586.9063,63.75 585.6094,63.75 Q584.0938,63.75 582.8906,63.125 Q581.9063,62.625 581.2188,61.5547 Q580.5313,60.4844 580.5313,59.2031 L580.5313,58.0469 Q580.5313,56.7188 581.1484,55.5703 Q581.7656,54.4219 582.8594,53.8047 Q583.9531,53.1875 585.1875,53.1875 Q585.9219,53.1875 586.5703,53.3516 Q587.2188,53.5156 587.7656,53.875 Z " fill="#000000"/><text fill="#000000" font-family="sans-serif" font-size="12" lengthAdjust="spacing" textLength="64" x="599" y="62.9102">SZS_server</text><line style="stroke:#A80036;stroke-width:1.5;" x1="571" x2="665" y1="74" y2="74"/><line style="stroke:#A80036;stroke-width:1.5;" x1="571" x2="665" y1="82" y2="82"/><!--MD5=[11d09d670e40b3eb54dea3e6d0ca1e98]
class alsadriver--><rect codeLine="102" fill="#FEFECE" filter="url(#fk1nrtwpyavv1)" height="48" id="alsadriver" style="stroke:#A80036;stroke-width:1.5;" width="86" x="890" y="214"/><ellipse cx="905" cy="230" fill="#ADD1B2" rx="11" ry="11" style="stroke:#A80036;stroke-width:1.0;"/><path d="M907.7656,225.875 Q907.9219,225.6563 908.1094,225.5469 Q908.2969,225.4375 908.5156,225.4375 Q908.8906,225.4375 909.125,225.6953 Q909.3594,225.9531 909.3594,226.5625 L909.3594,228.0156 Q909.3594,228.625 909.125,228.8906 Q908.8906,229.1563 908.5156,229.1563 Q908.1719,229.1563 907.9688,228.9531 Q907.7656,228.7656 907.6563,228.25 Q907.6094,227.8906 907.4219,227.7031 Q907.0938,227.3281 906.4844,227.1094 Q905.875,226.8906 905.25,226.8906 Q904.4844,226.8906 903.8516,227.2188 Q903.2188,227.5469 902.7266,228.2969 Q902.2344,229.0469 902.2344,230.0781 L902.2344,231.1719 Q902.2344,232.4063 903.125,233.2266 Q904.0156,234.0469 905.6094,234.0469 Q906.5469,234.0469 907.2031,233.7969 Q907.5938,233.6406 908.0156,233.2031 Q908.2813,232.9375 908.4297,232.8594 Q908.5781,232.7813 908.7813,232.7813 Q909.1094,232.7813 909.3672,233.0391 Q909.625,233.2969 909.625,233.6406 Q909.625,233.9844 909.2813,234.3906 Q908.7813,234.9688 907.9844,235.2969 Q906.9063,235.75 905.6094,235.75 Q904.0938,235.75 902.8906,235.125 Q901.9063,234.625 901.2188,233.5547 Q900.5313,232.4844 900.5313,231.2031 L900.5313,230.0469 Q900.5313,228.7188 901.1484,227.5703 Q901.7656,226.4219 902.8594,225.8047 Q903.9531,225.1875 905.1875,225.1875 Q905.9219,225.1875 906.5703,225.3516 Q907.2188,225.5156 907.7656,225.875 Z " fill="#000000"/><text fill="#000000" font-family="sans-serif" font-size="12" lengthAdjust="spacing" textLength="54" x="919" y="234.9102">alsadriver</text><line style="stroke:#A80036;stroke-width:1.5;" x1="891" x2="975" y1="246" y2="246"/><line style="stroke:#A80036;stroke-width:1.5;" x1="891" x2="975" y1="254" y2="254"/><!--MD5=[358141ac238f2a25e6d946b89ad047f2]
class SZP_master--><rect codeLine="142" fill="#FEFECE" filter="url(#fk1nrtwpyavv1)" height="48" id="SZP_master" style="stroke:#A80036;stroke-width:1.5;" width="101" x="606.5" y="214"/><ellipse cx="621.5" cy="230" fill="#ADD1B2" rx="11" ry="11" style="stroke:#A80036;stroke-width:1.0;"/><path d="M624.2656,225.875 Q624.4219,225.6563 624.6094,225.5469 Q624.7969,225.4375 625.0156,225.4375 Q625.3906,225.4375 625.625,225.6953 Q625.8594,225.9531 625.8594,226.5625 L625.8594,228.0156 Q625.8594,228.625 625.625,228.8906 Q625.3906,229.1563 625.0156,229.1563 Q624.6719,229.1563 624.4688,228.9531 Q624.2656,228.7656 624.1563,228.25 Q624.1094,227.8906 623.9219,227.7031 Q623.5938,227.3281 622.9844,227.1094 Q622.375,226.8906 621.75,226.8906 Q620.9844,226.8906 620.3516,227.2188 Q619.7188,227.5469 619.2266,228.2969 Q618.7344,229.0469 618.7344,230.0781 L618.7344,231.1719 Q618.7344,232.4063 619.625,233.2266 Q620.5156,234.0469 622.1094,234.0469 Q623.0469,234.0469 623.7031,233.7969 Q624.0938,233.6406 624.5156,233.2031 Q624.7813,232.9375 624.9297,232.8594 Q625.0781,232.7813 625.2813,232.7813 Q625.6094,232.7813 625.8672,233.0391 Q626.125,233.2969 626.125,233.6406 Q626.125,233.9844 625.7813,234.3906 Q625.2813,234.9688 624.4844,235.2969 Q623.4063,235.75 622.1094,235.75 Q620.5938,235.75 619.3906,235.125 Q618.4063,234.625 617.7188,233.5547 Q617.0313,232.4844 617.0313,231.2031 L617.0313,230.0469 Q617.0313,228.7188 617.6484,227.5703 Q618.2656,226.4219 619.3594,225.8047 Q620.4531,225.1875 621.6875,225.1875 Q622.4219,225.1875 623.0703,225.3516 Q623.7188,225.5156 624.2656,225.875 Z " fill="#000000"/><text fill="#000000" font-family="sans-serif" font-size="12" lengthAdjust="spacing" textLength="69" x="635.5" y="234.9102">SZP_master</text><line style="stroke:#A80036;stroke-width:1.5;" x1="607.5" x2="706.5" y1="246" y2="246"/><line style="stroke:#A80036;stroke-width:1.5;" x1="607.5" x2="706.5" y1="254" y2="254"/><!--MD5=[1abc3e6dc9fe2c8063ed4793c1552605]
class sound_zone_protocol--><rect codeLine="108" fill="#FEFECE" filter="url(#fk1nrtwpyavv1)" height="48" id="sound_zone_protocol" style="stroke:#A80036;stroke-width:1.5;" width="151" x="644.5" y="338"/><ellipse cx="659.5" cy="354" fill="#ADD1B2" rx="11" ry="11" style="stroke:#A80036;stroke-width:1.0;"/><path d="M662.2656,349.875 Q662.4219,349.6563 662.6094,349.5469 Q662.7969,349.4375 663.0156,349.4375 Q663.3906,349.4375 663.625,349.6953 Q663.8594,349.9531 663.8594,350.5625 L663.8594,352.0156 Q663.8594,352.625 663.625,352.8906 Q663.3906,353.1563 663.0156,353.1563 Q662.6719,353.1563 662.4688,352.9531 Q662.2656,352.7656 662.1563,352.25 Q662.1094,351.8906 661.9219,351.7031 Q661.5938,351.3281 660.9844,351.1094 Q660.375,350.8906 659.75,350.8906 Q658.9844,350.8906 658.3516,351.2188 Q657.7188,351.5469 657.2266,352.2969 Q656.7344,353.0469 656.7344,354.0781 L656.7344,355.1719 Q656.7344,356.4063 657.625,357.2266 Q658.5156,358.0469 660.1094,358.0469 Q661.0469,358.0469 661.7031,357.7969 Q662.0938,357.6406 662.5156,357.2031 Q662.7813,356.9375 662.9297,356.8594 Q663.0781,356.7813 663.2813,356.7813 Q663.6094,356.7813 663.8672,357.0391 Q664.125,357.2969 664.125,357.6406 Q664.125,357.9844 663.7813,358.3906 Q663.2813,358.9688 662.4844,359.2969 Q661.4063,359.75 660.1094,359.75 Q658.5938,359.75 657.3906,359.125 Q656.4063,358.625 655.7188,357.5547 Q655.0313,356.4844 655.0313,355.2031 L655.0313,354.0469 Q655.0313,352.7188 655.6484,351.5703 Q656.2656,350.4219 657.3594,349.8047 Q658.4531,349.1875 659.6875,349.1875 Q660.4219,349.1875 661.0703,349.3516 Q661.7188,349.5156 662.2656,349.875 Z " fill="#000000"/><text fill="#000000" font-family="sans-serif" font-size="12" lengthAdjust="spacing" textLength="119" x="673.5" y="358.9102">sound_zone_protocol</text><line style="stroke:#A80036;stroke-width:1.5;" x1="645.5" x2="794.5" y1="370" y2="370"/><line style="stroke:#A80036;stroke-width:1.5;" x1="645.5" x2="794.5" y1="378" y2="378"/><!--MD5=[f98b2bde8a9293bad7a4d96faca01189]
class SZP_slave--><rect codeLine="144" fill="#FEFECE" filter="url(#fk1nrtwpyavv1)" height="48" id="SZP_slave" style="stroke:#A80036;stroke-width:1.5;" width="91" x="742.5" y="214"/><ellipse cx="757.5" cy="230" fill="#ADD1B2" rx="11" ry="11" style="stroke:#A80036;stroke-width:1.0;"/><path d="M760.2656,225.875 Q760.4219,225.6563 760.6094,225.5469 Q760.7969,225.4375 761.0156,225.4375 Q761.3906,225.4375 761.625,225.6953 Q761.8594,225.9531 761.8594,226.5625 L761.8594,228.0156 Q761.8594,228.625 761.625,228.8906 Q761.3906,229.1563 761.0156,229.1563 Q760.6719,229.1563 760.4688,228.9531 Q760.2656,228.7656 760.1563,228.25 Q760.1094,227.8906 759.9219,227.7031 Q759.5938,227.3281 758.9844,227.1094 Q758.375,226.8906 757.75,226.8906 Q756.9844,226.8906 756.3516,227.2188 Q755.7188,227.5469 755.2266,228.2969 Q754.7344,229.0469 754.7344,230.0781 L754.7344,231.1719 Q754.7344,232.4063 755.625,233.2266 Q756.5156,234.0469 758.1094,234.0469 Q759.0469,234.0469 759.7031,233.7969 Q760.0938,233.6406 760.5156,233.2031 Q760.7813,232.9375 760.9297,232.8594 Q761.0781,232.7813 761.2813,232.7813 Q761.6094,232.7813 761.8672,233.0391 Q762.125,233.2969 762.125,233.6406 Q762.125,233.9844 761.7813,234.3906 Q761.2813,234.9688 760.4844,235.2969 Q759.4063,235.75 758.1094,235.75 Q756.5938,235.75 755.3906,235.125 Q754.4063,234.625 753.7188,233.5547 Q753.0313,232.4844 753.0313,231.2031 L753.0313,230.0469 Q753.0313,228.7188 753.6484,227.5703 Q754.2656,226.4219 755.3594,225.8047 Q756.4531,225.1875 757.6875,225.1875 Q758.4219,225.1875 759.0703,225.3516 Q759.7188,225.5156 760.2656,225.875 Z " fill="#000000"/><text fill="#000000" font-family="sans-serif" font-size="12" lengthAdjust="spacing" textLength="59" x="771.5" y="234.9102">SZP_slave</text><line style="stroke:#A80036;stroke-width:1.5;" x1="743.5" x2="832.5" y1="246" y2="246"/><line style="stroke:#A80036;stroke-width:1.5;" x1="743.5" x2="832.5" y1="254" y2="254"/><!--MD5=[fe0413f8a59d1ce1aa90e9f36490b983]
class Sync_Slave--><rect codeLine="112" fill="#FEFECE" filter="url(#fk1nrtwpyavv1)" height="48" id="Sync_Slave" style="stroke:#A80036;stroke-width:1.5;" width="95" x="169.5" y="214"/><ellipse cx="184.5" cy="230" fill="#ADD1B2" rx="11" ry="11" style="stroke:#A80036;stroke-width:1.0;"/><path d="M187.2656,225.875 Q187.4219,225.6563 187.6094,225.5469 Q187.7969,225.4375 188.0156,225.4375 Q188.3906,225.4375 188.625,225.6953 Q188.8594,225.9531 188.8594,226.5625 L188.8594,228.0156 Q188.8594,228.625 188.625,228.8906 Q188.3906,229.1563 188.0156,229.1563 Q187.6719,229.1563 187.4688,228.9531 Q187.2656,228.7656 187.1563,228.25 Q187.1094,227.8906 186.9219,227.7031 Q186.5938,227.3281 185.9844,227.1094 Q185.375,226.8906 184.75,226.8906 Q183.9844,226.8906 183.3516,227.2188 Q182.7188,227.5469 182.2266,228.2969 Q181.7344,229.0469 181.7344,230.0781 L181.7344,231.1719 Q181.7344,232.4063 182.625,233.2266 Q183.5156,234.0469 185.1094,234.0469 Q186.0469,234.0469 186.7031,233.7969 Q187.0938,233.6406 187.5156,233.2031 Q187.7813,232.9375 187.9297,232.8594 Q188.0781,232.7813 188.2813,232.7813 Q188.6094,232.7813 188.8672,233.0391 Q189.125,233.2969 189.125,233.6406 Q189.125,233.9844 188.7813,234.3906 Q188.2813,234.9688 187.4844,235.2969 Q186.4063,235.75 185.1094,235.75 Q183.5938,235.75 182.3906,235.125 Q181.4063,234.625 180.7188,233.5547 Q180.0313,232.4844 180.0313,231.2031 L180.0313,230.0469 Q180.0313,228.7188 180.6484,227.5703 Q181.2656,226.4219 182.3594,225.8047 Q183.4531,225.1875 184.6875,225.1875 Q185.4219,225.1875 186.0703,225.3516 Q186.7188,225.5156 187.2656,225.875 Z " fill="#000000"/><text fill="#000000" font-family="sans-serif" font-size="12" lengthAdjust="spacing" textLength="63" x="198.5" y="234.9102">Sync_Slave</text><line style="stroke:#A80036;stroke-width:1.5;" x1="170.5" x2="263.5" y1="246" y2="246"/><line style="stroke:#A80036;stroke-width:1.5;" x1="170.5" x2="263.5" y1="254" y2="254"/><!--MD5=[24d123cddd699fe20e6f85e7696493e4]
class Sync_Master--><rect codeLine="113" fill="#FEFECE" filter="url(#fk1nrtwpyavv1)" height="48" id="Sync_Master" style="stroke:#A80036;stroke-width:1.5;" width="102" x="32" y="214"/><ellipse cx="47" cy="230" fill="#ADD1B2" rx="11" ry="11" style="stroke:#A80036;stroke-width:1.0;"/><path d="M49.7656,225.875 Q49.9219,225.6563 50.1094,225.5469 Q50.2969,225.4375 50.5156,225.4375 Q50.8906,225.4375 51.125,225.6953 Q51.3594,225.9531 51.3594,226.5625 L51.3594,228.0156 Q51.3594,228.625 51.125,228.8906 Q50.8906,229.1563 50.5156,229.1563 Q50.1719,229.1563 49.9688,228.9531 Q49.7656,228.7656 49.6563,228.25 Q49.6094,227.8906 49.4219,227.7031 Q49.0938,227.3281 48.4844,227.1094 Q47.875,226.8906 47.25,226.8906 Q46.4844,226.8906 45.8516,227.2188 Q45.2188,227.5469 44.7266,228.2969 Q44.2344,229.0469 44.2344,230.0781 L44.2344,231.1719 Q44.2344,232.4063 45.125,233.2266 Q46.0156,234.0469 47.6094,234.0469 Q48.5469,234.0469 49.2031,233.7969 Q49.5938,233.6406 50.0156,233.2031 Q50.2813,232.9375 50.4297,232.8594 Q50.5781,232.7813 50.7813,232.7813 Q51.1094,232.7813 51.3672,233.0391 Q51.625,233.2969 51.625,233.6406 Q51.625,233.9844 51.2813,234.3906 Q50.7813,234.9688 49.9844,235.2969 Q48.9063,235.75 47.6094,235.75 Q46.0938,235.75 44.8906,235.125 Q43.9063,234.625 43.2188,233.5547 Q42.5313,232.4844 42.5313,231.2031 L42.5313,230.0469 Q42.5313,228.7188 43.1484,227.5703 Q43.7656,226.4219 44.8594,225.8047 Q45.9531,225.1875 47.1875,225.1875 Q47.9219,225.1875 48.5703,225.3516 Q49.2188,225.5156 49.7656,225.875 Z " fill="#000000"/><text fill="#000000" font-family="sans-serif" font-size="12" lengthAdjust="spacing" textLength="70" x="61" y="234.9102">Sync_Master</text><line style="stroke:#A80036;stroke-width:1.5;" x1="33" x2="133" y1="246" y2="246"/><line style="stroke:#A80036;stroke-width:1.5;" x1="33" x2="133" y1="254" y2="254"/><!--MD5=[2285bc677c4c71f49da698e53a3fbe44]
class TimeKeeper--><rect codeLine="114" fill="#FEFECE" filter="url(#fk1nrtwpyavv1)" height="48" id="TimeKeeper" style="stroke:#A80036;stroke-width:1.5;" width="100" x="99" y="338"/><ellipse cx="114" cy="354" fill="#ADD1B2" rx="11" ry="11" style="stroke:#A80036;stroke-width:1.0;"/><path d="M116.7656,349.875 Q116.9219,349.6563 117.1094,349.5469 Q117.2969,349.4375 117.5156,349.4375 Q117.8906,349.4375 118.125,349.6953 Q118.3594,349.9531 118.3594,350.5625 L118.3594,352.0156 Q118.3594,352.625 118.125,352.8906 Q117.8906,353.1563 117.5156,353.1563 Q117.1719,353.1563 116.9688,352.9531 Q116.7656,352.7656 116.6563,352.25 Q116.6094,351.8906 116.4219,351.7031 Q116.0938,351.3281 115.4844,351.1094 Q114.875,350.8906 114.25,350.8906 Q113.4844,350.8906 112.8516,351.2188 Q112.2188,351.5469 111.7266,352.2969 Q111.2344,353.0469 111.2344,354.0781 L111.2344,355.1719 Q111.2344,356.4063 112.125,357.2266 Q113.0156,358.0469 114.6094,358.0469 Q115.5469,358.0469 116.2031,357.7969 Q116.5938,357.6406 117.0156,357.2031 Q117.2813,356.9375 117.4297,356.8594 Q117.5781,356.7813 117.7813,356.7813 Q118.1094,356.7813 118.3672,357.0391 Q118.625,357.2969 118.625,357.6406 Q118.625,357.9844 118.2813,358.3906 Q117.7813,358.9688 116.9844,359.2969 Q115.9063,359.75 114.6094,359.75 Q113.0938,359.75 111.8906,359.125 Q110.9063,358.625 110.2188,357.5547 Q109.5313,356.4844 109.5313,355.2031 L109.5313,354.0469 Q109.5313,352.7188 110.1484,351.5703 Q110.7656,350.4219 111.8594,349.8047 Q112.9531,349.1875 114.1875,349.1875 Q114.9219,349.1875 115.5703,349.3516 Q116.2188,349.5156 116.7656,349.875 Z " fill="#000000"/><text fill="#000000" font-family="sans-serif" font-size="12" lengthAdjust="spacing" textLength="68" x="128" y="358.9102">TimeKeeper</text><line style="stroke:#A80036;stroke-width:1.5;" x1="100" x2="198" y1="370" y2="370"/><line style="stroke:#A80036;stroke-width:1.5;" x1="100" x2="198" y1="378" y2="378"/><!--MD5=[33bda69caa66fb7c99eaf82bc543b74e]
class UDP_server--><rect codeLine="136" fill="#FEFECE" filter="url(#fk1nrtwpyavv1)" height="48" id="UDP_server" style="stroke:#A80036;stroke-width:1.5;" width="99" x="450.5" y="338"/><ellipse cx="465.5" cy="354" fill="#ADD1B2" rx="11" ry="11" style="stroke:#A80036;stroke-width:1.0;"/><path d="M468.2656,349.875 Q468.4219,349.6563 468.6094,349.5469 Q468.7969,349.4375 469.0156,349.4375 Q469.3906,349.4375 469.625,349.6953 Q469.8594,349.9531 469.8594,350.5625 L469.8594,352.0156 Q469.8594,352.625 469.625,352.8906 Q469.3906,353.1563 469.0156,353.1563 Q468.6719,353.1563 468.4688,352.9531 Q468.2656,352.7656 468.1563,352.25 Q468.1094,351.8906 467.9219,351.7031 Q467.5938,351.3281 466.9844,351.1094 Q466.375,350.8906 465.75,350.8906 Q464.9844,350.8906 464.3516,351.2188 Q463.7188,351.5469 463.2266,352.2969 Q462.7344,353.0469 462.7344,354.0781 L462.7344,355.1719 Q462.7344,356.4063 463.625,357.2266 Q464.5156,358.0469 466.1094,358.0469 Q467.0469,358.0469 467.7031,357.7969 Q468.0938,357.6406 468.5156,357.2031 Q468.7813,356.9375 468.9297,356.8594 Q469.0781,356.7813 469.2813,356.7813 Q469.6094,356.7813 469.8672,357.0391 Q470.125,357.2969 470.125,357.6406 Q470.125,357.9844 469.7813,358.3906 Q469.2813,358.9688 468.4844,359.2969 Q467.4063,359.75 466.1094,359.75 Q464.5938,359.75 463.3906,359.125 Q462.4063,358.625 461.7188,357.5547 Q461.0313,356.4844 461.0313,355.2031 L461.0313,354.0469 Q461.0313,352.7188 461.6484,351.5703 Q462.2656,350.4219 463.3594,349.8047 Q464.4531,349.1875 465.6875,349.1875 Q466.4219,349.1875 467.0703,349.3516 Q467.7188,349.5156 468.2656,349.875 Z " fill="#000000"/><text fill="#000000" font-family="sans-serif" font-size="12" lengthAdjust="spacing" textLength="67" x="479.5" y="358.9102">UDP_server</text><line style="stroke:#A80036;stroke-width:1.5;" x1="451.5" x2="548.5" y1="370" y2="370"/><line style="stroke:#A80036;stroke-width:1.5;" x1="451.5" x2="548.5" y1="378" y2="378"/><!--MD5=[20934f0f42dab29883fe29cb589f3eaa]
class DataTransport--><rect codeLine="140" fill="#FEFECE" filter="url(#fk1nrtwpyavv1)" height="48" id="DataTransport" style="stroke:#A80036;stroke-width:1.5;" width="111" x="379.5" y="446"/><ellipse cx="394.5" cy="462" fill="#ADD1B2" rx="11" ry="11" style="stroke:#A80036;stroke-width:1.0;"/><path d="M397.2656,457.875 Q397.4219,457.6563 397.6094,457.5469 Q397.7969,457.4375 398.0156,457.4375 Q398.3906,457.4375 398.625,457.6953 Q398.8594,457.9531 398.8594,458.5625 L398.8594,460.0156 Q398.8594,460.625 398.625,460.8906 Q398.3906,461.1563 398.0156,461.1563 Q397.6719,461.1563 397.4688,460.9531 Q397.2656,460.7656 397.1563,460.25 Q397.1094,459.8906 396.9219,459.7031 Q396.5938,459.3281 395.9844,459.1094 Q395.375,458.8906 394.75,458.8906 Q393.9844,458.8906 393.3516,459.2188 Q392.7188,459.5469 392.2266,460.2969 Q391.7344,461.0469 391.7344,462.0781 L391.7344,463.1719 Q391.7344,464.4063 392.625,465.2266 Q393.5156,466.0469 395.1094,466.0469 Q396.0469,466.0469 396.7031,465.7969 Q397.0938,465.6406 397.5156,465.2031 Q397.7813,464.9375 397.9297,464.8594 Q398.0781,464.7813 398.2813,464.7813 Q398.6094,464.7813 398.8672,465.0391 Q399.125,465.2969 399.125,465.6406 Q399.125,465.9844 398.7813,466.3906 Q398.2813,466.9688 397.4844,467.2969 Q396.4063,467.75 395.1094,467.75 Q393.5938,467.75 392.3906,467.125 Q391.4063,466.625 390.7188,465.5547 Q390.0313,464.4844 390.0313,463.2031 L390.0313,462.0469 Q390.0313,460.7188 390.6484,459.5703 Q391.2656,458.4219 392.3594,457.8047 Q393.4531,457.1875 394.6875,457.1875 Q395.4219,457.1875 396.0703,457.3516 Q396.7188,457.5156 397.2656,457.875 Z " fill="#000000"/><text fill="#000000" font-family="sans-serif" font-size="12" lengthAdjust="spacing" textLength="79" x="408.5" y="466.9102">DataTransport</text><line style="stroke:#A80036;stroke-width:1.5;" x1="380.5" x2="489.5" y1="478" y2="478"/><line style="stroke:#A80036;stroke-width:1.5;" x1="380.5" x2="489.5" y1="486" y2="486"/><!--MD5=[d1515d178fad2bf0f45f27ac1a5c0712]
class UDP_client--><rect codeLine="138" fill="#FEFECE" filter="url(#fk1nrtwpyavv1)" height="48" id="UDP_client" style="stroke:#A80036;stroke-width:1.5;" width="94" x="321" y="338"/><ellipse cx="336" cy="354" fill="#ADD1B2" rx="11" ry="11" style="stroke:#A80036;stroke-width:1.0;"/><path d="M338.7656,349.875 Q338.9219,349.6563 339.1094,349.5469 Q339.2969,349.4375 339.5156,349.4375 Q339.8906,349.4375 340.125,349.6953 Q340.3594,349.9531 340.3594,350.5625 L340.3594,352.0156 Q340.3594,352.625 340.125,352.8906 Q339.8906,353.1563 339.5156,353.1563 Q339.1719,353.1563 338.9688,352.9531 Q338.7656,352.7656 338.6563,352.25 Q338.6094,351.8906 338.4219,351.7031 Q338.0938,351.3281 337.4844,351.1094 Q336.875,350.8906 336.25,350.8906 Q335.4844,350.8906 334.8516,351.2188 Q334.2188,351.5469 333.7266,352.2969 Q333.2344,353.0469 333.2344,354.0781 L333.2344,355.1719 Q333.2344,356.4063 334.125,357.2266 Q335.0156,358.0469 336.6094,358.0469 Q337.5469,358.0469 338.2031,357.7969 Q338.5938,357.6406 339.0156,357.2031 Q339.2813,356.9375 339.4297,356.8594 Q339.5781,356.7813 339.7813,356.7813 Q340.1094,356.7813 340.3672,357.0391 Q340.625,357.2969 340.625,357.6406 Q340.625,357.9844 340.2813,358.3906 Q339.7813,358.9688 338.9844,359.2969 Q337.9063,359.75 336.6094,359.75 Q335.0938,359.75 333.8906,359.125 Q332.9063,358.625 332.2188,357.5547 Q331.5313,356.4844 331.5313,355.2031 L331.5313,354.0469 Q331.5313,352.7188 332.1484,351.5703 Q332.7656,350.4219 333.8594,349.8047 Q334.9531,349.1875 336.1875,349.1875 Q336.9219,349.1875 337.5703,349.3516 Q338.2188,349.5156 338.7656,349.875 Z " fill="#000000"/><text fill="#000000" font-family="sans-serif" font-size="12" lengthAdjust="spacing" textLength="62" x="350" y="358.9102">UDP_client</text><line style="stroke:#A80036;stroke-width:1.5;" x1="322" x2="414" y1="370" y2="370"/><line style="stroke:#A80036;stroke-width:1.5;" x1="322" x2="414" y1="378" y2="378"/><!--MD5=[819560a7ae37cec3121a30417fb867bb]
link SZP_master to sound_zone_protocol--><path codeLine="106" d="M669,262.23 C678.33,280.3 691.41,305.64 702,326.13 " fill="none" id="SZP_master-to-sound_zone_protocol" style="stroke:#A80036;stroke-width:1.0;"/><polygon fill="#FFFFFF" points="708.05,337.85,708.8459,330.6829,702.5362,327.1918,701.7404,334.3588,708.05,337.85" style="stroke:#A80036;stroke-width:1.0;"/><!--MD5=[8624d67ac5351fc796ea96f52dbebcea]
link SZP_slave to sound_zone_protocol--><path codeLine="107" d="M775.05,262.23 C764.94,280.38 750.72,305.88 739.27,326.42 " fill="none" id="SZP_slave-to-sound_zone_protocol" style="stroke:#A80036;stroke-width:1.0;"/><polygon fill="#FFFFFF" points="732.9,337.85,739.3147,334.5558,738.7411,327.3676,732.3264,330.6617,732.9,337.85" style="stroke:#A80036;stroke-width:1.0;"/><!--MD5=[c73236e6e62923f8eb0c3e9375e2ee62]
link UDP_server to DataTransport--><path codeLine="118" d="M485.9,386 C477.27,400.07 466.06,418.35 456.36,434.17 " fill="none" id="UDP_server-to-DataTransport" style="stroke:#A80036;stroke-width:1.0;"/><polygon fill="#FFFFFF" points="449.3,445.68,455.844,442.6509,455.5649,435.4452,449.0208,438.4743,449.3,445.68" style="stroke:#A80036;stroke-width:1.0;"/><!--MD5=[5473576d6bb9d2cd5d0a254ee17285b3]
link UDP_client to DataTransport--><path codeLine="119" d="M382.54,386 C391.52,400.21 403.21,418.71 413.28,434.63 " fill="none" id="UDP_client-to-DataTransport" style="stroke:#A80036;stroke-width:1.0;"/><polygon fill="#FFFFFF" points="420.26,445.68,420.4359,438.471,413.8491,435.536,413.6732,442.745,420.26,445.68" style="stroke:#A80036;stroke-width:1.0;"/><!--MD5=[cdc8a5dd759ce40a7134fc3686352dcd]
link SZS_client to SZP_slave--><path codeLine="123" d="M788,90.28 C788,118.77 788,167.32 788,200.72 " fill="none" id="SZS_client-to-SZP_slave" style="stroke:#A80036;stroke-width:1.0;"/><polygon fill="#A80036" points="788,214,792,208,788,202,784,208,788,214" style="stroke:#A80036;stroke-width:1.0;"/><!--MD5=[c93d180a2d47f2f1755a0a135a2e48e3]
link SZS_server to SZP_master--><path codeLine="124" d="M623.34,90.28 C629.91,118.89 641.11,167.75 648.78,201.16 " fill="none" id="SZS_server-to-SZP_master" style="stroke:#A80036;stroke-width:1.0;"/><polygon fill="#A80036" points="651.72,214,654.2734,207.2561,649.0304,202.3053,646.4769,209.0492,651.72,214" style="stroke:#A80036;stroke-width:1.0;"/><!--MD5=[2e2adf2ea465e53ceaec2972fdf9281b]
link SZS_client to Sync_Slave--><path codeLine="125" d="M761.74,90.14 C741.45,106.56 711.88,127.48 682,138 C643.29,151.63 630.5,139.34 590,146 C478.16,164.39 350.33,198.5 277.09,219.33 " fill="none" id="SZS_client-to-Sync_Slave" style="stroke:#A80036;stroke-width:1.0;"/><polygon fill="#A80036" points="264.51,222.93,271.3803,225.1205,276.0448,219.6212,269.1745,217.4306,264.51,222.93" style="stroke:#A80036;stroke-width:1.0;"/><!--MD5=[ba73a3ea1e447c464b932ba9270b7528]
link SZS_server to Sync_Master--><path codeLine="126" d="M569.76,70.68 C465.29,79.35 221.91,103.62 152,146 C129.85,159.43 112.34,182.84 100.5,202.56 " fill="none" id="SZS_server-to-Sync_Master" style="stroke:#A80036;stroke-width:1.0;"/><polygon fill="#A80036" points="94.03,213.94,100.4736,210.7028,99.9638,203.5097,93.5201,206.7469,94.03,213.94" style="stroke:#A80036;stroke-width:1.0;"/><!--MD5=[c8890c178e7a625d697c028a2571e2e5]
link SZS_client to alsadriver--><path codeLine="127" d="M807.86,90.28 C832.91,119.66 876.17,170.37 904.68,203.8 " fill="none" id="SZS_client-to-alsadriver" style="stroke:#A80036;stroke-width:1.0;"/><polygon fill="#A80036" points="913.38,214,912.5362,206.8384,905.6009,204.8629,906.4448,212.0245,913.38,214" style="stroke:#A80036;stroke-width:1.0;"/><!--MD5=[d63e008edd9545a95f94b6841a9578f6]
link SZP_master to UDP_client--><path codeLine="128" d="M606.43,243.34 C558.97,249.21 487.36,262.83 433,294 C418.06,302.57 404.33,315.56 393.37,327.84 " fill="none" id="SZP_master-to-UDP_client" style="stroke:#A80036;stroke-width:1.0;"/><polygon fill="#A80036" points="384.85,337.86,391.7822,335.8737,392.6149,328.7109,385.6827,330.6971,384.85,337.86" style="stroke:#A80036;stroke-width:1.0;"/><!--MD5=[db18abf83db8f090ed0662d17841ad27]
link SZP_slave to UDP_server--><path codeLine="129" d="M763.96,262.15 C752.96,271.28 739.23,280.81 725,286 C668.54,306.61 646.47,273.41 590,294 C568.98,301.66 548.71,315.93 532.74,329.34 " fill="none" id="SZP_slave-to-UDP_server" style="stroke:#A80036;stroke-width:1.0;"/><polygon fill="#A80036" points="522.91,337.95,530.059,337.0056,531.9368,330.0433,524.7878,330.9877,522.91,337.95" style="stroke:#A80036;stroke-width:1.0;"/><!--MD5=[48acfc678aa9d2c02c1ad1eeef7be786]
link Sync_Slave to TimeKeeper--><path codeLine="130" d="M204.05,262.23 C193.94,280.38 179.72,305.88 168.27,326.42 " fill="none" id="Sync_Slave-to-TimeKeeper" style="stroke:#A80036;stroke-width:1.0;"/><polygon fill="#A80036" points="161.9,337.85,168.3147,334.5558,167.7411,327.3676,161.3264,330.6617,161.9,337.85" style="stroke:#A80036;stroke-width:1.0;"/><!--MD5=[c72b85cae8a817ad035e795fcee80f00]
link Sync_Master to TimeKeeper--><path codeLine="131" d="M95.57,262.23 C105.34,280.3 119.05,305.64 130.14,326.13 " fill="none" id="Sync_Master-to-TimeKeeper" style="stroke:#A80036;stroke-width:1.0;"/><polygon fill="#A80036" points="136.48,337.85,137.1418,330.6693,130.768,327.2967,130.1062,334.4773,136.48,337.85" style="stroke:#A80036;stroke-width:1.0;"/><!--MD5=[485c6350bd6aeed32c6b00e392632a25]
link Sync_Slave to UDP_server--><path codeLine="132" d="M264.8,243.77 C310.48,249.99 380.03,263.86 433,294 C448.19,302.64 462.31,315.65 473.64,327.92 " fill="none" id="Sync_Slave-to-UDP_server" style="stroke:#A80036;stroke-width:1.0;"/><polygon fill="#A80036" points="482.45,337.93,481.4893,330.7832,474.5228,328.9212,475.4834,336.068,482.45,337.93" style="stroke:#A80036;stroke-width:1.0;"/><!--MD5=[88b0888601f2024adfe7de4c8c189b93]
link Sync_Master to UDP_client--><path codeLine="133" d="M109.68,262.14 C121.79,271.26 136.78,280.79 152,286 C206.34,304.61 227.22,273.81 281,294 C301.3,301.62 320.74,315.7 336.07,328.99 " fill="none" id="Sync_Master-to-UDP_client" style="stroke:#A80036;stroke-width:1.0;"/><polygon fill="#A80036" points="345.99,337.97,344.2261,330.978,337.0934,329.917,338.8574,336.909,345.99,337.97" style="stroke:#A80036;stroke-width:1.0;"/><!--MD5=[5f31bc456476ebc39f0ff51862a66b98]
@startuml class_diagram

together {
    package soundzone_client{
        class SZS_client{}
    }

    package soundzone_server {
        class SZS_server{}
    }
}

together {
    package alsadriver {
        class alsadriver{}
    }

    package SZP {
        SZP_master - -o sound_zone_protocol
        SZP_slave - -o sound_zone_protocol
        class sound_zone_protocol {}
    }

    package szs_time_sync {
        class Sync_Slave {}
        class Sync_Master {}
        class TimeKeeper {}
    }

    package DataTransport{
        UDP_server - -o DataTransport
        UDP_client - -o DataTransport
    }
}

SZS_client - -* SZP_slave
SZS_server - -* SZP_master
SZS_client - -* Sync_Slave
SZS_server - -* Sync_Master
SZS_client - -* alsadriver
SZP_master - -* UDP_client
SZP_slave - -* UDP_server
Sync_Slave - -* TimeKeeper
Sync_Master - -* TimeKeeper
Sync_Slave - -* UDP_server
Sync_Master - -* UDP_client


class UDP_server {}

class UDP_client {}

class DataTransport {}

class SZP_master{}

class SZP_slave{}

@enduml

PlantUML version 1.2021.10(Mon Aug 30 15:43:48 CEST 2021)
(GPL source distribution)
Java Runtime: Java(TM) SE Runtime Environment
JVM: Java HotSpot(TM) 64-Bit Server VM
Default Encoding: Cp1252
Language: en
Country: US
--></g></svg>