<?xml version="1.0" encoding="UTF-8" standalone="no"?><svg xmlns="http://www.w3.org/2000/svg" xmlns:xlink="http://www.w3.org/1999/xlink" contentScriptType="application/ecmascript" contentStyleType="text/css" height="1233px" preserveAspectRatio="none" style="width:431px;height:1233px;background:#FFFFFF;" version="1.1" viewBox="0 0 431 1233" width="431px" zoomAndPan="magnify"><defs><filter height="300%" id="f1rfsasc8a18oq" width="300%" x="-1" y="-1"><feGaussianBlur result="blurOut" stdDeviation="2.0"/><feColorMatrix in="blurOut" result="blurOut2" type="matrix" values="0 0 0 0 0 0 0 0 0 0 0 0 0 0 0 0 0 0 .4 0"/><feOffset dx="4.0" dy="4.0" in="blurOut2" result="blurOut3"/><feBlend in="SourceGraphic" in2="blurOut3" mode="normal"/></filter></defs><g><rect fill="#DDDDDD" height="1221.6563" style="stroke:#A80036;stroke-width:1.0;" width="72" x="353.5" y="6"/><rect fill="#FFFFFF" filter="url(#f1rfsasc8a18oq)" height="175.4063" style="stroke:#000000;stroke-width:2.0;" width="315.5" x="8" y="106.6094"/><rect fill="#FFFFFF" filter="url(#f1rfsasc8a18oq)" height="391.8672" style="stroke:#000000;stroke-width:2.0;" width="281.5" x="67" y="300.0156"/><rect fill="#FFFFFF" filter="url(#f1rfsasc8a18oq)" height="149.7578" style="stroke:#000000;stroke-width:2.0;" width="168" x="86" y="332.3672"/><rect fill="#FFFFFF" filter="url(#f1rfsasc8a18oq)" height="149.7578" style="stroke:#000000;stroke-width:2.0;" width="237.5" x="86" y="528.125"/><rect fill="#FFFFFF" filter="url(#f1rfsasc8a18oq)" height="326.4609" style="stroke:#000000;stroke-width:2.0;" width="281.5" x="67" y="709.8828"/><rect fill="#FFFFFF" filter="url(#f1rfsasc8a18oq)" height="117.0547" style="stroke:#000000;stroke-width:2.0;" width="168" x="86" y="742.2344"/><rect fill="#FFFFFF" filter="url(#f1rfsasc8a18oq)" height="117.0547" style="stroke:#000000;stroke-width:2.0;" width="237.5" x="86" y="905.2891"/><rect fill="#FFFFFF" filter="url(#f1rfsasc8a18oq)" height="58.7031" style="stroke:#000000;stroke-width:2.0;" width="183.5" x="222" y="1054.3438"/><line style="stroke:#A80036;stroke-width:1.0;" x1="24" x2="24" y1="94.6094" y2="165.3125"/><line style="stroke:#A80036;stroke-width:1.0;stroke-dasharray:1.0,4.0;" x1="24" x2="24" y1="165.3125" y2="193.3125"/><line style="stroke:#A80036;stroke-width:1.0;" x1="24" x2="24" y1="193.3125" y2="223.6641"/><line style="stroke:#A80036;stroke-width:1.0;stroke-dasharray:1.0,4.0;" x1="24" x2="24" y1="223.6641" y2="251.6641"/><line style="stroke:#A80036;stroke-width:1.0;" x1="24" x2="24" y1="251.6641" y2="496.125"/><line style="stroke:#A80036;stroke-width:1.0;stroke-dasharray:1.0,4.0;" x1="24" x2="24" y1="496.125" y2="524.125"/><line style="stroke:#A80036;stroke-width:1.0;" x1="24" x2="24" y1="524.125" y2="800.9375"/><line style="stroke:#A80036;stroke-width:1.0;stroke-dasharray:1.0,4.0;" x1="24" x2="24" y1="800.9375" y2="828.9375"/><line style="stroke:#A80036;stroke-width:1.0;" x1="24" x2="24" y1="828.9375" y2="873.2891"/><line style="stroke:#A80036;stroke-width:1.0;stroke-dasharray:1.0,4.0;" x1="24" x2="24" y1="873.2891" y2="901.2891"/><line style="stroke:#A80036;stroke-width:1.0;" x1="24" x2="24" y1="901.2891" y2="963.9922"/><line style="stroke:#A80036;stroke-width:1.0;stroke-dasharray:1.0,4.0;" x1="24" x2="24" y1="963.9922" y2="991.9922"/><line style="stroke:#A80036;stroke-width:1.0;" x1="24" x2="24" y1="991.9922" y2="1137.0469"/><line style="stroke:#A80036;stroke-width:1.0;" x1="102" x2="102" y1="94.6094" y2="165.3125"/><line style="stroke:#A80036;stroke-width:1.0;stroke-dasharray:1.0,4.0;" x1="102" x2="102" y1="165.3125" y2="193.3125"/><line style="stroke:#A80036;stroke-width:1.0;" x1="102" x2="102" y1="193.3125" y2="223.6641"/><line style="stroke:#A80036;stroke-width:1.0;stroke-dasharray:1.0,4.0;" x1="102" x2="102" y1="223.6641" y2="251.6641"/><line style="stroke:#A80036;stroke-width:1.0;" x1="102" x2="102" y1="251.6641" y2="496.125"/><line style="stroke:#A80036;stroke-width:1.0;stroke-dasharray:1.0,4.0;" x1="102" x2="102" y1="496.125" y2="524.125"/><line style="stroke:#A80036;stroke-width:1.0;" x1="102" x2="102" y1="524.125" y2="800.9375"/><line style="stroke:#A80036;stroke-width:1.0;stroke-dasharray:1.0,4.0;" x1="102" x2="102" y1="800.9375" y2="828.9375"/><line style="stroke:#A80036;stroke-width:1.0;" x1="102" x2="102" y1="828.9375" y2="873.2891"/><line style="stroke:#A80036;stroke-width:1.0;stroke-dasharray:1.0,4.0;" x1="102" x2="102" y1="873.2891" y2="901.2891"/><line style="stroke:#A80036;stroke-width:1.0;" x1="102" x2="102" y1="901.2891" y2="963.9922"/><line style="stroke:#A80036;stroke-width:1.0;stroke-dasharray:1.0,4.0;" x1="102" x2="102" y1="963.9922" y2="991.9922"/><line style="stroke:#A80036;stroke-width:1.0;" x1="102" x2="102" y1="991.9922" y2="1137.0469"/><line style="stroke:#A80036;stroke-width:1.0;" x1="238" x2="238" y1="94.6094" y2="165.3125"/><line style="stroke:#A80036;stroke-width:1.0;stroke-dasharray:1.0,4.0;" x1="238" x2="238" y1="165.3125" y2="193.3125"/><line style="stroke:#A80036;stroke-width:1.0;" x1="238" x2="238" y1="193.3125" y2="223.6641"/><line style="stroke:#A80036;stroke-width:1.0;stroke-dasharray:1.0,4.0;" x1="238" x2="238" y1="223.6641" y2="251.6641"/><line style="stroke:#A80036;stroke-width:1.0;" x1="238" x2="238" y1="251.6641" y2="496.125"/><line style="stroke:#A80036;stroke-width:1.0;stroke-dasharray:1.0,4.0;" x1="238" x2="238" y1="496.125" y2="524.125"/><line style="stroke:#A80036;stroke-width:1.0;" x1="238" x2="238" y1="524.125" y2="800.9375"/><line style="stroke:#A80036;stroke-width:1.0;stroke-dasharray:1.0,4.0;" x1="238" x2="238" y1="800.9375" y2="828.9375"/><line style="stroke:#A80036;stroke-width:1.0;" x1="238" x2="238" y1="828.9375" y2="873.2891"/><line style="stroke:#A80036;stroke-width:1.0;stroke-dasharray:1.0,4.0;" x1="238" x2="238" y1="873.2891" y2="901.2891"/><line style="stroke:#A80036;stroke-width:1.0;" x1="238" x2="238" y1="901.2891" y2="963.9922"/><line style="stroke:#A80036;stroke-width:1.0;stroke-dasharray:1.0,4.0;" x1="238" x2="238" y1="963.9922" y2="991.9922"/><line style="stroke:#A80036;stroke-width:1.0;" x1="238" x2="238" y1="991.9922" y2="1137.0469"/><line style="stroke:#A80036;stroke-width:1.0;" x1="307.5" x2="307.5" y1="94.6094" y2="165.3125"/><line style="stroke:#A80036;stroke-width:1.0;stroke-dasharray:1.0,4.0;" x1="307.5" x2="307.5" y1="165.3125" y2="193.3125"/><line style="stroke:#A80036;stroke-width:1.0;" x1="307.5" x2="307.5" y1="193.3125" y2="223.6641"/><line style="stroke:#A80036;stroke-width:1.0;stroke-dasharray:1.0,4.0;" x1="307.5" x2="307.5" y1="223.6641" y2="251.6641"/><line style="stroke:#A80036;stroke-width:1.0;" x1="307.5" x2="307.5" y1="251.6641" y2="496.125"/><line style="stroke:#A80036;stroke-width:1.0;stroke-dasharray:1.0,4.0;" x1="307.5" x2="307.5" y1="496.125" y2="524.125"/><line style="stroke:#A80036;stroke-width:1.0;" x1="307.5" x2="307.5" y1="524.125" y2="800.9375"/><line style="stroke:#A80036;stroke-width:1.0;stroke-dasharray:1.0,4.0;" x1="307.5" x2="307.5" y1="800.9375" y2="828.9375"/><line style="stroke:#A80036;stroke-width:1.0;" x1="307.5" x2="307.5" y1="828.9375" y2="873.2891"/><line style="stroke:#A80036;stroke-width:1.0;stroke-dasharray:1.0,4.0;" x1="307.5" x2="307.5" y1="873.2891" y2="901.2891"/><line style="stroke:#A80036;stroke-width:1.0;" x1="307.5" x2="307.5" y1="901.2891" y2="963.9922"/><line style="stroke:#A80036;stroke-width:1.0;stroke-dasharray:1.0,4.0;" x1="307.5" x2="307.5" y1="963.9922" y2="991.9922"/><line style="stroke:#A80036;stroke-width:1.0;" x1="307.5" x2="307.5" y1="991.9922" y2="1137.0469"/><line style="stroke:#A80036;stroke-width:1.0;" x1="389.5" x2="389.5" y1="94.6094" y2="165.3125"/><line style="stroke:#A80036;stroke-width:1.0;stroke-dasharray:1.0,4.0;" x1="389.5" x2="389.5" y1="165.3125" y2="193.3125"/><line style="stroke:#A80036;stroke-width:1.0;" x1="389.5" x2="389.5" y1="193.3125" y2="223.6641"/><line style="stroke:#A80036;stroke-width:1.0;stroke-dasharray:1.0,4.0;" x1="389.5" x2="389.5" y1="223.6641" y2="251.6641"/><line style="stroke:#A80036;stroke-width:1.0;" x1="389.5" x2="389.5" y1="251.6641" y2="496.125"/><line style="stroke:#A80036;stroke-width:1.0;stroke-dasharray:1.0,4.0;" x1="389.5" x2="389.5" y1="496.125" y2="524.125"/><line style="stroke:#A80036;stroke-width:1.0;" x1="389.5" x2="389.5" y1="524.125" y2="800.9375"/><line style="stroke:#A80036;stroke-width:1.0;stroke-dasharray:1.0,4.0;" x1="389.5" x2="389.5" y1="800.9375" y2="828.9375"/><line style="stroke:#A80036;stroke-width:1.0;" x1="389.5" x2="389.5" y1="828.9375" y2="873.2891"/><line style="stroke:#A80036;stroke-width:1.0;stroke-dasharray:1.0,4.0;" x1="389.5" x2="389.5" y1="873.2891" y2="901.2891"/><line style="stroke:#A80036;stroke-width:1.0;" x1="389.5" x2="389.5" y1="901.2891" y2="963.9922"/><line style="stroke:#A80036;stroke-width:1.0;stroke-dasharray:1.0,4.0;" x1="389.5" x2="389.5" y1="963.9922" y2="991.9922"/><line style="stroke:#A80036;stroke-width:1.0;" x1="389.5" x2="389.5" y1="991.9922" y2="1137.0469"/><text fill="#000000" font-family="sans-serif" font-size="14" lengthAdjust="spacing" textLength="28" x="7" y="91.5332">user</text><ellipse cx="24" cy="20" fill="#FEFECE" filter="url(#f1rfsasc8a18oq)" rx="8" ry="8" style="stroke:#A80036;stroke-width:2.0;"/><path d="M24,28 L24,55 M11,36 L37,36 M24,55 L11,70 M24,55 L37,70 " fill="none" filter="url(#f1rfsasc8a18oq)" style="stroke:#A80036;stroke-width:2.0;"/><rect fill="#FEFECE" filter="url(#f1rfsasc8a18oq)" height="31.6094" style="stroke:#A80036;stroke-width:1.5;" width="54" x="73" y="58"/><text fill="#000000" font-family="sans-serif" font-size="14" lengthAdjust="spacing" textLength="40" x="80" y="79.5332">server</text><rect fill="#FEFECE" filter="url(#f1rfsasc8a18oq)" height="31.6094" style="stroke:#A80036;stroke-width:1.5;" width="55" x="208.5" y="58"/><text fill="#000000" font-family="sans-serif" font-size="14" lengthAdjust="spacing" textLength="41" x="215.5" y="79.5332">client1</text><rect fill="#FEFECE" filter="url(#f1rfsasc8a18oq)" height="31.6094" style="stroke:#A80036;stroke-width:1.5;" width="56" x="277.5" y="58"/><text fill="#000000" font-family="sans-serif" font-size="14" lengthAdjust="spacing" textLength="42" x="284.5" y="79.5332">clientN</text><text fill="#000000" font-family="sans-serif" font-size="14" lengthAdjust="spacing" textLength="58" x="357.5" y="91.5332">speakers</text><path d="M369,49 L369,73 M369,61 L386,61 " fill="none" filter="url(#f1rfsasc8a18oq)" style="stroke:#A80036;stroke-width:2.0;"/><ellipse cx="398" cy="61" fill="#FEFECE" filter="url(#f1rfsasc8a18oq)" rx="12" ry="12" style="stroke:#A80036;stroke-width:2.0;"/><text fill="#000000" font-family="sans-serif" font-size="14" lengthAdjust="spacing" textLength="28" x="7" y="1218.5801">user</text><ellipse cx="24" cy="1147.0469" fill="#FEFECE" filter="url(#f1rfsasc8a18oq)" rx="8" ry="8" style="stroke:#A80036;stroke-width:2.0;"/><path d="M24,1155.0469 L24,1182.0469 M11,1163.0469 L37,1163.0469 M24,1182.0469 L11,1197.0469 M24,1182.0469 L37,1197.0469 " fill="none" filter="url(#f1rfsasc8a18oq)" style="stroke:#A80036;stroke-width:2.0;"/><rect fill="#FEFECE" filter="url(#f1rfsasc8a18oq)" height="31.6094" style="stroke:#A80036;stroke-width:1.5;" width="54" x="73" y="1137.0469"/><text fill="#000000" font-family="sans-serif" font-size="14" lengthAdjust="spacing" textLength="40" x="80" y="1158.5801">server</text><rect fill="#FEFECE" filter="url(#f1rfsasc8a18oq)" height="31.6094" style="stroke:#A80036;stroke-width:1.5;" width="55" x="208.5" y="1137.0469"/><text fill="#000000" font-family="sans-serif" font-size="14" lengthAdjust="spacing" textLength="41" x="215.5" y="1158.5801">client1</text><rect fill="#FEFECE" filter="url(#f1rfsasc8a18oq)" height="31.6094" style="stroke:#A80036;stroke-width:1.5;" width="56" x="277.5" y="1137.0469"/><text fill="#000000" font-family="sans-serif" font-size="14" lengthAdjust="spacing" textLength="42" x="284.5" y="1158.5801">clientN</text><text fill="#000000" font-family="sans-serif" font-size="14" lengthAdjust="spacing" textLength="58" x="357.5" y="1183.5801">speakers</text><path d="M369,1141.0469 L369,1165.0469 M369,1153.0469 L386,1153.0469 " fill="none" filter="url(#f1rfsasc8a18oq)" style="stroke:#A80036;stroke-width:2.0;"/><ellipse cx="398" cy="1153.0469" fill="#FEFECE" filter="url(#f1rfsasc8a18oq)" rx="12" ry="12" style="stroke:#A80036;stroke-width:2.0;"/><path d="M8,106.6094 L154,106.6094 L154,114.6094 L144,124.6094 L8,124.6094 L8,106.6094 " fill="#EEEEEE" style="stroke:#000000;stroke-width:1.0;"/><rect fill="none" height="175.4063" style="stroke:#000000;stroke-width:2.0;" width="315.5" x="8" y="106.6094"/><text fill="#000000" font-family="sans-serif" font-size="13" font-weight="bold" lengthAdjust="spacing" textLength="101" x="23" y="121.1045">Turn devices on</text><polygon fill="#A80036" points="226,153.3125,236,157.3125,226,161.3125,230,157.3125" style="stroke:#A80036;stroke-width:1.0;"/><line style="stroke:#A80036;stroke-width:1.0;" x1="24" x2="232" y1="157.3125" y2="157.3125"/><text fill="#000000" font-family="sans-serif" font-size="13" lengthAdjust="spacing" textLength="54" x="31" y="152.4561">Power on</text><polygon fill="#A80036" points="295.5,211.6641,305.5,215.6641,295.5,219.6641,299.5,215.6641" style="stroke:#A80036;stroke-width:1.0;"/><line style="stroke:#A80036;stroke-width:1.0;" x1="24" x2="301.5" y1="215.6641" y2="215.6641"/><text fill="#000000" font-family="sans-serif" font-size="13" lengthAdjust="spacing" textLength="54" x="31" y="210.8076">Power on</text><polygon fill="#A80036" points="90,270.0156,100,274.0156,90,278.0156,94,274.0156" style="stroke:#A80036;stroke-width:1.0;"/><line style="stroke:#A80036;stroke-width:1.0;" x1="24" x2="96" y1="274.0156" y2="274.0156"/><text fill="#000000" font-family="sans-serif" font-size="13" lengthAdjust="spacing" textLength="54" x="31" y="269.1592">Power on</text><path d="M67,300.0156 L188,300.0156 L188,308.0156 L178,318.0156 L67,318.0156 L67,300.0156 " fill="#EEEEEE" style="stroke:#000000;stroke-width:1.0;"/><rect fill="none" height="391.8672" style="stroke:#000000;stroke-width:2.0;" width="281.5" x="67" y="300.0156"/><text fill="#000000" font-family="sans-serif" font-size="13" font-weight="bold" lengthAdjust="spacing" textLength="76" x="82" y="314.5107">Sync clients</text><path d="M86,332.3672 L201,332.3672 L201,340.3672 L191,350.3672 L86,350.3672 L86,332.3672 " fill="#EEEEEE" style="stroke:#000000;stroke-width:1.0;"/><rect fill="none" height="149.7578" style="stroke:#000000;stroke-width:2.0;" width="168" x="86" y="332.3672"/><text fill="#000000" font-family="sans-serif" font-size="13" font-weight="bold" lengthAdjust="spacing" textLength="70" x="101" y="346.8623">Sync client</text><polygon fill="#A80036" points="226,379.0703,236,383.0703,226,387.0703,230,383.0703" style="stroke:#A80036;stroke-width:1.0;"/><line style="stroke:#A80036;stroke-width:1.0;" x1="102" x2="232" y1="383.0703" y2="383.0703"/><text fill="#000000" font-family="sans-serif" font-size="13" lengthAdjust="spacing" textLength="77" x="109" y="378.2139">Sync request</text><polygon fill="#A80036" points="113,409.4219,103,413.4219,113,417.4219,109,413.4219" style="stroke:#A80036;stroke-width:1.0;"/><line style="stroke:#A80036;stroke-width:1.0;" x1="107" x2="237" y1="413.4219" y2="413.4219"/><text fill="#000000" font-family="sans-serif" font-size="13" lengthAdjust="spacing" textLength="55" x="119" y="408.5654">Sync ack</text><polygon fill="#A80036" points="226,439.7734,236,443.7734,226,447.7734,230,443.7734" style="stroke:#A80036;stroke-width:1.0;"/><line style="stroke:#A80036;stroke-width:1.0;" x1="102" x2="232" y1="443.7734" y2="443.7734"/><text fill="#000000" font-family="sans-serif" font-size="13" lengthAdjust="spacing" textLength="71" x="109" y="438.917">Timestamps</text><polygon fill="#A80036" points="113,470.125,103,474.125,113,478.125,109,474.125" style="stroke:#A80036;stroke-width:1.0;"/><line style="stroke:#A80036;stroke-width:1.0;" x1="107" x2="237" y1="474.125" y2="474.125"/><text fill="#000000" font-family="sans-serif" font-size="13" lengthAdjust="spacing" textLength="92" x="119" y="469.2686">Sync ACP/DEC</text><path d="M86,528.125 L201,528.125 L201,536.125 L191,546.125 L86,546.125 L86,528.125 " fill="#EEEEEE" style="stroke:#000000;stroke-width:1.0;"/><rect fill="none" height="149.7578" style="stroke:#000000;stroke-width:2.0;" width="237.5" x="86" y="528.125"/><text fill="#000000" font-family="sans-serif" font-size="13" font-weight="bold" lengthAdjust="spacing" textLength="70" x="101" y="542.6201">Sync client</text><polygon fill="#A80036" points="295.5,574.8281,305.5,578.8281,295.5,582.8281,299.5,578.8281" style="stroke:#A80036;stroke-width:1.0;"/><line style="stroke:#A80036;stroke-width:1.0;" x1="102" x2="301.5" y1="578.8281" y2="578.8281"/><text fill="#000000" font-family="sans-serif" font-size="13" lengthAdjust="spacing" textLength="77" x="109" y="573.9717">Sync request</text><polygon fill="#A80036" points="113,605.1797,103,609.1797,113,613.1797,109,609.1797" style="stroke:#A80036;stroke-width:1.0;"/><line style="stroke:#A80036;stroke-width:1.0;" x1="107" x2="306.5" y1="609.1797" y2="609.1797"/><text fill="#000000" font-family="sans-serif" font-size="13" lengthAdjust="spacing" textLength="55" x="119" y="604.3232">Sync ack</text><polygon fill="#A80036" points="295.5,635.5313,305.5,639.5313,295.5,643.5313,299.5,639.5313" style="stroke:#A80036;stroke-width:1.0;"/><line style="stroke:#A80036;stroke-width:1.0;" x1="102" x2="301.5" y1="639.5313" y2="639.5313"/><text fill="#000000" font-family="sans-serif" font-size="13" lengthAdjust="spacing" textLength="71" x="109" y="634.6748">Timestamps</text><polygon fill="#A80036" points="113,665.8828,103,669.8828,113,673.8828,109,669.8828" style="stroke:#A80036;stroke-width:1.0;"/><line style="stroke:#A80036;stroke-width:1.0;" x1="107" x2="306.5" y1="669.8828" y2="669.8828"/><text fill="#000000" font-family="sans-serif" font-size="13" lengthAdjust="spacing" textLength="92" x="119" y="665.0264">Sync ACP/DEC</text><path d="M67,709.8828 L199,709.8828 L199,717.8828 L189,727.8828 L67,727.8828 L67,709.8828 " fill="#EEEEEE" style="stroke:#000000;stroke-width:1.0;"/><rect fill="none" height="326.4609" style="stroke:#000000;stroke-width:2.0;" width="281.5" x="67" y="709.8828"/><text fill="#000000" font-family="sans-serif" font-size="13" font-weight="bold" lengthAdjust="spacing" textLength="87" x="82" y="724.3779">Stream music</text><path d="M86,742.2344 L198,742.2344 L198,750.2344 L188,760.2344 L86,760.2344 L86,742.2344 " fill="#EEEEEE" style="stroke:#000000;stroke-width:1.0;"/><rect fill="none" height="117.0547" style="stroke:#000000;stroke-width:2.0;" width="168" x="86" y="742.2344"/><text fill="#000000" font-family="sans-serif" font-size="13" font-weight="bold" lengthAdjust="spacing" textLength="67" x="101" y="756.7295">Send song</text><polygon fill="#A80036" points="226,788.9375,236,792.9375,226,796.9375,230,792.9375" style="stroke:#A80036;stroke-width:1.0;"/><line style="stroke:#A80036;stroke-width:1.0;" x1="102" x2="232" y1="792.9375" y2="792.9375"/><text fill="#000000" font-family="sans-serif" font-size="13" lengthAdjust="spacing" textLength="98" x="109" y="788.0811">Chunk[1] of song</text><polygon fill="#A80036" points="226,847.2891,236,851.2891,226,855.2891,230,851.2891" style="stroke:#A80036;stroke-width:1.0;"/><line style="stroke:#A80036;stroke-width:1.0;" x1="102" x2="232" y1="851.2891" y2="851.2891"/><text fill="#000000" font-family="sans-serif" font-size="13" lengthAdjust="spacing" textLength="112" x="109" y="846.4326">Chunk[end] of song</text><path d="M86,905.2891 L198,905.2891 L198,913.2891 L188,923.2891 L86,923.2891 L86,905.2891 " fill="#EEEEEE" style="stroke:#000000;stroke-width:1.0;"/><rect fill="none" height="117.0547" style="stroke:#000000;stroke-width:2.0;" width="237.5" x="86" y="905.2891"/><text fill="#000000" font-family="sans-serif" font-size="13" font-weight="bold" lengthAdjust="spacing" textLength="67" x="101" y="919.7842">Send song</text><polygon fill="#A80036" points="295.5,951.9922,305.5,955.9922,295.5,959.9922,299.5,955.9922" style="stroke:#A80036;stroke-width:1.0;"/><line style="stroke:#A80036;stroke-width:1.0;" x1="102" x2="301.5" y1="955.9922" y2="955.9922"/><text fill="#000000" font-family="sans-serif" font-size="13" lengthAdjust="spacing" textLength="98" x="109" y="951.1357">Chunk[1] of song</text><polygon fill="#A80036" points="295.5,1010.3438,305.5,1014.3438,295.5,1018.3438,299.5,1014.3438" style="stroke:#A80036;stroke-width:1.0;"/><line style="stroke:#A80036;stroke-width:1.0;" x1="102" x2="301.5" y1="1014.3438" y2="1014.3438"/><text fill="#000000" font-family="sans-serif" font-size="13" lengthAdjust="spacing" textLength="112" x="109" y="1009.4873">Chunk[end] of song</text><path d="M222,1054.3438 L329,1054.3438 L329,1062.3438 L319,1072.3438 L222,1072.3438 L222,1054.3438 " fill="#EEEEEE" style="stroke:#000000;stroke-width:1.0;"/><rect fill="none" height="58.7031" style="stroke:#000000;stroke-width:2.0;" width="183.5" x="222" y="1054.3438"/><text fill="#000000" font-family="sans-serif" font-size="13" font-weight="bold" lengthAdjust="spacing" textLength="62" x="237" y="1068.8389">Play song</text><polygon fill="#A80036" points="377.5,1101.0469,387.5,1105.0469,377.5,1109.0469,381.5,1105.0469" style="stroke:#A80036;stroke-width:1.0;"/><line style="stroke:#A80036;stroke-width:1.0;" x1="238" x2="383.5" y1="1105.0469" y2="1105.0469"/><text fill="#000000" font-family="sans-serif" font-size="13" lengthAdjust="spacing" textLength="58" x="245" y="1100.1904">Play song</text><polygon fill="#A80036" points="377.5,1101.0469,387.5,1105.0469,377.5,1109.0469,381.5,1105.0469" style="stroke:#A80036;stroke-width:1.0;"/><line style="stroke:#A80036;stroke-width:1.0;" x1="307.5" x2="383.5" y1="1105.0469" y2="1105.0469"/><text fill="#000000" font-family="sans-serif" font-size="13" lengthAdjust="spacing" textLength="58" x="314.5" y="1100.1904">Play song</text><!--MD5=[5c10861e9a29fb6aea82c8fc1f3a3d4e]
@startuml how_to_use
!pragma teoz true

actor user
participant server
participant client1
participant clientN
box
boundary speakers
end box

group Turn devices on
    user -> client1: Power on
    ...
    user -> clientN: Power on
    ...
    user -> server: Power on
end

group Sync clients
    group Sync client
        server -> client1: Sync request
        server <- client1: Sync ack
        server -> client1: Timestamps
        server <- client1: Sync ACP/DEC
    end 
    ...
    group Sync client
        server -> clientN: Sync request
        server <- clientN: Sync ack
        server -> clientN: Timestamps
        server <- clientN: Sync ACP/DEC
    end 

end

group Stream music
    group Send song
        server -> client1: Chunk[1] of song
        ...
        server -> client1: Chunk[end] of song
    end
    ...
    group Send song
        server -> clientN: Chunk[1] of song
        ...
        server -> clientN: Chunk[end] of song
    end
end

group Play song
    client1 -> speakers: Play song
    & clientN -> speakers: Play song
end

@enduml

PlantUML version 1.2021.10(Mon Aug 30 15:43:48 CEST 2021)
(GPL source distribution)
Java Runtime: Java(TM) SE Runtime Environment
JVM: Java HotSpot(TM) 64-Bit Server VM
Default Encoding: Cp1252
Language: en
Country: US
--></g></svg>