<?xml version="1.0" encoding="UTF-8" standalone="no"?><svg xmlns="http://www.w3.org/2000/svg" xmlns:xlink="http://www.w3.org/1999/xlink" contentScriptType="application/ecmascript" contentStyleType="text/css" height="1089px" preserveAspectRatio="none" style="width:505px;height:1089px;background:#FFFFFF;" version="1.1" viewBox="0 0 505 1089" width="505px" zoomAndPan="magnify"><defs><filter height="300%" id="fxxrdjn8s6snq" width="300%" x="-1" y="-1"><feGaussianBlur result="blurOut" stdDeviation="2.0"/><feColorMatrix in="blurOut" result="blurOut2" type="matrix" values="0 0 0 0 0 0 0 0 0 0 0 0 0 0 0 0 0 0 .4 0"/><feOffset dx="4.0" dy="4.0" in="blurOut2" result="blurOut3"/><feBlend in="SourceGraphic" in2="blurOut3" mode="normal"/></filter></defs><g><rect fill="#FFFFFF" filter="url(#fxxrdjn8s6snq)" height="139.7578" style="stroke:#000000;stroke-width:2.0;" width="481.5" x="10" y="58.6094"/><rect fill="#FFFFFF" filter="url(#fxxrdjn8s6snq)" height="79.0547" style="stroke:#000000;stroke-width:2.0;" width="241.5" x="111" y="212.3672"/><rect fill="#FFFFFF" filter="url(#fxxrdjn8s6snq)" height="79.0547" style="stroke:#000000;stroke-width:2.0;" width="310.5" x="111" y="305.4219"/><rect fill="#FFFFFF" filter="url(#fxxrdjn8s6snq)" height="79.0547" style="stroke:#000000;stroke-width:2.0;" width="380.5" x="111" y="398.4766"/><rect fill="#FFFFFF" filter="url(#fxxrdjn8s6snq)" height="109.4063" style="stroke:#000000;stroke-width:2.0;" width="380.5" x="111" y="521.8828"/><rect fill="#FFFFFF" filter="url(#fxxrdjn8s6snq)" height="382.5703" style="stroke:#000000;stroke-width:2.0;" width="380.5" x="111" y="645.2891"/><line style="stroke:#A80036;stroke-width:1.0;stroke-dasharray:5.0,5.0;" x1="43" x2="43" y1="41.6094" y2="1044.8594"/><line style="stroke:#A80036;stroke-width:1.0;stroke-dasharray:5.0,5.0;" x1="150" x2="150" y1="41.6094" y2="1044.8594"/><line style="stroke:#A80036;stroke-width:1.0;stroke-dasharray:5.0,5.0;" x1="312.5" x2="312.5" y1="41.6094" y2="1044.8594"/><line style="stroke:#A80036;stroke-width:1.0;stroke-dasharray:5.0,5.0;" x1="381.5" x2="381.5" y1="41.6094" y2="1044.8594"/><line style="stroke:#A80036;stroke-width:1.0;stroke-dasharray:5.0,5.0;" x1="451.5" x2="451.5" y1="41.6094" y2="1044.8594"/><rect fill="#FEFECE" filter="url(#fxxrdjn8s6snq)" height="31.6094" style="stroke:#A80036;stroke-width:1.5;" width="42" x="20" y="5"/><text fill="#000000" font-family="sans-serif" font-size="14" lengthAdjust="spacing" textLength="28" x="27" y="26.5332">user</text><rect fill="#FEFECE" filter="url(#fxxrdjn8s6snq)" height="31.6094" style="stroke:#A80036;stroke-width:1.5;" width="42" x="20" y="1043.8594"/><text fill="#000000" font-family="sans-serif" font-size="14" lengthAdjust="spacing" textLength="28" x="27" y="1065.3926">user</text><rect fill="#FEFECE" filter="url(#fxxrdjn8s6snq)" height="31.6094" style="stroke:#A80036;stroke-width:1.5;" width="54" x="121" y="5"/><text fill="#000000" font-family="sans-serif" font-size="14" lengthAdjust="spacing" textLength="40" x="128" y="26.5332">server</text><rect fill="#FEFECE" filter="url(#fxxrdjn8s6snq)" height="31.6094" style="stroke:#A80036;stroke-width:1.5;" width="54" x="121" y="1043.8594"/><text fill="#000000" font-family="sans-serif" font-size="14" lengthAdjust="spacing" textLength="40" x="128" y="1065.3926">server</text><rect fill="#FEFECE" filter="url(#fxxrdjn8s6snq)" height="31.6094" style="stroke:#A80036;stroke-width:1.5;" width="55" x="283.5" y="5"/><text fill="#000000" font-family="sans-serif" font-size="14" lengthAdjust="spacing" textLength="41" x="290.5" y="26.5332">client1</text><rect fill="#FEFECE" filter="url(#fxxrdjn8s6snq)" height="31.6094" style="stroke:#A80036;stroke-width:1.5;" width="55" x="283.5" y="1043.8594"/><text fill="#000000" font-family="sans-serif" font-size="14" lengthAdjust="spacing" textLength="41" x="290.5" y="1065.3926">client1</text><rect fill="#FEFECE" filter="url(#fxxrdjn8s6snq)" height="31.6094" style="stroke:#A80036;stroke-width:1.5;" width="55" x="352.5" y="5"/><text fill="#000000" font-family="sans-serif" font-size="14" lengthAdjust="spacing" textLength="41" x="359.5" y="26.5332">client2</text><rect fill="#FEFECE" filter="url(#fxxrdjn8s6snq)" height="31.6094" style="stroke:#A80036;stroke-width:1.5;" width="55" x="352.5" y="1043.8594"/><text fill="#000000" font-family="sans-serif" font-size="14" lengthAdjust="spacing" textLength="41" x="359.5" y="1065.3926">client2</text><rect fill="#FEFECE" filter="url(#fxxrdjn8s6snq)" height="31.6094" style="stroke:#A80036;stroke-width:1.5;" width="56" x="421.5" y="5"/><text fill="#000000" font-family="sans-serif" font-size="14" lengthAdjust="spacing" textLength="42" x="428.5" y="26.5332">clientN</text><rect fill="#FEFECE" filter="url(#fxxrdjn8s6snq)" height="31.6094" style="stroke:#A80036;stroke-width:1.5;" width="56" x="421.5" y="1043.8594"/><text fill="#000000" font-family="sans-serif" font-size="14" lengthAdjust="spacing" textLength="42" x="428.5" y="1065.3926">clientN</text><path d="M10,58.6094 L156,58.6094 L156,66.6094 L146,76.6094 L10,76.6094 L10,58.6094 " fill="#EEEEEE" style="stroke:#000000;stroke-width:1.0;"/><rect fill="none" height="139.7578" style="stroke:#000000;stroke-width:2.0;" width="481.5" x="10" y="58.6094"/><text fill="#000000" font-family="sans-serif" font-size="13" font-weight="bold" lengthAdjust="spacing" textLength="101" x="25" y="73.1045">Turn devices on</text><polygon fill="#A80036" points="138,95.3125,148,99.3125,138,103.3125,142,99.3125" style="stroke:#A80036;stroke-width:1.0;"/><line style="stroke:#A80036;stroke-width:1.0;" x1="43" x2="144" y1="99.3125" y2="99.3125"/><text fill="#000000" font-family="sans-serif" font-size="13" lengthAdjust="spacing" textLength="54" x="50" y="94.4561">Power on</text><polygon fill="#A80036" points="301,125.6641,311,129.6641,301,133.6641,305,129.6641" style="stroke:#A80036;stroke-width:1.0;"/><line style="stroke:#A80036;stroke-width:1.0;" x1="43" x2="307" y1="129.6641" y2="129.6641"/><text fill="#000000" font-family="sans-serif" font-size="13" lengthAdjust="spacing" textLength="54" x="50" y="124.8076">Power on</text><polygon fill="#A80036" points="370,156.0156,380,160.0156,370,164.0156,374,160.0156" style="stroke:#A80036;stroke-width:1.0;"/><line style="stroke:#A80036;stroke-width:1.0;" x1="43" x2="376" y1="160.0156" y2="160.0156"/><text fill="#000000" font-family="sans-serif" font-size="13" lengthAdjust="spacing" textLength="54" x="50" y="155.1592">Power on</text><polygon fill="#A80036" points="439.5,186.3672,449.5,190.3672,439.5,194.3672,443.5,190.3672" style="stroke:#A80036;stroke-width:1.0;"/><line style="stroke:#A80036;stroke-width:1.0;" x1="43" x2="445.5" y1="190.3672" y2="190.3672"/><text fill="#000000" font-family="sans-serif" font-size="13" lengthAdjust="spacing" textLength="54" x="50" y="185.5107">Power on</text><path d="M111,212.3672 L239,212.3672 L239,220.3672 L229,230.3672 L111,230.3672 L111,212.3672 " fill="#EEEEEE" style="stroke:#000000;stroke-width:1.0;"/><rect fill="none" height="79.0547" style="stroke:#000000;stroke-width:2.0;" width="241.5" x="111" y="212.3672"/><text fill="#000000" font-family="sans-serif" font-size="13" font-weight="bold" lengthAdjust="spacing" textLength="83" x="126" y="226.8623">Enroll client1</text><polygon fill="#A80036" points="161,249.0703,151,253.0703,161,257.0703,157,253.0703" style="stroke:#A80036;stroke-width:1.0;"/><line style="stroke:#A80036;stroke-width:1.0;" x1="155" x2="312" y1="253.0703" y2="253.0703"/><text fill="#000000" font-family="sans-serif" font-size="13" lengthAdjust="spacing" textLength="130" x="167" y="248.2139">Enroll me, i am client1</text><polygon fill="#A80036" points="301,279.4219,311,283.4219,301,287.4219,305,283.4219" style="stroke:#A80036;stroke-width:1.0;"/><line style="stroke:#A80036;stroke-width:1.0;stroke-dasharray:2.0,2.0;" x1="150" x2="307" y1="283.4219" y2="283.4219"/><text fill="#000000" font-family="sans-serif" font-size="13" lengthAdjust="spacing" textLength="73" x="157" y="278.5654">Thats a'okay</text><path d="M111,305.4219 L239,305.4219 L239,313.4219 L229,323.4219 L111,323.4219 L111,305.4219 " fill="#EEEEEE" style="stroke:#000000;stroke-width:1.0;"/><rect fill="none" height="79.0547" style="stroke:#000000;stroke-width:2.0;" width="310.5" x="111" y="305.4219"/><text fill="#000000" font-family="sans-serif" font-size="13" font-weight="bold" lengthAdjust="spacing" textLength="83" x="126" y="319.917">Enroll client2</text><polygon fill="#A80036" points="161,342.125,151,346.125,161,350.125,157,346.125" style="stroke:#A80036;stroke-width:1.0;"/><line style="stroke:#A80036;stroke-width:1.0;" x1="155" x2="381" y1="346.125" y2="346.125"/><text fill="#000000" font-family="sans-serif" font-size="13" lengthAdjust="spacing" textLength="130" x="167" y="341.2686">Enroll me, i am client2</text><polygon fill="#A80036" points="370,372.4766,380,376.4766,370,380.4766,374,376.4766" style="stroke:#A80036;stroke-width:1.0;"/><line style="stroke:#A80036;stroke-width:1.0;stroke-dasharray:2.0,2.0;" x1="150" x2="376" y1="376.4766" y2="376.4766"/><text fill="#000000" font-family="sans-serif" font-size="13" lengthAdjust="spacing" textLength="73" x="157" y="371.6201">Thats a'okay</text><path d="M111,398.4766 L241,398.4766 L241,406.4766 L231,416.4766 L111,416.4766 L111,398.4766 " fill="#EEEEEE" style="stroke:#000000;stroke-width:1.0;"/><rect fill="none" height="79.0547" style="stroke:#000000;stroke-width:2.0;" width="380.5" x="111" y="398.4766"/><text fill="#000000" font-family="sans-serif" font-size="13" font-weight="bold" lengthAdjust="spacing" textLength="85" x="126" y="412.9717">Enroll clientN</text><polygon fill="#A80036" points="161,435.1797,151,439.1797,161,443.1797,157,439.1797" style="stroke:#A80036;stroke-width:1.0;"/><line style="stroke:#A80036;stroke-width:1.0;" x1="155" x2="450.5" y1="439.1797" y2="439.1797"/><text fill="#000000" font-family="sans-serif" font-size="13" lengthAdjust="spacing" textLength="132" x="167" y="434.3232">Enroll me, i am clientN</text><polygon fill="#A80036" points="439.5,465.5313,449.5,469.5313,439.5,473.5313,443.5,469.5313" style="stroke:#A80036;stroke-width:1.0;"/><line style="stroke:#A80036;stroke-width:1.0;stroke-dasharray:2.0,2.0;" x1="150" x2="445.5" y1="469.5313" y2="469.5313"/><text fill="#000000" font-family="sans-serif" font-size="13" lengthAdjust="spacing" textLength="73" x="157" y="464.6748">Thats a'okay</text><polygon fill="#A80036" points="138,502.8828,148,506.8828,138,510.8828,142,506.8828" style="stroke:#A80036;stroke-width:1.0;"/><line style="stroke:#A80036;stroke-width:1.0;" x1="43" x2="144" y1="506.8828" y2="506.8828"/><text fill="#000000" font-family="sans-serif" font-size="13" lengthAdjust="spacing" textLength="83" x="50" y="502.0264">Play this song</text><path d="M111,521.8828 L279,521.8828 L279,529.8828 L269,539.8828 L111,539.8828 L111,521.8828 " fill="#EEEEEE" style="stroke:#000000;stroke-width:1.0;"/><rect fill="none" height="109.4063" style="stroke:#000000;stroke-width:2.0;" width="380.5" x="111" y="521.8828"/><text fill="#000000" font-family="sans-serif" font-size="13" font-weight="bold" lengthAdjust="spacing" textLength="123" x="126" y="536.3779">Setup music format</text><polygon fill="#A80036" points="301,558.5859,311,562.5859,301,566.5859,305,562.5859" style="stroke:#A80036;stroke-width:1.0;"/><line style="stroke:#A80036;stroke-width:1.0;" x1="150" x2="307" y1="562.5859" y2="562.5859"/><text fill="#000000" font-family="sans-serif" font-size="13" lengthAdjust="spacing" textLength="139" x="157" y="557.7295">This is the sound format</text><polygon fill="#A80036" points="370,588.9375,380,592.9375,370,596.9375,374,592.9375" style="stroke:#A80036;stroke-width:1.0;"/><line style="stroke:#A80036;stroke-width:1.0;" x1="150" x2="376" y1="592.9375" y2="592.9375"/><text fill="#000000" font-family="sans-serif" font-size="13" lengthAdjust="spacing" textLength="139" x="157" y="588.0811">This is the sound format</text><polygon fill="#A80036" points="439.5,619.2891,449.5,623.2891,439.5,627.2891,443.5,623.2891" style="stroke:#A80036;stroke-width:1.0;"/><line style="stroke:#A80036;stroke-width:1.0;" x1="150" x2="445.5" y1="623.2891" y2="623.2891"/><text fill="#000000" font-family="sans-serif" font-size="13" lengthAdjust="spacing" textLength="139" x="157" y="618.4326">This is the sound format</text><path d="M111,645.2891 L243,645.2891 L243,653.2891 L233,663.2891 L111,663.2891 L111,645.2891 " fill="#EEEEEE" style="stroke:#000000;stroke-width:1.0;"/><rect fill="none" height="382.5703" style="stroke:#000000;stroke-width:2.0;" width="380.5" x="111" y="645.2891"/><text fill="#000000" font-family="sans-serif" font-size="13" font-weight="bold" lengthAdjust="spacing" textLength="87" x="126" y="659.7842">Stream music</text><polygon fill="#A80036" points="301,681.9922,311,685.9922,301,689.9922,305,685.9922" style="stroke:#A80036;stroke-width:1.0;"/><line style="stroke:#A80036;stroke-width:1.0;" x1="150" x2="307" y1="685.9922" y2="685.9922"/><text fill="#000000" font-family="sans-serif" font-size="13" lengthAdjust="spacing" textLength="109" x="157" y="681.1357">Chunk[1,1] of song</text><polygon fill="#A80036" points="370,712.3438,380,716.3438,370,720.3438,374,716.3438" style="stroke:#A80036;stroke-width:1.0;"/><line style="stroke:#A80036;stroke-width:1.0;" x1="150" x2="376" y1="716.3438" y2="716.3438"/><text fill="#000000" font-family="sans-serif" font-size="13" lengthAdjust="spacing" textLength="109" x="157" y="711.4873">Chunk[2,1] of song</text><polygon fill="#A80036" points="439.5,742.6953,449.5,746.6953,439.5,750.6953,443.5,746.6953" style="stroke:#A80036;stroke-width:1.0;"/><line style="stroke:#A80036;stroke-width:1.0;" x1="150" x2="445.5" y1="746.6953" y2="746.6953"/><text fill="#000000" font-family="sans-serif" font-size="13" lengthAdjust="spacing" textLength="111" x="157" y="741.8389">Chunk[N,1] of song</text><polygon fill="#A80036" points="301,773.0469,311,777.0469,301,781.0469,305,777.0469" style="stroke:#A80036;stroke-width:1.0;"/><line style="stroke:#A80036;stroke-width:1.0;" x1="150" x2="307" y1="777.0469" y2="777.0469"/><text fill="#000000" font-family="sans-serif" font-size="13" lengthAdjust="spacing" textLength="109" x="157" y="772.1904">Chunk[1,2] of song</text><polygon fill="#A80036" points="370,803.3984,380,807.3984,370,811.3984,374,807.3984" style="stroke:#A80036;stroke-width:1.0;"/><line style="stroke:#A80036;stroke-width:1.0;" x1="150" x2="376" y1="807.3984" y2="807.3984"/><text fill="#000000" font-family="sans-serif" font-size="13" lengthAdjust="spacing" textLength="109" x="157" y="802.542">Chunk[2,2] of song</text><polygon fill="#A80036" points="439.5,833.75,449.5,837.75,439.5,841.75,443.5,837.75" style="stroke:#A80036;stroke-width:1.0;"/><line style="stroke:#A80036;stroke-width:1.0;" x1="150" x2="445.5" y1="837.75" y2="837.75"/><text fill="#000000" font-family="sans-serif" font-size="13" lengthAdjust="spacing" textLength="111" x="157" y="832.8936">Chunk[N,2] of song</text><polygon fill="#A80036" points="301,864.1016,311,868.1016,301,872.1016,305,868.1016" style="stroke:#A80036;stroke-width:1.0;"/><line style="stroke:#A80036;stroke-width:1.0;" x1="150" x2="307" y1="868.1016" y2="868.1016"/><text fill="#000000" font-family="sans-serif" font-size="13" lengthAdjust="spacing" textLength="109" x="157" y="863.2451">Chunk[1,3] of song</text><polygon fill="#A80036" points="370,894.4531,380,898.4531,370,902.4531,374,898.4531" style="stroke:#A80036;stroke-width:1.0;"/><line style="stroke:#A80036;stroke-width:1.0;" x1="150" x2="376" y1="898.4531" y2="898.4531"/><text fill="#000000" font-family="sans-serif" font-size="13" lengthAdjust="spacing" textLength="109" x="157" y="893.5967">Chunk[2,3] of song</text><polygon fill="#A80036" points="439.5,924.8047,449.5,928.8047,439.5,932.8047,443.5,928.8047" style="stroke:#A80036;stroke-width:1.0;"/><line style="stroke:#A80036;stroke-width:1.0;" x1="150" x2="445.5" y1="928.8047" y2="928.8047"/><text fill="#000000" font-family="sans-serif" font-size="13" lengthAdjust="spacing" textLength="111" x="157" y="923.9482">Chunk[N,3] of song</text><polygon fill="#A80036" points="301,955.1563,311,959.1563,301,963.1563,305,959.1563" style="stroke:#A80036;stroke-width:1.0;"/><line style="stroke:#A80036;stroke-width:1.0;" x1="150" x2="307" y1="959.1563" y2="959.1563"/><text fill="#000000" font-family="sans-serif" font-size="13" lengthAdjust="spacing" textLength="109" x="157" y="954.2998">Chunk[1,4] of song</text><polygon fill="#A80036" points="370,985.5078,380,989.5078,370,993.5078,374,989.5078" style="stroke:#A80036;stroke-width:1.0;"/><line style="stroke:#A80036;stroke-width:1.0;" x1="150" x2="376" y1="989.5078" y2="989.5078"/><text fill="#000000" font-family="sans-serif" font-size="13" lengthAdjust="spacing" textLength="109" x="157" y="984.6514">Chunk[2,4] of song</text><polygon fill="#A80036" points="439.5,1015.8594,449.5,1019.8594,439.5,1023.8594,443.5,1019.8594" style="stroke:#A80036;stroke-width:1.0;"/><line style="stroke:#A80036;stroke-width:1.0;" x1="150" x2="445.5" y1="1019.8594" y2="1019.8594"/><text fill="#000000" font-family="sans-serif" font-size="13" lengthAdjust="spacing" textLength="111" x="157" y="1015.0029">Chunk[N,4] of song</text><!--MD5=[4e1cc7e9a5f80e3a7493478221711a54]
@startuml how_to_use

group Turn devices on
    user -> server: Power on
    user -> client1: Power on
    user -> client2: Power on
    user -> clientN: Power on
end

group Enroll client1
    client1 -> server: Enroll me, i am client1
    client1 <- - server: Thats a'okay
end

group Enroll client2
    client2 -> server: Enroll me, i am client2
    client2 <- - server: Thats a'okay
end

group Enroll clientN
    clientN -> server: Enroll me, i am clientN
    clientN <- - server: Thats a'okay
end

user -> server: Play this song

group Setup music format
    server -> client1: This is the sound format
    server -> client2: This is the sound format
    server -> clientN: This is the sound format
end

group Stream music
    server -> client1: Chunk[1,1] of song
    server -> client2: Chunk[2,1] of song
    server -> clientN: Chunk[N,1] of song

    server -> client1: Chunk[1,2] of song
    server -> client2: Chunk[2,2] of song
    server -> clientN: Chunk[N,2] of song

    server -> client1: Chunk[1,3] of song
    server -> client2: Chunk[2,3] of song
    server -> clientN: Chunk[N,3] of song

    server -> client1: Chunk[1,4] of song
    server -> client2: Chunk[2,4] of song
    server -> clientN: Chunk[N,4] of song
end

@enduml

PlantUML version 1.2021.10(Mon Aug 30 15:43:48 CEST 2021)
(GPL source distribution)
Java Runtime: Java(TM) SE Runtime Environment
JVM: Java HotSpot(TM) 64-Bit Server VM
Default Encoding: Cp1252
Language: en
Country: US
--></g></svg>